<mxfile host="app.diagrams.net" modified="2024-03-29T08:33:01.354Z" agent="Mozilla/5.0 (Windows NT 10.0; Win64; x64) AppleWebKit/537.36 (KHTML, like Gecko) Chrome/123.0.0.0 Safari/537.36 Edg/123.0.0.0" etag="X9dKJdAIR26_7aC4oVFO" version="24.2.0" type="github">
  <diagram name="第 1 页" id="x-jX2Nc4AL43lKyaFcz9">
    <mxGraphModel dx="906" dy="613" grid="1" gridSize="10" guides="1" tooltips="1" connect="1" arrows="1" fold="1" page="1" pageScale="1" pageWidth="827" pageHeight="1169" math="0" shadow="0">
      <root>
        <mxCell id="0" />
        <mxCell id="1" parent="0" />
        <mxCell id="Hw-htN5rczD3jCFHkLMe-1" value="" style="shape=image;verticalLabelPosition=bottom;labelBackgroundColor=default;verticalAlign=top;aspect=fixed;imageAspect=0;image=data:image/png,iVBORw0KGgoAAAANSUhEUgAABXAAAAMSCAYAAADDY+zFAAAgAElEQVR4Aey9e9R9V1nfmz+Pw46ennqOcvQMW7VFHFK1ogUFBEQuEkKQRK4hXJJSQCTcUQKJEEI0ASUBBBIuCQQCSIwkGpIYAuESPS3q4dqL0kq5tLUXxmkddYyOccY647Pt9+V552+tvfd6f/uy9rs/f+wx15rzmc985jM/a717f9f8rd8pf/VXf9X99//+37u//Mu/7L7xjW90f/7vvtx97utf7P7vr/1R94mv/2F359fv8mMOZEAGZEAGZEAGZEAGZEAGZEAGZEAGZEAGZEAGZGANDKDBosV+/utfnGmzaLRotWi2aLencPBf/+t/7f7iL/6i+8LX/rmLsIZFUAT3IYAMyIAMyIAMyIAMyIAMyIAMyIAMyIAMyIAMyMAyDKDR/oe/+A8zzRbt9hTE26/8+692f/j1TyveKt7KgAzIgAzIgAzIgAzIgAzIgAzIgAzIgAzIgAzIwJYZ+Kf/7o+7r/z7r3T/7b/9t+6U//yf/3P3ha+683YZ9Vsbn5LIgAzIgAzIgAzIgAzIgAzIgAzIgAzIgAzIgAxsgoHPf/WLHdrtKf/m63+uor5lRX0TC+4Y3lhkQAZkQAZkQAZkQAZkQAZkQAZkQAZkQAZkYLcY+PK/+7fdKZ/92hcUcBVwZUAGZEAGZEAGZEAGZEAGZEAGZEAGZEAGZEAGZGBiDHz2q5/vTvmDr/4zF2ZiC+OTkN16EuJ6uV4yIAMyIAMyIAMyIAMyIAMyIAMyIAMyIAPrYOAPv/rp7pQ7v2Zy15FcfcqVDMiADMiADMiADMiADMiADMiADMiADMiADMjAyTDw8a/9QXfKyTiwrwDKgAzIgAzIgAzIgAzIgAzIgAzIgAzIgAzIgAzIwPoYUMD19Qm+QkMGZEAGZEAGZEAGZEAGZEAGZEAGZEAGZEAGZGCiDCjgTnRhfGqxvqcW5tbcyoAMyIAMyIAMyIAMyIAMyIAMyIAMyIAM7AoDCrgKuD5dkQEZkAEZkAEZkAEZkAEZkAEZkAEZkAEZkAEZmCgDCrgTXZhdeQJgnD6tkgEZkAEZkAEZkAEZkAEZkAEZkAEZkAEZkIH1MaCAq4Dr0xUZkAEZkAEZkAEZkAEZkAEZkAEZkAEZkAEZkIGJMqCAO9GF8anF+p5amFtzKwMyIAMyIAMyIAMyIAMyIAObZ+BjX/tUd+Pnbu5++09unJWcuw6bXwdzbs5lYPcY2JiAe+uffaR79dsv6R7/rCd2Z5zz872fX73mssGb9+XXv6k789zH9vZ77DMe313w5ld1N//L3x/sf/O/uK37rU/fcMLn9/7Fbd3vfOZ3T6hvbekP4PyBWca+7X/9n9zYffQrnxyMz4tn9y4e18w1kwEZkAEZkAEZkAEZkAEZkIHlGfjwv7q9O+0Jp3d3u9vdugc/8me6D33uZn8ju6lMBmRABpZgYCMC7hs/9Jbu+3/4Ht0pp5wy+HnAqQ/sbvriLYOLhoD6wNN+erA/vr/nHt/bXfbe3+j18cyX/0Jv36e+8Jzu/g//qd62Gi/9+cNMHMvY174c3+NHfmAmEueP++ln/9zCMVsf3/V3v6v7zZuu7J1f/Fou/+XBXJkrGZABGZABGZABGZABGZABGdgcA9mBe9GVr+n+4b1/tLvqlnf6+3YJ4UZGN8eouTbXU2Vg7QLu2267eiastmJkzr/lW7+l+4f3vVd35S3vWHjjfu9dH+ju/aD7dPRJ/7b87r/3d7o3/+5VJ/iKgPtd3/N/zcRkSvo+7YXndKc+4bRZHSJz/XzvD3zfbKy//e3f1j3vNS+c+YyASwy0H9j/0D067L71b/6N7u/f8+4H9RxTp4DrTWCqNwHjkk0ZkAEZkAEZkAEZkAEZkIFNMnDdXb/V3ecBP9Gd+6JndJe889LRnzd96K3dR7/qv3Dd5Jo5lvcIGdguA2sVcHm69rhnPuEEsRVB8yd+5idnrz2Yt+t2CA768MqEBz3qwTPRtBVxH/nER3W3f/nOQyJuBFxK4nr0Ux/T/a9/+291l177ukN2dUx2u7LrlR23eYVCBNx2N2zqW6GWVylQ19bXcTze7kVg/s2/DMiADMiADMiADMiADMiADGyOgdv+9Ue7M57687NXKfA6hbGfH7/vj3fv+th7B3/Lu5aH1/Kya3+9e/JznnJCvqijzXwdzpf5MB9TZGCtAu6Nn7+5+0cPvPeBgMuuVV5ZMO9dtWOTdPuf39k955XnHRJyf/Be9+yu/+MPHboJVQE3cf29H/z73bs/8b7u1i/dccI7cG/6wodnrysYEnC/8+98Z8c7e/Ou23fd+d6ZKH33f/D93VtvfvtBPcfUKeB6AxjLtvYyIwMyIAMyIAMyIAMyIAMycFwZeOElL+nu9zP37z74R4d/u8+bL5uxzn7uU2fv0eV9uq0tr2T44R/7kQNBmPftYrdIqCSWCJn4+PmnP27Wr/Vfz/GL3SZfA8F//nbfB9/vYH5Dwjc22NZ4yUEVcTlm3tVmXceJOzkeM84m4ySu3/nM73WnP+7R3dW3v/sgN311dQ7n//orOj6pw/4ZL/wn3a1/+pGDurS1Jf0u/8AbF9rRD3+Pe9oTlrZvx9rG+X+57Me77tmnzP187R1nDM7/X9304m5e+11f+nD3/158z+6zn/jmg4i+OuZeY/n/zvtfDvrgvx0DH3/5K993EDfH1CWH+Gr7pG1d5VoF3Ow+zQ7Z+z70/h3/adiqJ8N/kMZu3IzTJ5ZWAfftt7+r+57v/56O9+5y073oba856BsfvKN23g7c2C1b9sW06jzozy93MiADMiADMiADMiADMiADMiADu8AAr0G4133u1VEm3tu+dEf3uusuP/RKhSrw/u4Xb+ke9nM/2z3nguce9ElfSsTUc1/8jFkboiHi33s+8f5e0RMxMfZVwOV4GWFzWaG3xreO40Xx0j4k9Ka+CrurjpE8VVE9Y6akDZus3zzbvj6rjhdB9V73utfB5+GnPbz7xZefd3CeNgTajE17K/iuQ8BlvEVicmLalXKRQLuoHeH2P17+gIO1YN59dW0+6IPdP/38+7v/8eL/7UCoRWzmnPr0wQ6R+Iu//6oO4bdPkN6EmLtRAbe+iiCJWFVZ/1OwPrG0Cri/8paLZoLt45/1xNmCRMD99u/8ju7v3v17Zm2LBNyTfQfuquatH7+cyYAMyIAMyIAMyIAMyIAMyIAM7BoDN/w/v9v91EMfcEgszU7NCHWUddcmQh//+Rkib998aUfARZA8//ILZiW7ZKsP+iFqUscnOzw5ZoMXu3br+DmmfZEYGdsqSvbFucq6ZQRcYs+YrX1ykPZVlhGPWQPyWoXi5BKbjJn14zxrUWOPHWuMbc5XVSLCnv3sp85EUgRYxFJ2x7Lrld2v1FXhlnHTh34Rd/tKhGH8IQj3tdc6bN7/h9fPxq31844T46pysSo/CLB9gmetmyd+0p/droknYiq7YVvf2VWLv+o/9Yiy+GrLKtjW8SIEt2ViSUmfeXOI3cmWeyngPuUFT5+JtAi5JDACLqJtPZ63A9d34PoF6WQvPvvLkAzIgAzIgAzIgAzIgAzIwL4y8JEvf7x7/DOeOHsXLu/EXSYPL7/iwtl/fsZ/gtZnHwEwAi6vEuCDCJidufRDNKQuAmOE15951ENnImN271501SUzm9hnTMZZ5jULsV9nSWx8hsZo55i51rIKq0N+VlFPzjNuXm9R/S4Ta/rPm3P1OeaYnbQItpde/bq5YisCK2IsvhFm+WScCL2nP/bR3UVvvvignnb6tDtz6VtfoZD+8Z8xqk3Goq6OnfpdKqv42QqvnNMeARYh9X+86G8dvPqg9s1rE6hDpK2vO8hu2wixtGGDbdrwyy7b+qqE+I/Pbed1EgIur0B4zdW/NvuPyfjPyYY+2GDbl7QxO3CrLTtzq2hbj+cJuCfzDtyMsezrF6rdOncx9+XVOr9QyoAMyIAMyIAMyIAMyIAMyIAMrIMBBNl7/sg9u7OefXb3tOefs/Bz/4f81FzBNwIuYi1iIcIkOzkR+zjPHKjnPDs5aUespR7xNn3TL/b0x1999y32iJGU8b/Jkhj5DI2ZOaS9tc9c076qMjtoI7hSksf4Z63q6xKqoNsX06byjHD6ootfcsJO28RdBVZsEXOriMqOXPqzIxdBGPv0PaqAi098xU/K9tUNqZ9KiVBa3yNbd8XW477dqxFvEU//6mX/52xHbd0pyxwjsHIcARcRlvqag4i0EXCzAzciL+d5jUIVcL/8nqfMxOI6Tj2uY2zieBICbvuu3CpY1uO+VyMkSVWU7bOrr1CotkcVcGtcyxzXmBRw/fITbi1lQQZkQAZkQAZkQAZkQAZkYF8ZiIj3Iz/+D7uf/On7LfX55V9/+SFxpuauT8BF+HvOhefN3oWLgIiwSHnBG195SOClLkIox1XgjdDLWNRXUbLvGJsa1zqPW0G2HYv2vhhrHfNt+63qPGtcx6vHfa+buPbj7zshz33/MduqYowfBFZeRUCJKNu+soC6KuByzk7bKuBmFy87bc//9QsWvhuXvnV3bfWfuKhDEEbITV1e3VAF4rSlvOIDb+pO/blHdg975MMOfaijLXbbKiPStuNnhyzCKoLpv3/Lz57wH5XRh7YqBGenbnbXxm8E3NY+faswjMiLH3zwiQ0l/flUwRl7ROOIwRlzHeUkBNzr+Z8UH3r/7vt/+B5zP9hg25eIKspWsTS2VcClrp5HUMVHPe7bgcvN/tQnnHZinD90j+5vf/u3dd/6N/9G9/fvefcT2odiv/3Ld3aPfOKjOt6p+4JLXtQ7t8zB0i92MiADMiADMiADMiADMiADMiADx4WB/Kdk//gl3/wPoU5mbn0Cbl6DgN8IsRFoqeMYQTEiJj7YYct/fkYdGkD69cW2qZ2hfWNTt4yAWwXl1p62zH1ojJOpz5rERzt+zS25RKitAm9ir234iL9Vlq2AW4XZvK6gCqy8IoHXLcQuO2Wz0/YtN73t0M5Z6pd9By62dW5VsKXt9Mc9+pCgW21z/LGvfap77bt/o/uJn/yJAzGaY+poi926ymV230YgrTtfEUgjkkYw7RNK00b82YGLHedVxI2AW+eJHfX4SAwpayzpE7E5YzIedn226bPqchIC7iomtSkBdyjWm//FbR2vN+gTj4f6UH/Vre/svvvv/Z3uh+/zI931f/yhtV9A82KxzS+CMiADMiADMiADMiADMiADMiADm2QA8fZhP/ezHWLuKsbNP92PKElZBUHEv4iGtCEQUkeJSPiQ0x86+w+yIjTir74yoY1x6gJuG2/m1dav6/woO3BrLFmfWreuY4TRMTtwiaMKu9kli5+865YyO2xrfeawzA7c2OKHXcE/9cCfWijepk8VcTcp3mb8eWVE0WqDsPpXL/vO2X80Rn0EU46xr4JpbWsFXM4RcdnFWwVcfCDUsqs3Ai51iaEVimljR25ezRDBN7t92xjjZx2lAu7Id+AOva/3l1//8u6H7v3DMzH2hb/2khPe4/uqq17TfehzNx9AwWJyIT3umU+Y/YdqT3/xPz7Uto7F1qdfxGRABmRABmRABmRABmRABmRABqbEwEVXvuaQwFrF1vZ4mX9GH8EPoTIibuab3aARcFMfATeCLnYIuYizCLjUc0zZxjR03o6dsVZdDgmyEbKH4mvr6ztoVxljch6fbbx1LWhr4xo6X0d+WwE3O2uJvQq1iLLY1nrqePctAnB99QKvVJi3W7YVcJOnvjICLv4jCvfZtXVoT7/xvjfMPpvYeduOjyjK+2TbesRRBNHU5120ta6KtNghykbErW2tgBufqf/C7RfN+kWspW926aaOPhFw//jTb5u9Fzdtsa1jZox2HqlfdXksBFwAPO2s02dCKO+j7dsFW1+ZQBLreV6bUN9ly47evlcoLPu+3uqL4+/6u98181cX8NpPvq/7/h+6x+zDcW3L8TUfe89MDL78+jdtZIt7xrX0S50MyIAMyIAMyIAMyIAMyIAMyMC6GbjpC7d0l777dd0l77x04ed1113e3falO3p/OxNnuxsWkQ9Bt86hb0dtBFzsEBx5Hy9ln8/qa5n21n7V560gusj/WPtF/ha1k8f6n5W1gmzfO3DxST9E9PMvv2C2Yzo7oxeNdzLtrYBbhViOEVvrKxQYCyGVnbd88j7adqctNgi7aa8xLiPgIg4zPmX6pq6KzGmbWvnF33/VbAdrhNfE1wqfiKQRTKtNW4ddBNW89oCy7opNf0RhxqVMHWWEWMrqg+M2Tuyzizf9qq+01bp1HG9UwOXdsO+6872HkraKSb3nU+/vfvBe91xawL3pi7d0j3ryo2f2CLmXXvu6E95Z+8RfOKtXwL3pCx/uzn7eU7szzvn5Q59HP/Ux3ffc43u77/iu75iJyW37E579pI4463wjIrMLd+gpSETedeWuxuOxX85kQAZkQAZkQAZkQAZkQAZkQAY2zQDC7AN/9qe7X7zwvO4jX/74od/Nb7/tmtkrFhBjf++f33aorY2z7uasbQi79d2q7e7NCLjYRSikLmIjx9VfPW5F49q26mPiTkyLynaOiWUbAi7rkvHbsq5ZnV92BGdHdbujeGh+rf8x51XAbfshvmZ3bRVjEWdbEbUVcFtf9XxIwK3jzdttS3/E3RpT9T+14+yyHRJcEy8C7SKbKqZmpy07aOsY+MDXkN/qA5vswMUfx4jCVdStddTXtoyxrnKtAu6tX7qje/CjH3IgrLIT9bu/77u7J5/31O7tt7+r++hXPnmQxLETRPC8+o5rZ77wWXe88i5a3klbfUYspcwx/+nYa697/SG72uc3PvCG7n+/2/8xe7dt66/acTz2Hbi875b33vbtzK2+mecTnn3WbH6+ZsEvUpUNj+VBBmRABmRABmRABmRABmRg1xm45U8/0p3+pJ+bCZN9r0h4+gvOnbUN7dTc9fkbv9ewDMjAMgysVcAlAN4N+y3f+i2HBNaIrd/+nd/RsXP1DTe8eSkxF8EX2zPPfezsXbPxU0vGesElLzpBlI1oS/maq39ttnv2lVdefMLOV95Ty/tqX3b5K7of+6l/NIv7MU8788AfwvMFb37VCZ9F78ClD7FnUc5/w4WzvDAGx30+U/eMlz2r+7bv+LbuH/z4D3XX/cEHD3zEl6UXuwzIgAzIgAzIgAzIgAzIgAzIwK4y8EuvO7/7gXv+QPf0F57b3f7ndx76zfv6D7yx+9H73Kt7zNlnLNyBu6vzN26vXRmQgUUMrF3A5ebL6wSqyNoeI7o+6xXPOUFMbYP/hQt/cVAMjk/Gam/4+KkCbuu3nue9t/HHaxHeevPbD/6AxE/ax5S8VzdjHdXPy9944YGP+LL0QpcBGZABGZABGZABGZABGZABGZABGZABGZCB48nA2gVcwGHn7PlXXNB97w9836CQy6sE6g7VFrg3/s6bB3fdIqLi+7yLX9Ar3uIru24pW9/1nPfU8r5ahGAEY/7TstoeP+07bpc5f/Flv3Tg6yh+nvKCp3cf/KPfOfBR4/L4eF6grqvrKgMyIAMyIAMyIAMyIAMyIAMyIAMyIAP7zcBGBNwKGe/FRRTt+/AfhFXbesw7Zvv6UIfPauvxfkPt+rv+MiADMiADMiADMiADMiADMiADMiADMiADx4WBjQu4xyVxzsObgAzIgAzIgAzIgAzIgAzIgAzIgAzIgAzIgAzIwLoZUMD9upCtGzL9y5gMyIAMyIAMyIAMyIAMyIAMyIAMyIAMyIAMHI0BBVwFXF8/IQMyIAMyIAMyIAMyIAMyIAMyIAMyIAMyIAMyMFEGFHAnujA+kTjaEwnzZt5kQAZkQAZkQAZkQAZkQAZkQAZkQAZkQAaOEwMKuAq4Pl2RARmQARmQARmQARmQARmQARmQARmQARmQARmYKAMKuBNdmOP0lMC5+NRLBmRABmRABmRABmRABmRABmRABmRABmRABo7GgAKuAq5PV2RABmRABmRABmRABmRABmRABmRABmRABmRABibKgALuRBfGJxJHeyJh3sybDMiADMiADMiADMiADMiADMiADMiADMjAcWJAAVcB16crMiADMiADMiADMiADMiADMiADMiADMiADMiADE2VAAXeiC3OcnhI4F596yYAMyIAMyIAMyIAMyIAMyIAMyIAMyIAMyMDRGFDAVcD16YoMyIAMyIAMyIAMyIAMyIAMyIAMyIAMyIAMyMBEGVDAnejC+ETiaE8kzJt5kwEZkAEZkAEZkAEZkAEZkAEZkAEZkAEZOE4MKOAq4Pp0RQZkQAZkQAZkQAZkQAZkQAZkQAZkQAZkQAZkYKIMKOBOdGGO01MC5+JTLxmQARmQARmQARmQARmQARmQARmQARmQARk4GgOn/Mf/9J86P+ZABmRABmRABmRABmRABmRABmRABmRABmRABmRABqbHgDtw3YHr9ngZkAEZkAEZkAEZkAEZkAEZkAEZkAEZkAEZkIGJMqCAO9GFcUv50baUmzfzJgMyIAMyIAMyIAMyIAMyIAMyIAMyIAMycJwYUMBVwPXpigzIgAzIgAzIgAzIgAzIgAzIgAzIgAzIgAzIwEQZUMCd6MIcp6cEzsWnXjIgAzIgAzIgAzIgAzIgAzIgAzIgAzIgAzJwNAYUcBVwfboiAzIgAzIgAzIgAzIgAzIgAzIgAzIgAzIgAzIwUQYUcCe6MD6RONoTCfNm3mRABmRABmRABmRABmRABmRABmRABmRABo4TAwq4Crg+XZEBGZABGZABGZABGZABGZABGZABGZABGZABGZgoAwq4E12Y4/SUwLn41EsGZEAGZEAGZEAGZEAGZEAGZEAGZEAGZEAGjsaAAq4Crk9XZEAGZEAGZEAGZEAGZEAGZEAGZEAGZEAGZEAGJsqAAu5EF8YnEkd7ImHezJsMyIAMyIAMyIAMyIAMyIAMyIAMyIAMyMBxYkABVwHXpysyIAMyIAMyIAMyIAMyIAMyIAMyIAMyIAMyIAMTZUABd6ILc5yeEjgXn3rJgAzIgAzIgAzIgAzIgAzIgAzIgAzIgAzIwNEYUMBVwPXpigzIgAzIgAzIgAzIgAzIgAzIgAzIgAzIgAzIwEQZUMCd6ML4ROJoTyTMm3mTARmQARmQARmQARmQARmQARmQARmQARk4Tgwo4Crg+nRFBmRABmRABmRABmRABmRABmRABmRABmRABmRgogwo4E50YY7TUwLn4lMvGZABGZABGZABGZABGZABGZABGZABGZABGTgaAwq4Crg+XZEBGZABGZABGZABGZABGZABGZABGZABGZABGZgoAwq4E10Yn0gc7YmEeTNvMiADMiADMiADMiADMiADMiADMiADMiADx4mBjQm4L7zkJd2Tn/OUk1by8XPfB9+v++0/ufGQL3yvwn8WF/8POf2h3VW3vPPQOJdd++tLjUMsd7vb3Q4+9IvvlNgwn5xPpfzwv7q9O+0Jpy81z1XFfO6Ln3FCrlfhm7z/8I/9yNK+WW/WnfWnL3kgH32xJE+s8yrZ6xvLOv/wyIAMyIAMyIAMyIAMyIAMyIAMyIAMyMB+MrARARcxDNG1CpocUxeBrW3rE84Q1xDjhsTQKqJlzD7bZWAfEnCJgdgSH/7b2DlfRphtBdyxvhijHTvi9pCvZfIRYXKZOSyTy2oT38lf2ogrsWft2rm1533xVT/4zniVDeo5b2OgfkjAXZRPYmaseWPS5sccyIAMyIAMyIAMyIAMyIAMyIAMyIAMyIAMjGFg7QJuBDQEsBxX4a0KZgkc21Zca/tiU0U5jvnELrsur/34+2ai2ZAoGNEwY6ccEnBpzxjEEPuUGaevLTYpibfmop13xqk26UtJfc1BzWXra0xcsR0at8Yw9jjr1NdvXlvsmSNr2/KR9sRe858+qUtea+7SfyiHbT5jP1RmjHXkcGhM6735y4AMyIAMyIAMyIAMyIAMyIAMyIAMyMDxY2DtAi4CVkSsIXEt/2Q9gLViWfrFT+yqb8Q4dmhGuMWm9ZN+Kee1M2bfKxTSd6hMrPjus0l7u5uU+Nt4FomAzL/1E0EaX20b50Nx1VgT4zK2td+iY/wlvj7bKp7S3s4/810UF7mcx8q8+dUYGCdCcT3ui72vbtF8+/pYd/xusq6payoDMiADMiADMiADMiADMiADMiADMnAyDGxEwO0TElP3nAvPO3jnaCbSimXZQZk+bYk9oh2f+KBs/bTvWUXko88i/1UUrv4X9atxtj5acbIv3j6bOn7iT92Q+Ej7PNEy/VOSN2Jv85n2o5SL5tLnkz7MCdGXeCKm9tnWunbdaxvHtA8JyUM5XOSzHYPzMTnv62+dN3cZkAEZkAEZkAEZkAEZkAEZkAEZkAEZkIG1C7gVMgTHVsgcEkGXFevo//NPf1yHENwKjpzXula4o63dqZl4Ed/aHbj0jyg7FN+yol3mXcdvRcKjip7Ehi/m0pfzzHGopM8YwXTIT61nvj/50/db+j8TY22S66Gyrm0da9Ea0G+ob9aljonYe/7lF8yNJ/mucXA8b6zW1nNvyDIgAzIgAzIgAzIgAzIgAzIgAzIgAzIgAy0DGxNwI4whhCGIZQck9YteoUDQERWrsMZxhNT4r+2tWBw/9EHki9CJUIoIjI8kqE/ATVsrtKaecpF4GNs6n8yh9TtPwMW2znXMMWMnjrbMmAjibU5a2zHn7dxqX0TOxI8dbdTVODmuomt7Xv1xPNQeTjJO26+PR2wSPzmpcSVfQ/7SD7t2LM+9IcuADMiADMiADMiADMiADMiADMiADMiADCxiYCMCLiIWAl0VuRDKxuzI7BPkjiKORXAjnojIJAlf9XydAm7EY4Rb5sWH44uuuuRAkCamxFoFw6EFjW3yjNjZJ2AP9U99XZe+nMdubLnIV+IPI1XUjbjbllXQbeMZEtLpE8G87cP5IgEXYbv2H7KP75ar1Ft6c5YBGZABGZABGZABGZABGZABGZABGZABGViGgbULuBHM3nD9b1Mv6j8AACAASURBVM4ExVaE6zuPiFcn0CcAYhcxjXFaQa+vDp+Iboib8+zHCLjE1jeP1CXGzIe4Ext9a321jahZbbBNffxT9om1fXbYtv4yPiVxJYZ5Oah9ljlmzDbftV9izdpjW+Ns+7fn1VeOsclcqMu6Z4zY1TI2yW36hzU4rjvGF8VBv/pgoI7lsTdpGZABGZABGZABGZABGZABGZABGZABGZCBRQysXcBNAIt2KmLXinjpS4lQFlGtlhHYIohiy/E8oTIiXSusZWcs5TzxMmIe8Sa2xFFj5ri1rX4XiZTJB3Nv/WbcmguOI+QybtvGOfV9vqhLXqpNzetQv2XqFwmdmWvGzhr2zSF12MwbOz6xI++s96I+lVNiybrmGD/UcR7/ibkvFtpazvrsrPNmLQMyIAMyIAMyIAMyIAMyIAMyIAMyIAMy0MfARgVcxMWIb/PKPkGsTwDELgJbFfz6+mfyEd14lyl9hwS9KrSmb8o6LnXEljhik7K1RSA898XPmAmPjB1xNnHV2FOHTT2O7zYn+M5rKdpxI2BW//FDGf9tPhb1qz7mHbfxtLYZP/HV3GDbzrU9b/3lPPHD2zJC6pCAW8fjGF+sY5uvjJty0bxjZ+kNWgZkQAZkQAZkQAZkQAZkQAZkQAZkQAZkoI+BjQq49Z+e9wXTinjVBtGsT/SNcIqQ1oppiGetaIdN+iDWISpHNKzjrUvArWMQC/Oiri/W5AObHNdYqa9zPhkBFz9trhJrX2xpW7assfX1aedXc4N9O9f2vM9n+oWbmqshe+YaPupxjSexDuWr+qbfMuPWPh57s5YBGZABGZABGZABGZABGZABGZABGZABGQgDOyXgtkJYK7DNa2fCtLei25AQOE9wzLh5Hyo7MSP6JbEpY4vol7qUxMP42SXKcdpSVhsEcOJKG/YRJ1Me5RUK+Em/+G7Lvty1NvPOI3r2zZF+zIsY0p55xyf12TWduZLbtLdl/NV54YO+8/oxLh/8Ze1Y5+xsTn1iiG07PudZ13nj9fWzzhu0DMiADMiADMiADMiADMiADMiADMiADMhAGNiogIuYFuFrXtkneCG+tWJZBDbEwSq8ZXK1D7ateBu7lBH4Els7XuzwhU3EwbZf+qccEnfxnxiHxqq+Wz/pm7iq6FxzQ3ufmBhRNfOIn6GSGJkTvods5tUPrUHyef7lF8zWiHnN8zOvLb6G4sycaW9z3uYIX+T8OReedyDQ0yccxVfO27iG5tvaee4NWQZkQAZkQAZkQAZkQAZkQAZkQAZkQAZkYIiBjQq4J/sKhQhuERIR4SL2ZccldfWDiDY0+aPWM35iwQcxtOJqfEcEROxL3RTKiI9DcQ/FyHxq3ofs+uozZtYsNuSyrlNd37qWfcdZh8Q1Zj7pEwH2PZ94/2yXL0IusdEOs/hkFy5lxkvslMynFcFbMbjae+wNWQZkQAZkQAZkQAZkQAZkQAZkQAZkQAZkYFkGNibgLhuQdscb3gibfULocVn7CNXHeY7HZa2cx/G+37i+rq8MyIAMyIAMyIAMyIAMyIAMyMBxYEAB9+uCfBxAdg5yLAMyIAMyIAMyIAMyIAMyIAMyIAMyIAMycBwZUMBVwJ3Uqx2O40XmnPzjIQMyIAMyIAMyIAMyIAMyIAMyIAMyIAMycFQGFHAVcBVwZUAGZEAGZEAGZEAGZEAGZEAGZEAGZEAGZEAGJsqAAu5EF+aoirz9fJojAzIgAzIgAzIgAzIgAzIgAzIgAzIgAzIgA8eHAQVcBVyfrsiADMiADMiADMiADMiADMiADMiADMiADMiADEyUAQXciS6MT0mOz1MS19K1lAEZkAEZkAEZkAEZkAEZkAEZkAEZkAEZOCoDCrgKuD5dkQEZkAEZkAEZkAEZkAEZkAEZkAEZkAEZkAEZmCgDCrgTXZijKvL282mODMiADMiADMiADMiADMiADMiADMiADMiADBwfBhRwFXB9uiIDMiADMiADMiADMiADMiADMiADMiADMiADMjBRBhRwJ7owPiU5Pk9JXEvXUgZkQAZkQAZkQAZkQAZkQAZkQAZkQAZk4KgMKOAq4Pp0RQZkQAZkQAZkQAZkQAZkQAZkQAZkQAZkQAZkYKIMKOBOdGGOqsjbz6c5MiADMiADMiADMiADMiADMiADMiADMiADMnB8GFDAVcD16YoMyIAMyIAMyIAMyIAMyIAMyIAMyIAMyIAMyMBEGVDAnejC+JTk+DwlcS1dSxmQARmQARmQARmQARmQARmQARmQARmQgaMyoICrgOvTFRmQARmQARmQARmQARmQARmQARmQARmQARmQgYkyoIA70YU5qiJvP5/myIAMyIAMyIAMyIAMyIAMyIAMyIAMyIAMyMDxYUABVwHXpysyIAMyIAMyIAMyIAMyIAMyIAMyIAMyIAMyIAMTZUABd6IL41OS4/OUxLV0LWVABmRABmRABmRABmRABmRABmRABmRABo7KgAKuAq5PV2RABmRABmRABmRABmRABmRABmRABmRABmRABibKgALuRBfmqIq8/XyaIwMyIAMyIAMyIAMyIAMyIAMyIAMyIAMyIAPHhwEFXAVcn67IgAzIgAzIgAzIgAzIgAzIgAzIgAzIgAzIgAxMlIH1Cbhfu6u7c/b5VHfn1/yYAxmQARmQARmQARmQARmQARmQARmQARmQARmQgePIwP/UQdckAK9cwP3Y1z7VzT5f/VT30a9+0o85kAEZkAEZkAEZkAEZkAEZkAEZkAEZkAEZkAEZONYMfOyr/1MTZSPrioXclQq4B8LtVz7Z3fFvP9Hd8W8/3n3EjzmQARmQARmQARmQARmQARmQARmQARmQARmQARk4pgyggaKFfvQrn+wi5K5SxF25gEugH/nyx7vb//zO7vf/zcf8mAMZkAEZkAEZkAEZkAEZkAEZkAEZkAEZkAEZkIFjzQBaKJroTMRd8S7c1Qm4X7trpjCjNhPwbf/6o92tX7qju/XP/JgDGZABGZABGZABGZABGZABGZABGZABGZABGZCBY8rAl+6YaaFoomij7MKd/d9gK3qVwkoFXN55y5Zhdt4i3t7ypx/pbvnT2/2YAxmQARmQARmQARmQARmQARmQARmQARmQARmQgWPKwEdmWiiaKNooGulEBdy//k/LeOftTMD9MwTc21f+0t5Vvj9CX3e5Pit6EiJLsiQDMiADMiADMiADMiADMiADMiADMiAD+8kAGii7q9FE0Ub/WsBd3X9mtsIduAq4XqT7eZG67q67DMiADMiADMiADMiADMiADMiADMiADOwvAwq47pB0l6wMyIAMyIAMyIAMyIAMyIAMyIAMyIAMyIAMyMBEGVDAnejC+FRlf5+quPauvQzIgAzIgAzIgAzIgAzIgAzIgAzIgAzIQBhQwFXA9emKDMiADMiADMiADMiADMiADMiADMiADMiADMjARBlQwJ3owkRht/RpiwzIgAzIgAzIgAzIgAzIgAzIgAzIgAzIgAzsLwMKuAq4Pl2RARmQARmQARmQARmQARmQARmQARmQARmQARmYKAMKuBNdGJ+q7O9TFdfetZcBGZABGZABGZABGZABGZABGZABGZABGQgDCrgKuD5dkQEZkAEZkAEZkAEZkAEZkAEZkAEZkAEZkAEZmCgDCrgTXZgo7JY+bZEBGZABGZABGZABGZABGZABGZABGZABGZCB/WVAAVcB16crMiADMiADMiADMiADMiADMiADMiADMiADMiADE2VAAXeiC+NTlf19quLau/YyIAMyIAMyIAMyIAMyIAMyIAMyIAMyIANhQAFXAdenKzIgAzIgAzIgAzIgAzIgAzIgAzIgAzIgAzIgAxNlQAF3ogsThd3Spy0yIAMyIAMyIAMyIAMyIAMyIAMyIAMyIAMysL8MKOAq4Pp0RQZkQAZkQAZkQAZkQAZkQAZkQAZkQAZkQAZkYKIMKOBOdGF8qrK/T1Vce9deBmRABmRABmRABmRABmRABmRABmRABmQgDCjgKuD6dEUGZEAGZEAGZEAGZEAGZEAGZEAGZEAGZEAGZGCiDCjgTnRhorBb+rRFBmRABmRABmRABmRABmRABmRABmRABmRABvaXAQVcBVyfrsiADMiADMiADMiADMiADMiADMiADMiADMiADEyUAQXciS6MT1X296mKa+/ay4AMyIAMyIAMyIAMyIAMyIAMyIAMyIAMhAEFXAVcn67sIAM3fv4bnR9zsC4G8gfC0i8LMiADMiADMiADMiADMiADMiADMrB9BhRwd1C888LZ/oWz7TVAuLv2C3f5MQcrZwC2ts2343uPkwEZkAEZkAEZkAEZkAEZkAEZkIFvMqCAq4CrWLODDCjgKl6vS8BXwP3mH0i/LJgLGZABGZABGZABGZABGZABGZCBKTCggLuD4t0UwDGG7d7AFHAVcBVwt3sNeg80/zIgAzIgAzIgAzIgAzIgAzIgA5tiQAFXAdcduDvIgAKuAq4Crl8UNvVFwXFkTQZkQAZkQAZkQAZkQAZkQAa2y4AC7g6Kd140271oppB/BVwFXAVc7wNTuBcZgxzKgAzIgAzIgAzIgAzIgAzIwPoZUMBVwHUH7g4yoICrgKuAu/4/kH4JMccyIAMyIAMyIAMyIAMyIAMyIANTYEABdwfFuymAYwzbvYEp4CrgKuBu9xr0Hmj+ZUAGZEAGZEAGZEAGZEAGZEAGNsWAAq4Crjtwd5ABBVwFXAVcvyhs6ouC48iaDMiADMiADMiADMiADMiADGyXAQXcHRTvvGi2e9FMIf8KuAq4CrjeB6ZwLzIGOZQBGZABGZABGZABGZABGZCB9TOggKuA6w7cHWRAAVcBVwF3/X8g/RJijmVABmRABmRABmRABmRABmRABqbAgALuDop3UwDHGLZ7A9umgHvph67rHvDwU7sL3/XWLiLicy99dccn55TnnP/SDtta1x6/+RM3d2ece05H2bYtOl+27zs+fUf3+Oc8e2Esdbz0ufj9V8/ia+dWbcnDw844c+4cyAMx4Lf2zTFzOfuFzxtsj90mStjy+t7u9W3+zb8MyIAMyIAMyIAMyIAMyIAMyEBlQAFXAVexZgcZWKeAiyB57/s/aPCD4FqFyCEhdUjYxB7Bc94YVRDti4e6oXEROSPAIpzW4zECaBWgc4wv5j8v9rTVPBHvsy664IS+iLbEVAVcxOLURyzH530e8ODukU98YnfxB67uFYHHzG2erQKuXxLqlwSP5UEGZEAGZEAGZEAGZEAGZEAGts+AAu4Kxbtb/+yO7onPPKe74vq3LhRFr7njuu5pz392R5+hC6H198xffl7HJ/YcRyxKyfjzfKav5fYvvpNZg3UKuFXci4CIAFnr63F23y4SNyPKVrGy+skxfhAwsUtdW9Ie5lPGP7bEGwF1kYDLOIsEZcZg1/HFH7hmYWyM384xAjBt5Cv5zM7cy2+74WAHbivgnvaks2b+3v25T3avvPaq7qGPOaN7zW9dM5ibNldjzxVwd/vecDL3Ffu69jIgAzIgAzIgAzIgAzIgAzIwTQYUcFco4AL5K97w6u5Bjzi1Q6CdBz12EWQjQKWkjb7LCLhV0M34+FlGRJ4Xn23TvGCzLusWcCPGRgSNCBixE5GRuipUIqqmvh6nb8r4CO99ZRVj068t8UN8lPU4sff5rXXEiE/6cky/OkYVXVOPDbbpEx9pT5l27BFpI8LW2BCEX3TFa2evVlhGwI3vF7z+17qznv/c7prPfOJQvGk/2VIBd9rXfu4Blq6TDMiADMiADMiADMiADMiADOwPAwq4RxRwEUirGLTMcURVhFl230bkpTzjKWd1H/rszYdE36MIuFy8+HvEmWcc+PeCPn4X9DoFXMTHoR2piI4IkhEJEWzDfsReRM3sMMWuPa/iZvzUsoqkVfDMOJSMhejZJ+AyXmLBLz7mvQN3KB7mlnlwHHG6xko7ubrsxusOYqntHNMvgjT2xJc5ck5sYwRc8v+oJz+5e8snP3ywDu2YJ3OugHv87hf+DXBNZUAGZEAGZEAGZEAGZEAGZGC3GVDAPQkBd9nXFbRCLELuqY8980CwzW7cXEwIsAi8CLr1lQzZsRu79jz1lPPaqp3Hu3kBr1PAbcU/BEP+2T4lYifiY7WhLkIqYmUVWnNchd8hwTQ+I25il7q+PsST/xgsMfzKu688qEvfZQTcVrBGWGUulPGdePDHfBFiM0ZffLRRT4x8EHnZifuyK6842MHLf5J2FAE3O3oz/ipLBdzdvCd4L3fdZEAGZEAGZEAGZEAGZEAGZOD4MqCAe0QBt14UiKVVzEWgpa7a5DhibgTcnEfoop7+JyvgIgrXmDK+5fG4mDch4EaMrbtZEU0RYxE2EQ37xNFahw8+VQTluBVMw3/K7FiNMMl4EVXxRz3nEVGr/wis8TVUZg5VCMYvPut4nGfMxJPxE2frI3bUJ05el5D/yIyS8/RzB+7xuC69v7qOMiADMiADMiADMiADMiADMiAD62BAAXcFAi4Lw65Z3n2L+DpPwI2wirjKDltsI+Zm5+2VN1+tgLuidVnHRTMFn+sUcBEVEWmHhM/UI2y2toiVCKi0IapGwI2gSUk97djV+hzX/tRxjuBJWfviIyJsrY+flPRjlyuxpq6WEVhTF7+ZWxWwGWeR+Jz8ZNdx33wSD2OM3YHrO3D9MjCFe5AxyKEMyIAMyIAMyIAMyIAMyIAMbI4BBdyTEAoRYBFf29228wTcl152YXfNR6+b7Y59/x/eMCsRfOiTVylEyD2ZVyhEKGaHrxfU5i6oTeV6nQJuhMxaRtSsdYiZiJOpwwbBNqIkbVXAzX8KNk9sxVcreCKwxi+iKB92r9bXCNQxE09K/EUwTV0ta4zVFp95dQT22EUwrv2xIybmX+tz3Def1rbmhHHSju/M892f+2T3ymuvmsX0mt+6pnesjHkypa9QOH73i03dlxxHdmRABmRABmRABmRABmRABmRgPQwo4J6EgBsoEV/ZfYvwSh2CLgJq2tsywuyr3/bamW2E4Ai5Jyvg5rUM82JoY/J8PRfYuvK6bgEXoRIeI1giKEZIrfUIhbSlDiESwRHhkbaIo1UYxWbRLta8mqD6z05YfGa8CJWMh0jLOKlLWcdOXcq08S5a/OOXkvOIshk3AnT6RrhNrMkZ/TJ/bBmDHDFv6iPIxg/lPAEXf8R1nwc8uDv97LO7Sz747hPmWH2d7LEC7m7dC9Z1j9GvHMiADMiADMiADMiADMiADMjAdBhQwD2igIs4iqgy5pOduhFwKXMxIALnnbUnK+DiK69liH/L6Vx0q1iLdQm4EVcRHBEeI2q2oiTtCJfPfOXLZyItoiECZsTMiIgROSOM4rOKlbGrZRU8a32OGYfxOY9oin+E3TreMtcmfRBm45sSH3XnbcZgbvwnaRFUI+zWvhwnb2nPfPDTirc13syp9bfpcwXc43WvWMX9Rh8yIQMyIAMyIAMyIAMyIAMyIAPbZUAB94gCbh+42fmKcISI2mdDXSvgItg+4swzDnbwpl/8xRcCcERgbNpz6iIsp098WW73Qlt1/tcl4G5aLHS8uw6Jx1PIhwLu8bpXrPreoz/5kAEZkAEZkAEZkAEZkAEZkIHNM6CAuwIBFwGWVygg3Oa1BYir2QHYiqlVwE3f1oaLAQH3ac9/9oGw2wq2dYyMlV28Xkybv5g2mXMF3OkJn1MQX1cRgwLu8b53bPI+5ViyJAMyIAMyIAMyIAMyIAMyIAOrYUAB94gCbna6IpwuEk0jtEakjYDLf2bGqw5SH6gj6uLbVyGsBvTk9riUCrgKuKsQa/t8KOB6zzku90nnIcsyIAMyIAMyIAMyIAMyIAPHhQEF3CMKuMcFAOexmzczBVwF3D7xdRV1Cri7eU/wXu66yYAMyIAMyIAMyIAMyIAMyMDxZUABVwF38F29XvjTvfAVcBVwVyHW9vlQwJ3ude892bWRARmQARmQARmQARmQARmQgf1kQAFXAVcBdwcZUMBVwO0TX1dRp4C7n18G/BLousuADMiADMiADMiADMiADMjAdBlQwN1B8c4LaroX1KbWRgFXAXcVYm2fDwVc7y+buo85jqzJgAzIgAzIgAzIgAzIgAzIwHIMKOAq4LoDdwcZUMBVwO0TX1dRp4C73B9Pv2SYJxmQARmQARmQARmQARmQARmQgU0xoIC7g+LdpuBwnOneiBRwFXBXIdb2+VDAne517z3ZtZEBGZABGZABGZABGZABGZCB/WRAAVcB1x24O8gAIpsfc7AuBvxCsJ9fCFx3110GZEAGZEAGZEAGZEAGZEAGpsmAAu4OindeTNO8mFwX10UGZEAGZEAGZEAGZEAGZEAGZEAGZEAGZGDVDCjgKuC6A1cGZEAGZEAGZEAGZEAGZEAGZEAGZEAGZEAGZGCiDCjgTnRhVq3U68+nPzIgAzIgAzIgAzIgAzIgAzIgAzIgAzIgAzKwewwo4Crg+nRFBmRABmRABmRABmRABmRABmRABmRABmRABmRgogwo4E50YXwasntPQ1wz10wGZEAGZEAGZEAGZEAGZEAGZEAGZEAGZGDVDCjgKuD6dEUGZEAGZEAGZEAGZEAGZEAGZEAGZEAGZEAGZGCiDCjgTnRhVq3U68+nPzIgAzIgAzIgAzIgAzIgAzIgAzIgAzIgAzKwewwo4Crg+nRFBmRABmRABmRABmRABmRABmRABmRABmRABmRgogwo4E50YXwasntPQ1wz10wGZEAGZEAGZEAGZEAGZEAGZEAGZEAGZGDVDCjgKuD6dEUGZEAGZEAGZEAGZEAGZEAGZEAGZEAGZEAGZGCiDCjgTnRhVq3U68+nPzIgAzIgAzIgAzIgAzIgAzIgAzIgAzIgAzKwewwo4Crg+nRFBmRABmRABmRABmRABmRABmRABmRABmRABmRgogwo4E50YXwasntPQ1wz10wGZEAGZEAGZEAGZEAGZEAGZEAGZEAGZGDVDCjgKuD6dEUGZEAGZEAGZEAGZEAGZEAGZEAGZEAGZEAGZGCiDCjgTnRhVq3U68+nPzIgAzIgAzIgAzIgAzIgAzIgAzIgAzIgAzKwewwo4Crg+nRFBmRABmRABmRABmRABmRABmRABmRABmRABmRgogwo4E50YXwasntPQ1wz10wGZEAGZEAGZEAGZEAGZEAGZEAGZEAGZGDVDCjgKuD6dEUGZEAGZEAGZEAGZEAGZEAGZEAGZEAGZEAGZGCiDCjgTnRhVq3U68+nPzIgAzIgAzIgAzIgAzIgAzIgAzIgAzIgAzKwewwo4Crg+nRFBmRABmRABmRABmRABmRABmRABmRABmRABmRgogwo4E50YXwasntPQza5Zjd+/hudH3OwLgY2ybJjea+TARmQARmQARmQARmQARmQARmQgfkMKOAq4Pp0ZQcZQLi79gt3+TEHK2cAtvzDOf8Pp/kxPzIgAzIgAzIgAzIgAzIgAzIgA5tkQAF3B8W7TQLiWNO8ISngKl6vS8BXwJ3mNe+92HWRARmQARmQARmQARmQARmQgf1lQAFXAdfddjvIgAKuAq4C7v7+4fZLm2svAzIgAzIgAzIgAzIgAzIgA/vFgALuDop3XqT7dZH2rbcCrgKuAq73gb57g3VyIQMyIAMyIAMyIAMyIAMyIAPHjwEFXAVcd+DuIAMKuAq4CrjH7w+yX7JcUxmQARmQARmQARmQARmQARmQgT4GFHB3ULzrW0jr9usCV8BVwFXA3a9r3nu86y0DMiADMiADMiADMiADMiAD+8uAAq4Crjtwd5ABBVwFXAXc/f3D7Zc2114GZEAGZEAGZEAGZEAGZEAG9osBBdwdFO+8SPfrIu1bbwVcBVwFXO8DffcG6+RCBmRABmRABmRABmRABmRABo4fAwq4CrjuwN1BBhRwFXAVcI/fH2S/ZLmmMiADMiADMiADMiADMiADMiADfQwo4O6geNe3kNbt1wWugKuAq4C7X9e893jXWwZkQAZkQAZkQAZkQAZkQAb2lwEFXAVcd+DuIANTF3DPOf+l3aUfuq5DZKzHQ6Lj2S98Xnfhu946sx+yWWf9vPHf/Imbu4edceZBfMzrtCed1VG/zpi25Ru2/FKwv18KXHvXXgZkQAZkQAZkQAZkQAZkQAamx4AC7g6Kd15I07uQNr0mUxZwEWKfe+mrD8TNKuDShlhaxUmE0DPOPWehIHrNZz7ePetVF3T3f8jDu594wIO7J533i91bPvnhQ76q33r8jk/fMRujxlXb5wm42KV/4r/3/R/U9X2YB7bY5biOswvHCrjeXzZ9P3M8mZMBGZABGZABGZABGZABGZCB+Qwo4J6EgPuhz97cnfGUs7pr7rjuhB1rV1z/1u6Jzzynu/XP7jihjX60UbaAYv+05z+7o/+Q77aP5/MhP475maqAy+7Uhz7mjIPdtwiWEXART9nJimAbQbRPBG3rHvDwU2f+XnbVG7rHnPP07i2fuqV75x9/rDv7Rc/vzn35Ly0l4C4SaBe1R3gdI8wy3yHBOP6mWCrg7t/95DjeI52THMuADMiADMiADMiADMiADBwnBhRwVyjgvuINr+6e+cvPm4myJyvgIgrzQcztE4GPE4TOZfxNdYoCbl41EME14iTiKKJsn5gZIRdhNPZD5S+9+fXdK6+96sAuu2GH7FOPqPz45zx7Jhqnri3nCbgRbZkffp510QW9u28jTsf3sjuLYz+VUgF3/PXoPcycyYAMyIAMyIAMyIAMyIAMyIAMrJMBBdw1CriPOPOM7kGPOHUm9pz62DMPdtzWHbiIvu2Ow/Y8ovA6QdD3bt1opibgIsQibl78/qtnJaLpkKCLIBoxtxVXOWfH7kIx8/Of6s552Uu7F7z+1xbaMtYigTgic732qhBNXNlZHLEXn9hTMn/qmXONPba1burHCri7dS/w3u16yYAMyIAMyIAMyIAMyIAMyMDxZ0AB94gCLqJqFXs47xNjAhE2TgAAIABJREFUqauCbduP9nqhsduW1yuwg7fWe3z8L8Yxazw1ATeiZIRcdqlmR2peoRCbKmpyHDGX9mUF3Fe84zdnr1O48g9uOySYZoyUiQe/qesra0x97dThi/fa1uu+Pa6iL32WEY+HxttWvQKu95ox9yJt5UUGZEAGZEAGZEAGZEAGZEAG1s+AAu4RBVzgRJjNe2oj3ma3bH2FQhVw0y/vwOU1CdmlixhEP3xQ0o+du4q5678Qdu1mM3UBtwqm2akasTPC7jKCKH0QV6uY+Ws3vKd71JOf3L32pvcdqq82OV6VgJvXIVx+2w0HO22rOEs7cTJexqbEpgrUtW2qxwq43m927X5ovDIrAzIgAzIgAzIgAzIgAzJw3BlQwF2RgAsoiLh9Ai4iLUIvgix2VdCt77mNcEuJryoCH3cQnd+4m+1UBdxWlFxmZ2vts2gH7hvvuLH7uac9rUPErf2Gjlcl4CauVqjN7uK2PvFUkTd1Uy8VcMddi967zJcMyIAMyIAMyIAMyIAMyIAMyMC6GVDA3ZCAW/8zslbAbXfgIt6+5LILfJXCSazNui+cbfufmoC77G7a7MKtu1KryFuFUl5XgDAawRPx9vSzz+54fULqlimr/yH7RTbZSUt8vCYh82hLYq67cCPwDo07xXoFXL94bPv+5vgyKAMyIAMyIAMyIAMyIAMyIAOHGVDAPQmRECE2r1AArHYHLm18EHloC3ytgFvFXWzYeUsfXrPAO3HTz/IwvPucj6kJuENC5DxhFHGW1ynU/2AsAi7+0h6xl7IVTNt3zvbFgX/i6GtL3bw4l9nFS6yt4NxXl/GmXCrgep/Z53urc5d/GZABGZABGZABGZABGZCBKTKggLsCATe7ZSn7XqHAwtfXKETAPe9VLz0k7OaVCVfefHX3iDPPmPWpr1iYIkDGtJ0b264LuK24iYAacTaCLSJndvZWkfco4mfdCdu+kzfj9pUIzL/y7iu705501qHdwMQQgTn9aty0c97WHSX2TfdRwN3ONe291LzLgAzIgAzIgAzIgAzIgAzIgAwMMaCAexICLmIt4k12yrY7cFNP8iPOsqM2/bDnHDv8UJ9zXquAeEu/iMJDi2j9/l3guyLgblp8HBovYuvJCsFD/tt6xmlfp9DaTPVcAXf/7if+DXHNZUAGZEAGZEAGZEAGZEAGZGDaDCjgHlHARVRthdV5YmvEXfrkdQoItAi19ONCYWfuqY89c+Y39vN8enFN++Ja5/oo4N4195UIUxVHdyEuBdz9va+s856lb7mSARmQARmQARmQARmQARmQgaMzoIB7RAG3D7oIsPkn1bVEmKW9rx912XkbMZc6xF581Lqh/tYf/SLYxdwp4CrgrksMVsDdr3vJLt7/jFlGZUAGZEAGZEAGZEAGZEAG9o0BBdwVCrj7Bo/z3d4NUwFXAVcBd3vXn/c+cy8DMiADMiADMiADMiADMiADMrBJBhRwFXAHdwVvEkTHGnfjU8BVwFXAHXfNeI8xXzIgAzIgAzIgAzIgAzIgAzIgA7vKgAKuAq4C7g4yoICrgKuA6xePXf3iYdyyKwMyIAMyIAMyIAMyIAMyIAPjGFDA3UHxTsjHQX4c86WAq4CrgOt94Dje25yTXMuADMiADMiADMiADMiADMjAiQwo4CrgugN3BxlQwFXAVcA98Q+af+TNiQzIgAzIgAzIgAzIgAzIgAzIwHFkQAF3B8W74wiicxp3g1XAVcBVwB13zXiPMV8yIAMyIAMyIAMyIAMyIAMyIAO7yoACrgKuO3B3kAEEXD/mYF0M7OofNOP2y5gMyIAMyIAMyIAMyIAMyIAMyMBxZEABdwfFu+MIonPyBisDMiADMiADMiADMiADMiADMiADMiADMiADJzKggKuA6w5cGZABGZABGZABGZABGZABGZABGZABGZABGZCBiTKggDvRhfFpw4lPG8yJOZEBGZABGZABGZABGZABGZABGZABGZABGdg3BhRwFXB9uiIDMiADMiADMiADMiADMiADMiADMiADMiADMjBRBhRwJ7ow+/Ykwfn69EwGZEAGZEAGZEAGZEAGZEAGZEAGZEAGZEAGTmRAAVcB16crMiADMiADMiADMiADMiADMiADMiADMiADMiADE2VAAXeiC+PThhOfNpgTcyIDMiADMiADMiADMiADMiADMiADMiADMrBvDCjgKuD6dEUGZEAGZEAGZEAGZEAGZEAGZEAGZEAGZEAGZGCiDCjgTnRh9u1JgvP16ZkMyIAMyIAMyIAMyIAMyIAMyIAMyIAMyIAMnMiAAq4Crk9XZEAGZEAGZEAGZEAGZEAGZEAGZEAGZEAGZEAGJsqAAu5EF8anDSc+bTAn5kQGZEAGZEAGZEAGZEAGZEAGZEAGZEAGZGDfGFDAVcD16YoMyIAMyIAMyIAMyIAMyIAMyIAMyIAMyIAMyMBEGVDAnejC7NuTBOd7V/eZD76x+/MXnuPHHEySAfj0OvUptwzIgAzIgAzIgAzIgAzIgAzIgAxsngEFXAVcRZmJMIB4251yih9zMEkG4NM/0pv/I23OzbkMyIAMyIAMyIAMyIAMyIAMyIAC7kTEOy9GL8YIuP/lJ390kjsw3R28n7uj4ZEHCwq43qP8OyUDMiADMiADMiADMiADMiADMrAdBhRwFXDdVTcRBiLgKpRt52boH6H+vMtlf17kxbzIgAzIgAzIgAzIgAzIgAzIgAxsigEF3ImId5tacMeZ7s1FoWy6a7PP141cyuU+8+/c5V8GZEAGZEAGZEAGZEAGZGAKDCjgKuC6A3ciDCiU+UdhCn8U2hjkUi5bJjyXCRmQARmQARmQARmQARmQARnYLAMKuBMR7wR/s+BPMd8KZTIglzIwRQaMSS5lQAZkQAZkQAZkQAZkQAZkYLsMKOAq4LoDdyIMKOBu92boH6P+/Mtlf17kxbzIgAzIgAzIgAzIgAzIgAzIgAxsigEF3ImId5tacMeZ7s1ljFB24+e/0fkxB+tioN4n5nF5wW++svNjDtbFQOVw3vG6xtevbMPAPPZqm7zIyzoZqKx5PN3v8q6NayMDMiADMrBOBhRwFXCX/nGyThD1fVc3Tyhr84Nwd+0X7vJjDlbOAGxV3uZxOUbcqD499ovNIgbGsDXGdtG4tstmZWAMW2Ns6xgey9wiBmRLRhYxYruMyIAMyMB+MKCAq4B7SKzxwt/ehT9PKGvXRQFX8XpdAr4C7vbuAe11vs/nYwSLMbb7nFPnPv7aHsPWGFvXYvxa7HPOZEte9pl/5y7/MiADMvBNBhRwFXAVcCfCgAKuouy6RNkxfhVwv/kH0i8L28vFGMFijK1rur013cXcj2FrjO0u5sKYt3ftyNb2ci/35l4GZEAGZGBKDCjgTkS8mxIUxrKdm5QCrgLuGKF1XbYKuNu5/r3vHs77GMFijK15Ppxn8zE/H2PYGmNr3ufn3fwczo9sHc6HfJgPGZABGZCBfWVAAVcB1x24E2FAAVcBd12i7Bi/Crh+IZrCF6IxgsUY2ynMzRh25xobw9YYWxnYHQamsFayJS9T4NAY5FAGZEAGts+AAu5ExDsvhu1fDNteAwVcBdwxQuu6bBVwvRdt+17I+GMEizG2U5ibMezONTaGrTG2MrA7DExhrWRLXqbAoTHIoQzIgAxsnwEFXAVcd+BOhAEFXAXcdYmyY/wq4G7/D7NfjhRwZWAa1+EY4WyMres7jfXdlXWQLXnZFVaNU1ZlQAZkYL0MKOBORLwT9PWCvgv5VcBVwB0jtK7LVgHXe9EU7pdjBIsxtlOYmzHszjU2hq0xtjKwOwxMYa1kS16mwKExyKEMyIAMbJ8BBVwFXHfgToQBBVwF3HWJsmP8KuBu/w+zX47cgSsD07gOxwhnY2xd32ms766sg2zJy66wapyyKgMyIAPrZUABdyLinaCvF/RdyK8CrgLuGKF1XbYKuN6LpnC/HCNYjLGdwtyMYXeusTFsjbGVgd1hYAprJVvyMgUOjUEOZUAGZGD7DCjgKuC6A3ciDOyCgPvcS1/d8Yl4+OZP3Nyd/cLnde/49B0HdbRRd+/7P2j2edgZZ3bYUU/J+YXveush+/i5/LYbujPOPefAPuNQMi4+6/i1fd7xpR+6rnvoY87oKPk84OGnHsSXOClrrNUffU570lm9cWG37vhrLOs+nrqA+/Zbr+7+8Yv+yQn3rRv+5Kbuyb/wlO6WP/3IobbXvef13YsueemhOmwf9bjTO8r6RSQ+3vvJD/S2Y4uvu9/97if4rH6Gjon9vg+8X0fJ50d/7EdnvvBXP/f/6fufEBs+6fOQRz60t432dcc/NK911I8RLMbYrirW5BreOGbN6hpyzPqyZu2Y9Pn5pz1u1gZPfXzCshxu/0vyGLbG2LZMrOocbobuH3UMmM09EB7pR11rI4fbZ5A1mQJblQ2Pp8GF6+A6yIAMyMD+MaCAOxHxzotv/y6+ds13QcA95/yXzgTQiIgRLlsBd6gdYfdZF10wE2mriBs/VcCNYBuBlb7xu0xZRVvsGQMRlnrO8Ydgy5wQdFMf35w//jnPPhCniSfiMfOlPz7jm/Mx8WMffxlzCuXUBVwEhVYoQ4j4xQvOm4kQ7XUVAXeeYIo/7CLKVeEsgm3GZPx2jHnnjBvRFjvGQISNsIc/BBdE6T7BDzvEvgjTVfBrhZejxM/4rYA4bz6bahsjWIyxXVX8yXXWZZ5fcly5gbWc0z9ibnzEtxxu/3vBGLbG2GatV1lyHXMvvPiqX52V89iEsaMIuN4Pt8PkttlaJaf62g5D5t28y4AMyMDxYEABd4UC7q1/dkf3xGee011x/VsX/sB/5i9/c4diBKq2xBc+68X2ije8uuND3Yc+e3N36mPP7N1JWPv2xdVXV8fxePMX+NQF3AiaiJotq/UcUbIKshE62VkbwRIBtJ5X++zAxbaKvGPETfzFT9uPNoTbGnOO6w5cYmSuEXaraJt4qcN/zlsBd178rf82zm2dT1nArcJXvUchRrQ7IB955mndqWeediD2IlZE0KjiRRVIh4Qzxq3jLXtcx2n79MUckbjuoGsFPs4R/+ifeOu8aGuFv3nxt/7bOLd1PkawGGN7svMhX7CUtaJcRgDHJuvWslp94fu6u35rZjtmHefNSw6P/vd8DFtjbOet19i2MJmHAvTnmq/3Eerae92QgIsf+uf+IodH52fsWg7Zb4utoXis3z4TroFrIAMyIAP7yYAC7goFXC6ia+64rjvjKWfNxNV5FxUC7jyhl7YqwsZXK+AyFmOmnbLt2yfW4ieiVS0RhBGGqz+PN3NzmLqAi6AaARZxMYLmI5/0pO5FV7z20O5YRM/s1kXARUztEzPxR9sVv3/DbEfrGAF0nsDZxlptq7hbjzMf6mI/5Ie51FwcRcBlDPyQn4w3hXLKAi67VNnNWgUvdq2y+za7V1tBEiEC8QwxYtPCGeMOiXtVVKvHxB+hL/feIT+ZW+yOKrjgp4o/8bfNcoxgMcZ2VXOqYtiyPiO0wS85p19d+/g56jqmf1sO8dOOX2ORw7/+uz+GrTG27Rod9RyOKk/1ngCj3BdzD6r3xqG1rvVyuJnvfsus/TbYWiYubabDiGvhWsiADMjAfjCggHtEAXdIAK1iaHtcxdGxAm7feOe96qUzsRgBl8/Tnv/s2Y7dKuC2O30f9IhTu5dcdsFMvK3xcMFjy8eLfzsX/5QFXARKdqdW0RKRltchsEsVsTa7UREhq4BLW8TK9pqIv/hPe15tkPOUfa86aEXPVojlHJEYH4zXjhXflHUHbuZRX6NAHf7qzlzqWp/Lxk+/oZ3C7bw2dT5lATcCBCIFryF40w1vOfjn59TxqQIE97IqaOTeVm2qEEd9FXk5RjSugjHHEYvjr69sBTDOs3MTQaUdq44xb+dcxkouiD91rc9l46/5iK9tl2MEizG2q5oX/0z9Zx75kNkDBV6BUNevHrPmrBXjwiJCOZ9qU4/72Fh2HfvmJocn9/d8DFtjbPvWamxdWKr9+u532IXDiPn1mq+MhFF8HvV+UuPJcR2DOs69Hy7P5qbZyrpZLr9G5spcyYAMyIAMbIIBBdwjCrh1cRBXWzGUduqHBNFWWK0iUo7H7MAdEnCJo+7AzXFiYwx23FIOxVrn6vH6bkxTFnARPtlpG8EVMRFhNjtIz7vs4oNXDdBGfTimrP36hEiETHaiVhGYPtSlbyvM9vmhDvG4FV0TE76qaFqPh/zTJzHET7tr9qjxD405NLdN1E9VwK0/+KvgxTECF8IDYiuCJmXuVdRjE7Gj7ct5xA0EC+wYK/0RPKijpK4VImLXllUYrm0RWKqAUo+H/Ed4ia8qtKTuqPEPjRm/2yjHCBZjbFcxl+QZbl5xxa8csIHvrO+8ceAJO2zq2qdP/Mvh+v7eJteLyjFsjbFdNO6Y9tz36LOIv9yX6msR6vXfsun9cPsMsq7bYmsMh9pOgxXXwXWQARmQgePNgALuCgRcLhJ2vVYBtO6C7buIsMWmry3+ViXgMk7ENITbOmbaauy13ePN3QCmLODyioSXXXnFgZCZHbYRLi9+/9UzQbdPYET8pC+iJ69IoKRf+iJicsyuVTjNLljsssMXm4zZN0atW0bAzVi5LlJm7OqP2PKfn9Xj1iY+42OZ+JlXu5u3+t3G8VQFXO5FEbbYeTv7j8Buu2YmvlIfEQIxA7GT87rDq97LqmgWQQN76hGDIwpnPF7RkP9IrBWIq996XP3W+ggsdaxWVCYG2ms/zvOfn9Xj1uYo8TP39j/Sqn63cTxGsBhju4q5INqyjlXcivCV9eU8oj9jUp8HBbS1a55z+lQ2wgJ95HBzf4/DyRi2xtjG/yrKVsANSylhL+PkWg+PsEYdfL293E+xl8Nv/uuG5G9b5bbY2tZ8HXfz9zpzbs5lQAZkYDcYUMA9CQE34mfEn0VlK56OuUgQWFv/CLx5By6xRPCtx+y45dUKjzjzjJlgzGsX2K0bf7xSAXt2EHNM25i4tF3dhT5lARchMe99raJjFWERLLGJ6Mg5rzxAoExfytjVna3x05axRwBeVuhcRsDNawsYL8fMi9ioyxxS4pO5cA3WOaa9jTvni+KfN2Z8b7qcuoD73Au/+ZoXBAZEMUruRYhfEbxyb4qglvYIZLVfbPGDkNGW+KCefza/rNC5jICbGOo8IqZkTomNEp+8vgFhpooysWnjzvmi+OeNGd+bLscIFmNsVzEPBFx2MMIEuatrHd6oQ3DPOmKbNavHtIeDxJZ1a8tF65j+tayx1frEWcevx/OYkMP+v/ub5jDr2Qq49cFBbGpJO33CXdY6D79i2/KXcznsX//kbR3ltthax1z0uXl+zLk5lwEZkIHjw4AC7kkKuGN3rvK6AsTSKsZGOEU85bivLRcd4yG4co6vKuAmlirgIhrzzlvEXeozfsTe+I0/Youf2ubx+i/6XRFwETnZGZv3yoZXXqnATtWLP3DNrC1CZwTbiJmUiLFVLM3u2gial9143YGwihjKrtb6GoN5oib2EWWrHePio7bnOHOhJIbaj2P6Zp4ct+1HjZ/xyUPfmO0YmzqfsoBbhaPsLqNEiIgIMU/AjdCBEJGdqvRPH/xjE191R1r6LBJHcq/EPgJJ6ijnCWfY1/nUfumbeeOnbT9q/BFmmHfrc1vnYwSLMbarmk/NWRVks76MQz28sC7ZwZ36rF8fJ0ddx7659fnHLnHW9hzL4Tf/3o9ha4xt31odtS73tbqui3xlrSlzv+O49pPD3bwf1jX0+JvXsrkwFzIgAzIgA8eBAQXcLQi4iKcIqQCUHbKIt3wQZNNWBdrY0jeCb21HdH3M2U+avXe3CrgvvezC7v1/eMOBgIsf+rUicsQpxdvt3dh2QcBFeOUTwbEVIBE3WxE0Am4VICOmpi67cSPg8sqGCJv4e+hjzpjtgO0TT+Ojlu2Y9IPxZf4TtOqHuOiHv9RzTF2N5ajx46P6zhjbLKcs4LZ/dCOMRYyIkBZBFvsIVZQIU+yKzHErWCC28YmgwU5LfHJO3/s+8H6zHbD0b2PpO088aaMfAuwy/wla+lASE/3wl3qOqauxHDV+fFTfGWOb5RgxbIztquYEO+SMXdmwEfGbXLIOjBM+n/hPzjq0Tlm7iPG1hN1fePkvyuFJfDdb1RrjZwxbY2xXGeO6BNyj3k+G5gb39X7FMex7P1z8vXNbbA2tpfWL18wcmSMZkAEZkIF1MKCAexI/EvIfgY1ZGMTTowq4EXiv+eh1MwE2O3FTz+sR+l7TkP+4LPZtDImfdgXc7d1odkHARais4mIr4KYNIbbuamXHbh4StCUCJrt32cUaAReRmD5VcI3PZQTPNq74pz7vqm3jyDn++XDezjfzo4wNZfyPiR9b5sm8q99tH++CgBtBkx//vBcUAS2iGfczhAFEM+pjkx2QCG91923EM2yf/rxzZ6JbBFz64L8KDBFzlxE8I/JF3IvQMhRDYqHEf4S+Orfcr1PGhjL+x8SP7bKvhciYmyjHCBZjbFcVe7u2lckqUvWNx1rNsznKOvaNk7o21viXw8V/78ewNcY2a3MyZQTQet8YOr7kHZce3A+HbGq998PpvP8WRjbN1slwad/F9xVzZI5kQAZkQAaOyoAC7kkIuIidfYLpvMVoxdMxO3AZLwJr/GR3LXHkw/h1F64C7m7cIKYu4G5bWBw7Prtb8x+Kje27CXuE33kC8SZi6BtjFwTceffYqbUhstQdwVOLDzFxnkC8rXjHCBZjbLc1n22PK4dH+x4whq0xttvmYVvjy+H6OdzW2jru0dbWvJk3GZABGZCBMQwo4B5RwM2uV4TUMQnHvn19QV6JgM+hd+D2jRdfEXVbATf1fQJuG0N2H6bPmDlpu5qbjgLuXZPaidonbu5DnQLuaq5n74snl8cxYtgYW9fl5NZl3/I3hq0xtvuWR+d7ctedbJ1c/uTP/MmADMiADBwXBhRwjyjgInTmlQRjYMjO2Qi/y+7A7RuPuiq4Ek+EWMrE1yfg1tc4JH7sq7/UW27mhqeAq4A7BYFYAXcz17v31fl5HiNYjLE17/Pzbn4O52cMW2NszfPhPJuP+fmQrfn5kR/zIwMyIAMysC8MKOAeUcDdF0Cc5+Zuhgq4CrgKuJu73ry3TTvXYwSLMbau+7TXfWrrM4atMbZTm6fxTPu6kK1pr4/Xj+sjAzIgAzKwKQYUcBVwR70CYlNg7uM4CrgKuAq4/vHfx3tf35zHCBZjbPvGss7rboiBMWyNsR0az3pZ7GNAtuSijwvr5EIGZEAG9o8BBVwFXAXciTCggKuAq4C7f3+E/eLVv+ZjBIsxtua7P9/mpT8vY9gaY2u++/NtXvrzIlv9eZEX8yIDMiADMrBvDCjgTkS82zfwnO+JN1sFXAVcBdwTrwvvFfuZkzGCxRhbedpPno667mPYGmN71Hjst5/8ytZ+rrvXu+suAzIgAzLQMqCAq4DrDtyJMKCAq4CrgOsf6faP9L6ejxEsxtjuaz6d99HuLWPYGmPrehxtPfY1b7IlL/vKvvOWfRmQARk4zIAC7kTEO8E8DOY+5kMBVwFXAdf7wD7e+/rmPEawGGPbN5Z1XndDDIxha4zt0HjWy2IfA7IlF31cWCcXMiADMrB/DCjgKuC6A3ciDIwVcG/8/Dc6P+ZgHQzULwPzuORHpR9zsC4GKofzjtc1vn5lGwbmsVfb5EVe1slAZc3j/fvB7pq75jIgAzIgAzCggDsR8c4L0gtynlAmH/KxLQbkUva2xZ7jyp4MyIAMyIAMyIAMyIAMyIAM/DUDCrgKuEvvLvGiWe+NU6FsvfmV36PlVy6Pljd5M28yIAMyIAMyIAMyIAMyIAMyIAOrYkABVwFXAXciDCiUeWNf1Y19lX7kUi5XyZO+5EkGZEAGZEAGZEAGZEAGZEAGxjOggDsR8U54x8N73HKmUCYDU2RaLuVyilwak1zKgAzIgAzIgAzIgAzIgAzsEwMKuAq47sCdCAMKZf7xmeIfH7mUyylyaUxyKQMyIAMyIAMyIAMyIAMysE8MKOBORLzbJ+ica/9NNkLZf/nJH+049mMOpsAAPHannDLj0Wu3/9o1L+ZFBmRABmRABmRABmRABmRABmRgnQwo4CrgugN3IgxEwEUs82MOpsYAfK7zj5G+/bIjAzIgAzIgAzIgAzIgAzIgAzIgA/0MKOBORLwT0H5A9ykvn/ngG911687jyTIAn/t0PTpX78kyIAMyIAMyIAMyIAMyIAMyIANTYUABVwFXUUYGZEAGZEAGZEAGZEAGZEAGZEAGZEAGZEAGZGCiDCjgTnRhpqLwG4dPm2RABmRABmRABmRABmRABmRABmRABmRABmRgewwo4Crg+nRFBmRABmRABmRABmRABmRABmRABmRABmRABmRgogwo4E50YXyqsb2nGube3MuADMiADMiADMiADMiADMiADMiADMiADEyFAQVcBVyfrsiADMjA3jPwure9sXvr9e/c+zxM5cuJcfhFWQZkQAZkQAZkQAZkQAZkQAa+yYACrsKNgsUeM3D7v7mze80Vr+t+6YJfWerTJ3BR11ffd6P97X/2u92Fv3pJR1nb6U8M77njtw7VY0NbX33tX48zJ+bFcW1rj4nj0jdfPrO75V9+pEPEm9dnzFwZC5/EQTnPf50jc+1bD2xq/ImFeIkb/7TTn/Nqy3Edo7ZhW/OLH9aoL4Za1zdG/F5+zVtOWOO0UbYxsg706Wsj7jpujhk/OWhzy3nynnH76tJGWVmo9Wnr47a1m3de55x4a1n7Ysvcat28Y/xc9LpLD+W8+uD4/IsuOtQ+z19dP/ry6bNn3LBCyTl2mVeuJdYq60ZZ51Z90JY42z7zeAsHfTH21eFraE7YwwJx1Jjrcd+9pfVZmU4M5IO+8VX9YN/HGHG2drlnxW9btmOTY3xkfVr7MefkOvGnJO6bPnvL7F7K2PP80X9e7lsZJ1DIAAAgAElEQVQeMkZbtjww7qK8EFfrP7y199GhOWQN65oM2daYGJeYc02kT81n5oRtez3HPuUQ83V+Q3ke6otvYp7HftZh0fwzBuUi2/bayRyPWjJm5k6ZmGuJTes/a4sdMX/gUzcc/F1qbXOePovmiP0yPMRvLev9uNbX4+S71s3LK3mp9+zMo+YIm6PyUNdgXhyJt2+OfXWxT5m4+9YzNpbf/NFvLsyFDMiADOw+Awq4eyzeeQHv9gXMD7Urf/vq7pWX/mr33o9+8ODHSL7Q5gfM2HWmX35ILtN30Zfs+oMyPxhqHT8Yhr58Mxd+lPMjYplYsCF2PvhcNI8xP6iGfsi0YzBu/RE0dFz70SfrRdnmo62reeEYX+SU+bfrt2w8xJkY2lzX+Nq2vvNFTCTGloM2V8lRXSdiSX5yjB9syUVyEJvE1+Yw9fRrx+XH+Juue9tB/TI/zuNvqGSc5LfGS12uC/r25aSNh3jTp65/zRN+M6/kEf/tfPvmVtevslZ94jviVzvnOj/aqj981LUZsq35Yl74aMfJebVNXcp2vslJX5lczBuvjZdx6hpk3Hk+sKnt9Gfst9/07l7hjpzRztiUfbHXtai+GYt8t30y18Q7puybb2KkbZ4vYsF2nk3bNq9P39zIBbmsQiQc4Lddv7DZN6c2Ds7xw4dx47PPjjrWIaJyO2764CfzowwL7XrVsbDBLwJjHw/VNuPUkvYxazDWnrHwz3za4xpHjo/iP337yuSTthpHbGsdYyfX9RrCtr2O0r+W9OfDmJS1rT1ehoe2D+dhtK+NuvCA/2pDPO06U5f51hKe6neteWP2+a3j1msp9yzKatMet7ke6jcUf51LjsNfO5bnu/3bx/Vz/WRABvadAQVcBdy5X6r2/QKZ6vz5cnvJG3+je/MH3j77wd9+SR/68ts3H7441x+6+fLblvnBP9aeWPjSzZf6jD8vvqN+Qccnolb90s5x4s7Y5IoxOGcufT+w2x9E1a76aX2nLWWdez3GHz+QGKf+AOf4mlvf1/sDq84rc6CuXad6XrnAtp4nRnLRV592yqG+1aYeD/34yxolxvxgTj7wkblVfzX/xMKH9hzX3FIX/5QROluuUl/74jP5iO8ax1GPa/z4aMdkzplTxm/70J51oj+s/O7nbj3ET+Yd2/hkzDpG5pG8t7mJH+oT75ve97aD6zd1tNfruuUZP8RQeWjjYC6sRcYME21MiSWxp8yYyU3q25K5squR8dKWPNY62pKX2NUS23bejM19pF7LmU8tsYvvlPhj/om/Pc/Y5JFxs6bMO4ILfWlL3zomDyLIKbFlraqf+B9TIo4SPx9iYNy+uSfW6puxM9daP+8YP4v6JJbMsZ7XMYmV89jBZiv2kr/cHxJXclvnxHHNK7ZZC45rDHXcunb44EMcEWRf9bpLZzHGB7HgK7FkDPwwF3zThp9FeaIPMS+yy1iUNX+1Pse0V+aGjolvWVt8jImRWDK3jM88l/l7mr41l9SRc9Yl86zluniI38xhqCSXiYc463e4eg9tc9gyE0YZt72fxH9bLuKBMbGhH3EOzeG1V76h974B71yTbb8658SUubfzTLulQo8MyIAMyMBxY0ABVwH34EvgcYN7H+aTHyx9X175stv3hbfNS/2Rgp/0wXe+0OdLPnX1uPWV82rT/iDJj1F+XNGWPm1Zx2/b2nNizo8W2jhPTij5IZBzxszYbZz86GjniE39cdT+qOC8jt3Ot8+euvzA6Ys3a5B51nWJ/8yHePGVXFJffccHPodiia/YtmXNZ21jbHI55LetzzjElxiH4sLvTZ+99ZC4V/2Rc/ikP3PHH/HUWKnHD+PWH+JDOcOO/syRMsd1zkc5xk/mS/+M3+buXbe9rzefmWvyl3llzduY+PGLcFfj5zjzi5+ct/3JFdzXesbi2q1r0B5njvhlbswTH9Xf0Jh1LPxgRwyt6FrtOE5cda6tTc7xR244J7bc39KectE1X+dGn8Sb/lkfhDhEudRTZv6U5GXon8rjkw9xMh7HN37mlpmvxMd65H7ajoE9dcl9+rBmy+Sq+qvHxN2uO6wRI23Y4j9jULb2feeJt46VY3zEd+pS1nnFL7GQd9YXAY8c5VoJL7HNvTtrRpnrM30YP3aMW+NJPhJf9UNsxIA/6rOetR5frFHaMq/4bVnDD/OhvS/OxBE/bZn+jNu2DZ0T2zy/Yaz2x36ZMbBjLdp5Vl9jj9v1aePoi63NJWOyTsytHR9/6+KhcpJx2/y28df51nkMrVvG4LUn5J1z+sEq1w39qMv4bTnkN3a0ExP5y/2pxhi7lBk/JbEQF32wqetAXa3P9YVN/lbgJ/PKGJYKODIgAzIgA8eFAQVcBdzBL2nHBfLjPI980eULfTtPvtDmy23bVs/rl+P8mGp/3FZf9Zgv6rFNiY9qw5dp7IiVD8e088U+fVLSltj4kp76tsyPp8w/X+hr35qT2MU/5bw48yMh8fJjIP6oI6/MIePVH1jU50dfnXs9Tr+UjIewRFyLdgxhQz5qPNThH3/Ucx7fKRkjfVJHiW3q8dG3Lm3+c943Tl9+6nhZC3wkz/FXS3KOLX3rnNKH+hzX3NZ5Uo+fdr3wS+y/80e/1ztf+KJPjYfjvvnWufUdwwP+6Mun+iTWvj7UYRvOOce29mWdmB+5qfUcY5tx0xZfmTt9k6uaX8YKz9iEhzCSeGkjxqxR6ikzz6xh/NGGnzrv2CbOeSW2dZz4I8ahex3xEcc8v2mrcbXjDJ0nzzU/HCNqElO7cznzT4lfxk0MKWlP7BxXu+SVutjQL/HXnNKXD+0IHHxq/6F5LVvP/Jknwk/EauJIzK2fykLasOdTeUse5pWVh5bHxEV+aItQ3tolnlrPMTnKDvfktcZb55c1SDyUtLcxUI9t5os/jomB8bDP9RZf1HHtZn2p58EA/vHFOfHGV40r8daS9nnXS7XNMWPM85scxp6SuKnPcd/1mZzPrpPr3nbwcKX6OcoxOV3m7ynjJ9/zOEtbdoyuk4fkhLVl7pzDBmVywVokhra99mfdiD1rR9vQfHNfIG/wFv8Zs5bzeAiv9K92nCeO6ivMU/IhDmKAifBT50tffOWhUdaGeTG/+OC4juOxwo0MyIAMyMBxYUABVwHXLzk7zEB+OPZ9Ma5f5OfdsPjC2/dFGd98iaadT36A1eP6BZ0xcl5tahz5wUl7fpTU9sTJfOoPj9RT1rhSH7/50j70YyH2+CfWvjjxkXnHPvPK+JxnLOrqD1h85gd3flz0lRHU8MOPj/wAyZh9JbYIQnV+7dwzt8RKnvvG76tjXn3j1vH62mtd5kOfWp9j4ss/ESZv5Jq6tFPig1iYGx/mEBv8tr6rPW11buS1/Q+W2pwxJuuW64DzjFNtM7fqf94xc6ifOkfqM6dazzFtuT4o+RBHa8c5PrBPW+LOeV+Z6w+/HGNT46k804bPNtaa8zpG6vHHwwj6Vn/4oa72yXGuHfoR25Bd7CkTd8raxjF5a6/n1qaeE19d01ynxFLrc70ybgS1jJdYmDfXKznJGK2fNq+xq2XyUsevx5UPbBmfsZk7bbUdv/G3TH5rHPUYH4yROuYYsbqud9oph9aCOObFQttQnphrzUWOI/AgCFGXdSRO1i52tR5fxBiGOU7ctGUd58WDPbFiT47ydzM+KSuPmXufz7Qlh8SDuBVbzlnbzKUtiSF9U1KX+IZyGtuU6ZPztqS9js155aOvP7EnD2nPvFr/Y87JL+ub63PZvsRDHFlj+tU5VD+t7aK4k+9leAgnjMGY+Ca34ZQ6/FGfdo6JPXFwTBtl7qWpo77vU9cjfYf4wNdQ2+ye1/zrD/xlHuGE+Vx35/WzGDNX7JLzmuO+8XKPiR3xcG1QLppr3/yt6+fCvJgXGZABGZgeAwq4A19mhHV6sLomJ64JX175Adf3ZZofArTVHyR9OcwXZtrwkx8G+M4PrPrDox63X6xzXm0Yv/5g5pj2xNb+YElfxs6X/basP2aIO1/iM9e+Hwv4zfyxS94Yh/6JI//0lrrYM682hnrexpOYEBHiJ/5zzg8QfsAQB8fknk/12x7nhwnz48dKzWtry3nsiYf5I2YkR9QxHuMnpsy3LRkP27a+7xxb5s3YdSxsGYd8p526dq0yj8RFO5+MVc+ZE7mvc6U9sTI+figzNn04TnyUGTMlfYgRX9U2MSxb0nfoRyUx1nnhE3vGhod5a5vc0Ac/iTtlchT/sUle6Edb9VNzlR/HmSe26duXL8alHvuwzDnzafOHn8SV+SbuGk9iTFsdI3FVpjnOtZx2ynb82tZ33MaHT3wTc42b+bFDswpq+Et/+iQX6deOl3Z88ZAhOUvf2Lfnqadk3dKPc3wSEyXn9M01Mi+X1ee8Y+ZX/dR1QcBlPNaRuFo/lbHaRn7wW+vq8aJ2xqz3Nuy5fvt46MsX/fkkZ61NyxD+aw7a+3/myZwSQ3y2f1/wxSfjt77rOMkRNhy3cVFHW81dPa554jixVZu+Y/jK2G07MeQaoQ077DPfCIjYpS/HMBKf8d/Wx37ZMnnPdYX/mr/2mHHjO30pU5c1yXlK4swcqWvX7GR4SN4yRu6J1PM3IWtPiQ2c05Z+dezkNTHShzm19wP8tg85h+aOr+o3OaEknvy9Y6zalrhrXfqEhcwBP7QxDv7q/SR5oI0YiZ11pszcaeMc23Y8z0/8HWFOzIkMyIAM7BYDCrgKuH7B2WEG+KKbL7/tzbf9Mty257x+UW9/8OQLMTb5sVeP+aLc/ijCR7WpcRAvfbCJv7721GGXOFPio/5gpD5+6cf50I+F+KAkjvojP2Piu2/c9E38OafkByNzTh3H7Y+kNk/1B8ZQvK3f+G/tiZ0c0J73ZMaWEvusJed1Dm1b7ZfjdrzUtyXzjpBCDulXbYgxP/CIoW2jLmtY29rjobxgV2PFV/vjL2OkJE5sIqxQH55oy/EycbVx5hw/+M05Zb1Gaj3HjJU4FrW1vpl/PmGuHRuf1FUm6jhtfmtO6ceY1T4xZH1r/PWYPtjiL/Nv33OcmLBJ/JTtHBirvfdhQ78a29j1S3z4oG/uNfiN79Yn9fRjruGN+ZHH6iM+seH6j2/swh/92hzHV+ZV22t+GYvrq9pzzDi0pX9tT93Yss8HOWA3cvLU+qS+XUds6nzaPpwnv31tjFk56TsOU/Sv+eI8rNd1b22G1rsvntQxp2X+vjA3PslnSvykLT5TJh9tXLVvbFNiu8z1Evtazlufyjx9yCP2Ga/mnnbsYR+7jFH9px9zTPvYMvlp+2Wt23rOyd2y10mb96Hx6jjL8kB+iIO/o/SpPhiXNrjqyw91tU/Na/y088xcWgE365h+tezzW9vrtZT6eTnKmresECt1da4ZOxxxvee7FHW0448+tV/isNwtkcL1cr1kQAZk4EQGFHB3WLwT6BOB3rec5Itv/TGUHMz7MRcbympXv3jjmx8LtPPJj5t6nC/T1V98xr7vh0D9cl2/dFc/+O77MU5d+0WfWLHHFz7w35eT6r+NcyiO2ge/jFNzlnbGe9N1V81+TEScIS7aa576+tZ46xrUHNQ5V/swQB1jJUaO05YfzPhoc0obog/18ZE5pazjpa4tmRe+KNNG/H0+wwS2fTElRvpnDqkbKrFl3BoraxpBLTFRpp534KY960KJLz7YMX6Oq48xx5lv7ZN50UZ9tWFccjk0V2Kmf/q1duQgn4yJ/6wFx/iIaBhfsW2FDvplJxT9EnPsa+zUET85w2/bxjn+ku9qS9+MjU3GiW3Go8wa1brkLf1oa/1X+77jxEcb8eceSDx8Ul+ZoD47DclTu3YILggy8EbJfPp844f5J3eJr86/9qO9b37VnuPci/v8ZT596xr7vrKOkXbir/ep1FOSV/JCvLWe46x5W59z/NY1TX3Kdo7Vfihf5CTXDXFlnfHZ5hQf7XrPi6cvrtZnbIg1cYS9nLdlxsz8aly0wWDibHNCPZ+Mm3ky9/itbfWYfkM27TjExofYYIpjfGH3G+/8zYM8U9/Oj3PiQUysfeNrKIYaK8f4ji1lYmAeGbPllLbYxR8xw2bOU9a8t+PFpq+suRriYai++qtzSj117fXVt241BvpmLhFwc120+ck4lH1+a3tffH3rjV36ZW3qGqQPbbHrK7Gr/aoN+SQv8+ZT7T32d5UMyIAMyMDUGVDAVcCd+8Vo6gDve3zzftjM+1Jb88YXer7c5ofNUMkPKsZrfwBUXzmuNu2Xfb5Q44sS+6EfLG2/+CaG+mOb+vwIiU/mXn8cpG9b1jiH4qAPbfwIyA8J+rU/7Gq+44uSueaHKedDfYk342DP+ZCwkfn15YJ46Zv1aufM+VBu+2ypy3jz2vt+IBEfcbSxEF9yic/YIX7lPZpDY1E/lBfaiLUy3P6oxaaue8ap61Lja9mK/Ziy+qv9GJP4KPv4Yexqz3HYSlvrO35Spj/n2DJWdknTlvrYUbb5xSZMsm41vzmu65kYKdtrlRgyJmVlHl/hKGO2/sNKy1Tijz/6Z345js28kvgy5rx4Klf4Z/41B5WnxFHbmUebm9gRQ1+MiY25Mz7x9eWhjs1x3/39/2fvzWItO8/zzEKu+iYXDfRFAwaC3DSi3HSCtIwOAih2EEAeO2pZsuNIgSJHsVu2lNixHNvURHOWilWcixSH4iipyCJLpWKRNbFGsooaTMeWTEkU50npDhqdoINGN7obndV4FvUeveerf+299j7T3qfei4XvH775f9fa//+dVavcF3KGHmjLro/VdcEHfEFeOqAeAzKeL9eHTRW1fdzbyLs+n6NNjORS9wT8KqjLP+wIO4y5vmlrhxw8ys80f+Sf+4UsOuSjeNDFpb7ToTnZl1/cr8QkfuwIA4qZNam2sYVfrM2QD/Cgz/PV8hF5fABr/GFIeNDaIj9kY5J++Shsue2hNnawp9i03vW5Jnnst/KjHIpPVHnfCDwM4US2oTWXxNu6v1p5Jab6PEBWBVzm3Var3dLrfNU/5rQmzkdb+GRebeSxIb9YG/q+nqzptAsZ9Mo2tNpPP4WaYCAYCAaCgWXDQAq4KeBmQ7MNMcBGd+yBZ+iQ4g8zeHRA9rbz0GbjrU01m2c25Lx9BhWvNtPqDx1YkEef+Fy3H7bQJ5uTKIcWvjnLoWASn8/hA1c9HLUOEugnN+4nuuRrlWH8qBV4yRN20EHM2HVfaOsAAqVA0SoAKV/wcKGvHtiqXvdT8u6vYtOcqA5c+KqxFlVO5D99ZOhj2/WLl3G90dzytzUmnejAD2LQfVDzIF88TsaIyfNKH73wtWIbM6Z4W7zyy3PgPrXiFKbQJ93SAz9j3mcM/fufPbQqNvcHGdly/fB44YNcwFtlGdcY/tPXG4Eah7pf6BGvnhGyxVrIDjKMj8Wb+Phf42ddO2wKG+gRFhjzcdfrvipW+ay+qK8tOriU90plU+N1XTyfjh+3TVvPbvng89JBfjU/KyUG5UayjJF/fKatcSj28Vdx1Xl4PE8em+sZarfWY4jX8YecfBL2fExzLYqP8/y+oJ+r5d/QHOO6d/jNkLzGySc+3rF/bzP/1ZbfL6xXK77WGPqxRQ6lU7rkk6+jcipeUXQMzcFT8Sq5SmUbX8f+nuJnC39DduFv5aKOzYsHx6PH57FhS/nCn9ZzAdlWXuvzAL3wtQq41WaNsfa15vimtmKgL581JmzUcfypa9Iakx50V3uak41ZnyGSD01hJxgIBoKBYGDRMJAC7jYs3i0ayOLP5j74tOmum+Ksw+auQ/KdfAcDwUAwEAwEA8FAMBAMBAPBQDAQDAQDwcB6YCAF3BRwV96cWA9ARUceTMFAMBAMBAPBQDAQDAQDwUAwEAwEA8FAMBAMBAPBwPphIAXcFHBTwA0GgoFgoPvOY7d1r3/qY7mSg2Bgm2CAezob5vXbMCeXyWUwEAwEA8FAMBAMBAPBwFZiIAXcFG5ywAsGgoFgoC/adTt2dLmSg2Bge2CAP8hs5QYztnPACQaCgWAgGAgGgoFgIBgIBtYPAyngpnCTA14wEAwEAysF3P/w9/5O3sDcJm9g5o3qS/ONcu5hivAp4K7fZjkHj+QyGAgGgoFgIBgIBoKBYGCrMZACbgo3Kd4FA8FAMLBSwE3RJxuTrd6YxP7aMMg9nALu2nIYDCZ/wUAwEAwEA8FAMBAMBAOLhoEUcFO4SfEuGAgGgoEUcIOBPAe2CQZSwM1hY70OG3ceuK/7yulH82zYJs+G9cJF9OQZEwwEA8FAMBAMbA0GUsDNpiwb82BgzRjYfc9t3bW37O5OvnbuIl0cAP/483/SX5d/4bru5ge+tNLXuCh60IEujQ1R9OqHw22M4ZfcWikHW7eH38d+eKrbecfN3df+9IneP/pX7d650mf8M1ddtUrOdZAjZFq+jTlMV59cN+2WfmSe+7X3zfzW3hh/WnHMMgZelMtJcvjCNYnH58ix1ou2sOc8ajPnRQz8wS/NQytu/X6An7y34qi2seVrNi0m+Ftr6r7N096IfKLTYyOn5IT7gzwoh4q5+gA/8Soe+P1e0/hW0LqO1QePpebBcyLcoI919blWW7lye2MKuGvRj626Fm6fdo2RZx5rXcd9PauOaTYq/1B/bKzkV35WXdPWF/7Ws2qSHLETo9uaxC8+zwvtFgbEO4ayLv6btPfwQ03s+XOmFav7NcnuND49B1p41/2Bfvzm/off2/TJLbmseHN5dLR8aY15PJ4v9HMh4zzSjb39Fw6uyq/icuzT1vgk6mswyc8WtvCprtskHR4PMes57ePeRtfYeJUz5c/10GbtiNXjdR7msQX18bS3ppiQvCfvwUAwEAxsHgZSwE3xLpufJcXA3scf6j579dXdZZdf0V1z067u8e8c69dSh5/WgWIjHq7atHOQYjNebWiD7gesyuOHCPyvRZl6GJHOqmdMX/5iR/w+hm4drPygRp6v3PXFbv+Fr6+SU8wcJJCDyn/kOYBAZYt2Lf5pbtKhpJUXyTklFvnk47Rb+qX33/6T9/cF3JM/87MXHSTroRddkvPYqr1Z+/iN/5JTTn2tNOcUH7wAoQOw1lG86NfcJOpy2Na6Ss+kNYTH55EnfxRFvJAvXTVGP2BPWkvk8YsLe9MO17I3hm5UPsm/sAkdKhSxNsIB8UkG310Hc+JTXE8+f6Lbs++e7spdP/mjCXNPvXK22333bf3zEqzw/JTMkR+c7K65eXc/97lrrun2nT2wMgcf/Nz/yKOnhYlpa+W+E4P8djnyroJU6151bKDPZRULdGwBtxZAxurHBjnQc85tq+0xMibdPo7/rKFkKp02X/ln7WO7ZR+7k54PPgc2WDdsK0b3o97fmkMGfvp6RrhetfFv0rz4RPFdNmalLcxpvSrmPS54uLDnOZAsvPwOysdpVDEMYUx6db8c/u7xpn5s4o98Ez96lRvlVjZbPNX/+nsof6QTWnNZ9bZkJA9v3TdoTrrH5hM+fEFOPlBQ1nOGuOs9wNi0NfJ5+GeNV/FDuWqO/b7y2NWu9jQeunkFhOQ6uQ4GgoFgYGswkALukhbvcsNszQ2zKHl/7JuP9wWbx//iaHf27QvdHfvv7b54+03d6Tee6Tfqm7W5ZeOuA0I9CClX2qBrw65xp36IkB4/ILTa6HMdY9vYqgcwH0OvDjQceFQYI88Udoj30WcP9baRg59DomIg9xyOKE7pkOS+oZPDSSsmxpRPZPBjiK+OKx/yyW2q3cKF/FbR57v/7FdX5VWHPtZlHn9kewzV2uMT/MRU46Tvhzv3TzaQr2usOVFyQTzY9Db6VFiBF12sI/pavmgMPsmKopf1VDzeV6yShwpLyMu21lV+QyXrc9hw7Dj/LG1sV9yiez3yqfjIO0VW7hGtATZo4yt8nrM9D98ziAXyJjwcfO6J7tpbbujuPHB/d8XOL6wU1tB5z6EH+2fkyVfPdRR8uK95jjLHet/y0J398/PRbxzqi79PPH+iO/TnR/o/2pATnq279+7pbn9kby/DmJ4NWg9fS7VbeSO+WrwmBn9mgBVkoVo//BQ2GCNHjgHx6V6GaqzSWfRPik9xiipe/NIYVGvka+trjn8Ve3W+xrCWPra4Xzyfk/SRL2F1iE/rMylfWi/WGj76wj16x9jxdfe253bIx6Fx+Sx9vna1DQ96ZI++YiCfen4qH26zrrHP1bZ8Ydx1ya7r8jax4A+5hJcLHeLZ/+zXJ/4GD8UrHYpP/sof9aE8s7BPDPoN0HNVfuCny9BGhucKPPQ9lsrrea9zxM+8j2tM9h84/vCqe5S4tY7ITdJfY541XslDuSbhnjlyWNel1V+P30DPWdqX9lkr65/1DwaCgUXEQAq4KeCu2uAtIkjj08UPz4ef+Vp335NfWVk7bcj9QKCN8Ublj829DuWyoY22Hxzwg2KNDlT4ipw238z7QYEYOOjoAINuHTxkZy2xYUtFBunzMXTrEIMPKtKIl0LQrrtv7c68fb73G34OdIqBHFT/JQtFZz0Aah7ZWrRhrpUTyVSKH8pti/oBx9dLRZ9n/9EvruAK3a1cz+JP9W9aH5/I/+HvHmvmQvP4ULHUitcxqnhbfD6m9cfXij10sEZX7t7Z/9NYj4fcky8oa+wHcedDp2zA63hETtiXPpdlDF+hPk5b8Ul3nZ/W3+h86l7BPxVwuVfIE2PkgTZjrfjkv2NAY06Z99xzr15/5y3dl0/uX8nZjffe3t118IHuxCtnu+tuvaE78O3D/dyp15/urrvtxv6PNQ8c29e/dSvd/AGHOXgY0/pAWzn3edZM6yyMuA7a5J/YwbbW0nHZaqNL/onqXp5WwB1TFEE//hAfPslGi/q6eIzwCtc+XvPm8SPDfI25leeWL5PGiIe1aOVuSM5jqzz1vnEfW3IeF2tAMbfGqb6eXy6juRaFr/o3pk8uWvnQek3CQCtGxsgx1O2TG/dxyG7V6X355Hipa6DfOXg9T7oH3adZ2ld4puwAACAASURBVNipv9/yR3rcF60fYzyTiMPXElmXE4/GoMi0cul6PEa1Pc+0K9a0FsIrPGpjd6z+eeJVzqBcvr4e+1AbP4nT8zfEm/GLzxDJSXISDAQDwcDyYiAF3BRwVzaPuZGX90amqFgPFWyqVQxY77Vl8+wHIfo6LOhwrIMAG2x8o88cfslXbd794AAPfsMnv10/Y5KjzZwOLNOo9Ljv6MC+xtANH+P4UA9U/dgN168cxBSfYsD3lh/woXOeC9mWTsZ0QJRe/BiyVQ+Cyh0yKvpQwGUN0Ke1ZF76obP443KztLGhOJRb5LWG+EabdZN/LeyANWEJKuz5gdHb7iP85Ff6maNN8ZF15q0j52cOn0WZa+XK9WkNhD/31/WgC14u+dXChPKmAob7N6m9GfnEN+IjBhVw8bMVx31HvrLy1pXnixiG1kvxMe8F3BaOlafKiw78U+5pSy95r8/UijnJopc1hVafsQ1fjRvd0l/l0eHYoC8f5Z+o7uVpBVz3b4z+ls8egzCMLmL0dZPvPs78pPzWecW3VopNcEeueQvRfZBubHtsrbbHh5zH2OLXmOTEjyzYqr81joGaN/rIoUtt+T4r1f0h/+rb4RrXM0W5Ub/eA/Kr5hU5xwh8+N7ynzHZdSp+dPn96G38wTb5Ez+2nKelXzK6L+DBjuJ1Pya14cce+tTGdv0tkX548XXoWShbyjf8XOiuOdac25ZuyXseXIe3pWcW6janxVvzz73Qir8VH37CzzrxO4KtWfwM73z70OQteQsGgoFgYDEwkALunAWVAHgxAJx1eLY78K3D/duAT/zl8VWbWDbtbH45zAzlSRt7HRCm0V133dpvmtl8u07fuGscHjbY/JNj2rrYbLP5hk9jfnCoh8khn5CVLaf40tr0iwdb9RDpY+iVPL7WQ7WPIQc/8SgGckphQH3lf9Zcy0f0kAOoYhBFN7b8AAPfUG7wAb1QZDmow4uMij4UcGULKj9kk7Ex/swar3KOX7SRl01fE42Jwit/W7KsjfID5RA9hCmNqyiObt60rfrpo1f/bFS+4Kd0DOVIvFBixAYXhSTk3V/sMOYyG93eyHwqPmxw8FZeJ8WEDHzIeG5r2/NEXjejgAueWC/5D/64X1pxaa3hUUySE0WfF3CJGX7NOzYYG8KH7uVpBdx59cufSZQYfY10T3nsWlfp8fgVHz5qfj0o9ikUYUvxMyb/3EbrecJ8xZdk0EfM6NPYEPW1ww7rzvMYqnsDfdIF9XwOtevzesj+0Dh2HL+1L7mam7qW+O56yBl5R9+kWJCTDajfN9jk+63yyfFC25/tKlbKHrqc38c1x/2FPf1Gyo77gw6/55lr8VX95AKf/P6WHdevtjCBPY1V2+gcwgHjyj9yfFaG3BIfffkBj3JOG78V0yTdmpPsrPHWnOEXPnHRxgf3x3MAj/6FDlRxiSc057NgIBgIBoKB7YyBFHBTwF3ZHG5noG/X2J783onu6ht3dV8989hF6+gHkY2Onw20DgvVljb2OnyIwqc5P0S0Di5Vv+SqLXTXgmvlwVY95PoYunUoaenrx8obuBTyGNdBggMG/VpwkS/YGMqXeKDo0KFGB6ZKa+EBvZXH+zrYyo58UdHnB7/5oZXiF7zu5zz+yM5Yij18cn7yOHTYJeceX23X/KAXjFEkgdLnXkGP+tjb/+yhVQVu+OSb1lZ991VtdDCPXh0y0S9Z+JyHOS5hyO1JJ/pqfEN99EhuForckE7G580ncbOuxIwNFakYq/b8/hQ+PYZpzzbmN6OASyzEJd/kF+MaE3WMERMFe+JU7LrXuN/BAfyMaX6Ioks2RHUvTyvgjtU/1hd8RCf8dd2UKx/X/SG/yaXiZ6zOi29eij7h19cDfdhmruYTmToGfn0MHmKX7pZ/8EtGtrSmjOOPnnHoR2dLD7IUejXn/tWYxDONuhzrhH5ikX9O5Vd9VtHX7x48fg9jX88V5UA+eV405vxum7Zyjw3Hi7fdN/S7DvlVx6Xb1wEexSvf6OOD+tDKh32/t+UzfLTRwUXf9Xjb8+nj3m75onnZUd9z4rlCB+smf+kjU2OSHqfoAS/zxIt+rQtt+YQv8kHPDNmER/s7XycfF29oijfBQDAQDAQD2xUDKeCmgDu4gdyuoN8ucfG/ofMfl/l3HT02P5T5+Ea062HBbbA51wZdG3I/HDI36SCCrkn63Zbz6VChw4D4+I6lDnEaI4d8B5NvW+IPephrHQz8G7jwyI5k6Osgq0MJY7LFukwqnKgIgAw6tY41DtmWLemHjxjUd+qHHo0r/170YYzDleuZ1x/ZGUPdhviFDXLphQvNO/X117gwpz56HH86RDpVEQoZ5cdzhw4dXD3/+A+2kNc4fPpfv5GTj/ASj9aXvrexrbVEDn3wKA6odPnYerZb+teST3JJHFxewHVs1xwo/4oLXtYKP8izr5V40OEF3I34Bq4wIJtQ5Yt1Zd7nFBf+6/vJwghz4IY5rXNrzWvu4fd7VPb8XtZYpfPqB4PyG53VJ9nRuik2KHMap43/5Ewy1ac6L755KHb1bEVe6+H3FG2tg9vQujJG2312PuUCv/15UtvMu9wkfveZGKqu2h/yze212siBW6jnxNfL5eCBV+vKHOuHv+6zxskNurhcT2vM51vrJJ+El6H/lIxng6+n+PG92mUOH7GHDFR23J8qx1yLz2VokyvWWTmqzy2N1/Wsfdmq45P62PX18jwwh2/VX9khD/ha9SsWclZlx8Qr/eihLZ/0W1k/bQKf58zXCXvIMw9t+ZOxFHKCgWAgGAgGtgsGUsBNATebnSXEAMXbL+y5qf9ncUMPIzayQ5vrIZl5x3U4acmzOdfmf2jTz7gOEfjNAVAyQ5RDlh80XYf7UX078v2n+v9Z/sHjD3dn377QHXvxdF+8vetr9/f3Av66L3rjA16KvxwSHn320Mp9g11kJIdPXuDQuPs01K6y4sOfoTzUw7L8kazTeuhhDv+QUdHn1d/9aH+AxV7NsXTN4o9kxlD5Il6woPwzVtdSfFDluYV74tuz7+5+7Vg/FcmqzpYsevW2JAUO5H0tKETi49f/7MmVoqGvI/K6uB+JwXHLmmgMP2krLq3lkF/ohdftSVaUOS9iaHwaRTe+tGyvNZ/kT3Fix/NZcce88uBy8l8FBnh8zAu4jPOHF/5Ic+LlM93h7x7v1+qxbz7ey7Au/Kdmp994pnv0G4e6K3ft7J54/kR36M+PdFfs/EIHH3O79+7pPwlDTvEf27KpfNFv3WfkkXuVteDSPwFW7OCKGIRNxSz9UPxEj8YqD3PE/fInP9J1O3b097R4K62yY/TDgw35WGUca1o3yRAfsj6OD8KB+Fx3nYfHL8Xr6+DzaqOnPsuQwTY+i28ShZe1wv8hPl8f9Ltu5KpsSye+koOaB2xT+JeOijHGkXXfxuYHGXjBp/wULitVHnUPqOiLDuzDz1q31kS63cfWmM9PWid8rnlCH3mF4iPz8ClG8TNfY0PO8wqP55S5+lxBb+VjDNvkChvYRA55jSuPHqu3q+8+V9vSyzhy9CsP44rP80Z8jItfsYiii3nkxUMfOfSAedmdJV7dK+jBli500XYMyV98kY3W2sGn5wx64ZmWZ8UUuvrZmnwkH8FAMBAMLC4GUsAtB4KAdXHBmrX5ydpoc1o3sYwrT74h1thGUW3oW/rH+KFNfEuesUn6mWfjrgMS/VZ+PDf8j/NX7vpid9nlV/SH1jv27+3OvHW+zx3+Yk96VUyG9+obr+8LPMxx6UChAxOHEr1BQmFPhwf0SadkW7TGIZ6h+FuHvEm5rP6in3iRUQH35M/8bD+muVogZnwWfxTDNIpv6NVBEb/8EIc8c+SUOelDDj7llxzqUCke+CUjO8oF95DsDMmiW/rRWfnQ7fOtdUEOPschY+6PFxuY01qKMqZxtyc9xKE4xas4oRqbROHbqHyiWwUQ5bTmBB7myCF5Bn8tDE6LQXbEd/K1p/sire75vY//5J+hY/O6227snwefu+aa/g81krv/6L7ePnK7776t449nvh7CZF0PfCePUHQhA4+w0sIIvGDgqL2RKz+gKnpozP1wG7qXoeJ1Kp+R9/Ex+utauIzHRJz6feKe5bnImsBPHjTnPih+9Hg87qO3lVMfG9t2nE2SURyKgfj1XK9yngv+6AOv4kMPFzLE6XPSQ16EoxYPutChOXIofsZlS/pmyY/rdD0tvR6DcoEf/hwlPsUrf+iPGRM/lHVCr/CieOWDCrIeq3DIb/AQf/WF+Fk/tw2PciE/qv/wO5/80vr6vaYcyzY8jLlNtRXD0Dx8+EZeXA9/GOI+c2zAiz5yQRzoVN5kTzz6DVJMilv5F8U2eoT5WeJFJ7iBood1kl366GLNhS33UW3XoTFRz53801zoT84RyUVyEQwEA8HAcmIgBdwUcJubx9zQy3lDa90mbW7Fs56UgwEb75ZOHVbqnA42fiDAbz+saW6I6nAGdR6Ny6YfXjS2VuqHBNelGKoPzqM2uXG/abfyiC4fpy05HXJkV+PTqPzDB4oNz/zCe/u39ngDV/5BpRc+jY/xR7yzUuHC7VUd2GceqqKBeOSvx68DrueN+aHcaRyd2PHcM6aDq2yKum1843I/vK34kIGv/pNR2cF35OQDtjXm+siD3uoUr3TUwoT8rXSj84l++aZ7Et88DtrknyIm/OQHmcpT+8pnjWkj+6wFeYe27OC7F5LpExvU+T0+4kBfq8CiYgR5UfzKJ/qE1WkF3Fn1ww/msOt+y6Z8geregbe1JvLR9Ui/65nUVswtXa53Ups1wEdwWPnqetR595e8qMhfn0XI4aNikd9Vn3jqvP/G+JqjDxn0uK8+LttVZ7VNn3jAKTnhIg75XCnxwi89st+yg4/OTx9cM1b1ev++I19Z5UPVLZvIoBN/6v2i50uNSXmDcsEHZqWLuJRr+S6e6odygJ6hOcbRB634wG/G9p1751/2eA4mtfkPyfANvfKhRbHpMcBPPjzGakc6J8XEnORou+0x8XK/6DcJftYOu6yD7KPT/XcbtImj9SwVH7L4qOeRxkOX+2yT9cv6BQPBQDDwbJcCbgq4qzZfuSmW/8E47bCRNV7+Nd6INZxW9NkIm9EZLAYD64+B3Mvrn9PgNDkNBoKBYCAYCAaCgWAgGNhqDKSAmwJuCrjBQDAQDKx8QuE//L2/07cpAuVKDoKB5cMA9/C0b+Bu9eYz9nMACgaCgWAgGAgGgoFgIBgIBmbDQAq4KdykeBcMBAPBwEoBl8JPruQgGFh+DFB8z6Z4tk1x8pV8BQPBQDAQDAQDwUAwEAwsKgZSwE3hJge8YCAYCAa67zx2W964zVvHwcA2wgD39KJuPuNXDkbBQDAQDAQDwUAwEAwEA8HAbBhIATeFmxzwgoFgIBgIBoKBYCAYCAaCgWAgGAgGgoFgIBgIBoKBYGBBMZAC7oIuTP4SMdtfIpKv5CsYCAaCgWAgGAgGgoFgIBgIBoKBYCAYCAaCgWBgO2IgBdwUcPPXlWAgGAgGgoFgIBgIBoKBYCAYCAaCgWAgGAgGgoFgIBhYUAykgLugC7Md/1qQmBb7r2C777mt+8rpR1ce1l/70ye6mx/40kqf9Tv52rnu2lt2d3/8+T/pL9qMMQf/5V+4rqe+1tID3XnHzSv8zoNtdLp95u88cF9/Oe+k9rEfnur9g3KhV/65HHplC6p4nMJTZRhDH3rRzzzy9J13Uls5lH3xtvLj8cDHesAnHS0fFQNrs//Cwe4zV111UXwtuVlikM9jqMcwaU2G1kHxOCUm8oCMYmmtg8/D38oFY3v23bMqR8rFWJ/gG5ML55E/k2SJTfPiVx6414RB9MKrOSgxVBnlzf1Q29dJY2uh6MNH+S9d+Kn8+pj7DnaR9TG1ka9xaa5FPU+OvyEd6Hc++eh0rbnChvvlumtb93rNo/MN+YsMtpx3o9usrf8uuL2hnNd1c3liqHhBJ3FNyonbnbVd/cR+fe6j033b8/A9PW6Uc60JlN89dFY/9Dyv9jwfnguXXysGXddmtSdho/owBvfIkDvtU9DvuVNb+IEKM0O8ui/rmrR+J6r+GsN69Vlr/Jr3XhYWySk+Cast/8iPx6V1qLbJDz5BW3oyttj7/axP1icYCAaCgeXFQAq4KeBm87WkGNj7+EPdZ6++urvs8iu6a27e3R35wcl+LbXh1kFlzAMaGQ40bPTF7wcjjTn1ednce/ih7qrdO1dt6sUHVQG3Hp7q4QA78LcKbsi6H8jqwDGJuhwyyg+02q9jxKdDeM0VvK4b3558/kRfFLxy1+pcyG/lS3aJlbx5/pUDHU6rXeaRd9uKSwc2CriSl+0a21CelUvXLx1jqeLEJjLokl6nOjRP04u8dMFbY1FBRHrqPOPCIUVb1yUZ5pUzl/c2edbaKefIn3nrfPfoNw51u+66tfvCnpuafzyAT3nBh9a6yxfX7X4NYUHxiFexwo/Omh/ZgVZen5un3Vpr7mfW2tdeRWWPCfxSuIIqFnzwvFeflFOtS52nr/tC+ZBO5c3XmPYQ9t0/2Tn9xjM9nq677cbuxvtuX/WMEg+UeFhz1mJIv/PTxl59rjqPx4VO5aDGM1QMdF2tNvrv+tr93RU7v9B99cxjg7FhDxs8K+WD6/O19HFveyyMa13R7Xzor2M+P6bN/bpn393dp6+4sv8dvf7OWwafwY5P+eTrJ78fOP5wv7bCr8Ydc/JN9+NQXhgnl0d/fD/4fTPUnneN2T9ce8sNfR64J1lv8oOvzLHHYK/xuWuu6fadPbCyFrQZq/sQxSg6CRvkqD4XhuJjnLwrZ1DtE4QHaAt/+OL3h3wTxQ+tm/RrTmtFX+vSWlPxj6HT9gnSgc/Ybz0DWrmrsVcMuv/o9lwP4Uc+TFqnsb/jiit0eYsHWbusXTAQDAQDW4eBFHCXtHiXm2brbppFyP1j33y838w//hdHu7NvX+ju2H9vd8PePSuHKj+IjPGXAw8HRTbvvpmvbfh0sBHVAUKHp9oXnx8a/DDU8s95NY/+ocOFePyg4m35oIO34kIfB271nfohCNs6+DlPbcN38Lkn+oPwnQfeKXhgG/+q7SrrfcXpRQqPR/FWKn7xtgq48Cg2fOPQ1Sq4aE7+V1tj+uRMBTrlsMqNWVfJoA9+9WkrFsbwFWy15ofyXw+drgP9vi5Dbfl098EH+uItRSGtoXwRlR/yG9nKW+3iI2OKDR3kgnWWXvS5f8wTi4obzGktJOO05YfPz9JGFz5jX0UH+cIcvnG5To+JuJD3eNRW3lyWtmx6TsTT0qf8kXvJoBs9kiPf0iv7lQo/8N50/x3dDffuuSg26SMHygtj+ODxCBvVxlD/mpt3dVw+jz4udOO79+XHLJTcUJS+Y//efi09P65HeYJfcVRe4udZwxuAyDLvOMBX8shYq2jp+IXX43Y97tek9oMnHu4Lk8dePN1RgN+9d09384M/eX4gi8/4JHzyR0r3A54WvvANbNW3+xnnt8HvS3LifY+rPhsUDzYduxqfh555+3y36+5b+30ERdvD3z3eXXH9F7uHn/lav07Ef8tDd/Y54g9U/GHyiedP9HFffeP1/TpqH4Ie9LkfY7AB/6SYtA7Sq74o47RrHrVW+ABmJN+ibr/qQg+/p+Tc10f6W/omjQ3tE6oMuBa28YnnKX5WPvWJEYwOPT91T0LVluyYHMGLfT3XJRt6aZ9Jsv5Z/2AgGAgGNg8DKeCmgDu4EcyNuHk34qy5PvqDk92Bbz2+snZsvOtBj438tAOL7HJA8M28DjJX7t7ZH1rEB9UmH8rBbmgjr4OHDlhQDqochJGj73rVZrwewvzARNsPTfg6dFhxOR2CsENeFK/ikX2oj0m/+HWQZ1y8rlt6mB/KjXIiXmgrJ+j1GCa15bN4wIMKuIqBORWcGPMCADkRhrCrtvs4S1vrjS58Qx9UcQoLmke3+6k4fK2dF37F7H5Jf51n3bDJ4RYe4qXtOUCmtTbSj3/4gC6NtajirXz0sYcOl/Pca1y86GLM/WIOHfgj/kqVf/Fio/J4n3lhw8fnabfWUetZqXIhP5Hl0rp43PjYikP2lKshn+HT+tHW/YlOvzeG5DXu/mlMFF2KSWNQ4gDL7qPWuBUTY84rXYxVfl9r8UFbvD4/S1u+Dvnk9yl6W2uitVRs3IcUOOmjn/sT/VqjSf5JxySeaXP3H/3qqrdJZVu+C6vyB8rckF7Fhxy6pEc5w2cuyetZJTmNtyg65M8kKlstHUNjJ189133p0fv6fzkiHmJF14lXznbX3XpDd+Dbh3u/T73+dF/Q581birkU91k75A7+2ZMdBV3PETrGYAN55WsoPnySf8qZKOPeFp9yjB/KPXqqDeax33ruoAs9/J5WDEi/7M1KsannUJXFFv4ov8zjpz+nmXOfWv5gAx7XI101D7V/21fvXmWPHOMvOtGBTnzEr+p/+ot7hsjaZG2CgWAgGFheDKSAmwJuNl1LjgHeHLrx3tu72x/Zu2ot2WirSDbpIQ1fLSywGedgjbzelpIO5nR41oEIWjf+2tBLv+bZ7KNXfVEOJU/85fH+oOEHAg4I8KNHPvghhXH6zPlBxduSE8Vfinccaqa9gQsPPiqeemBiHB7pFsX+0MHMfRa/x6Qxp8q5j9W2eBS7CriVr9VXnFqPenBsyYwZU1zELDyqDcbcDn7Th0q35Onjo9aBPm1iFm+lygfjwhE20cOcCrhQxQ1lHh/ApI8PtWuBAr88LuwTs99nygF+MY+M6xE/NpmjL5xXDDrvkI8adxvKF/rwlz/YYEvj81LhT7EN6VFM2JR/UOIcyn1db/kOP3LMVx7ZH+uX/NEaos/zgp6KU9mAF/yoD2UM/5BT332EX7Ykp9yoL+r3g8aQRz/Pm4plz6vblOxYqjx7HpCtvtMXj2QYg1cxaVwxM899SWy+RuiRrLfRRSyyMzaGaXzYv+fQg6t8QAY7nkdv636Ch3j4PdEzRr8xyrvnBr1aS+VF/lU+jTudhEHnm6eNbj6ZcOjPj/S5qL9j8k8xs57YqT7BpzVmXnK0hQHGZvURO63nA78vFUPKMb5qHTQmu8KS+8+asLZaa9oq4B7+7rGVPUnVJZ1jKTZrfhWf/HW/0CvfiEl9/CCn5BN+z7X6zCNDTP48kq+eI41JP/zMt/KOPt0HLpf28hYHsnZZu2AgGAgGFhcDKeAuefEuN9fi3lybsTZs0tk884bM8ZdOrzoI+aZ9ki/o8MKNDgFs1jkU1P/wgkOFDjVQ+Cbpr4dTeNHLYUuy1Vc/fMgfeGTHD006zLhPrbYOGOjhENI6wEi/KLzErwMe49UfYsBfyYgiWw9mmhvKCePicSqfW3H5AVl+wo9PHDj9ECp55Vd9qNZCdj2vyp3mZqGslXLk/ihnzEk/fhMPVDZ8reW35pDVIVdjTl2WdUO3YhWOwQGFFumpa6Ocul614VVRWmNQ/PJ1oV/x1pLVOsOPT+imIKS4iQf9FYNumzb82Ee22q289OUL69OKpyUzZgw/HGPeVr6lx2NyHPh6IFPlFCu+Kz+Medzk023TJj8U2uo4vPiED+jBL/q0fQ55x6niwD941aftfcZbcaDbfcYua0H80qV1kk+My0/80eXzkkV/zZ3mxlB0ol85UL/q9DxJLzzI7n/26ytrxJjyQgzEjm7Fg35v+72MXuTli+yshX755P6+aHni5TMrhWbXhz/4yxoQC75p3jGqPEMVD78hknc59IE/cNh6Tgub9ZMLGm9RPUvl26yUTyjwDWf94RZ/6++Y1pj4yAWxYQde+vwhFjorNiblQLH6PVJj0zrgBz7il3CjdUFGY5IXluQ/VHNOtYYUcNEPX9Xl/GPa6PD8EgMxQiXf8gtfPMfEwPNCz2+Xoa18oFNxMC4bUM+Rj49poxMcQ8fwh+fSPrtk/bP+wUAwEAzMj4EUcFPAzWZryTHAgYt//rjr7ttWfXvON/BDD0k22ypesXmHT5t4HYbUb+ng8MI8hwMdatApWWRo62DGgQO/OGToLSW3KRvo04GtRVuH1HqAqIcWfN137kB/6JHf+N7SrzH8wCcOR+SJg5XmWlT8yGDfD2bTbFV98CsftPFZh2qN45fbpC895JqiFvNc+KNY4JMOUfLnfBrfTIqPwojsErcOs/hX89KKBdmqi/hqQUw8ugdk06nnVLl1ir/odhl8bI07DzHpsO3jtHX/YFvxQhVrXSvm3CfJoIsYHbete4e8SnfNcfVtlr6vnct5LBqvMWlcuVDfKT6roFP5lBPPBbLuk+eXOe+TN3KhtXX/hBuo+yMdyNVx72OHy8dabccItvx5In5sgV/5qrgdD2qPsSm9lRI/mK75rHz4McSjNVJc8NLmApf453nHJvcI+hQfVPGICgPVl7H9A9863F11w87u4HNP9msif6Qfv3z9h2KUn25XMbBGut/hQ7fuxSo3pF96lSN+Q5FlnDHyoL54Z6UUi/nP3J565eyK3oo7+Yctf87hA31oy67kWnPknHuzNacxXwONuZzayg/8ut/xVfjXmHQwzrz8VwFa6y/K+hGD9jrwV13SOZaio+a3ysovaJ1Tn1jJvWJknJjwFzkoPIx7Hpnz3wfFCkVe/MROfpVj17HWHCiG0PkP88ldchcMBAPBwKWDgRRwl7x4l5v10rlZfa35z8v8G7hsqjkE+Aa/btpdvrbrAQZZ36hr846cDgps+jXOBl5v7yHnBzXpkT9Q5MTPIWHWQ189MGCDw7AfPmrbD/mKt+ah6tV85ScGHYYe/86x5qEKnqGDmQ5W0g8dso0e5cf9IOa65ppHhjXQW4mMc7kubOJHzVPto8f9nKWttZd9qOvTvHTiXz1MqsgBj+OKPv6jU21fY3hdVrit8SFTC7joRDd6vU3fL/wHy8KC5pBlzeq45qFDssyxbsy7bW+jl/i0zsqDx6Z5z6fnQ75UX7FbcSXeWSk+/UaUXwAAIABJREFUuE+1TUzS6THhw9D9jE5koL7eyHAPSR+U/OgeVP7kE+vjBTD4xSNZeFtrWO8jt4kO+ejj3oaHy8eG2qwPeWutHb4RgwpKLV+lVxhRf1aKbnKGnkmyxD7EwxoxLz3q6/eAOY0pFsa4lK/6nISPedZkkl9Dc09+70R3zU27Ooq4LR7lze3go9/39Ft4VR6grKH6sqNYiI2236u6V4hN/FBs6f7UmsDr94Lzz9LmLeQv3n7TSvEW2bV+A9ftE0vNgeaJS/cvfIpflDFfA/QwJjlyyJoop9KlPvzCUEs/8637WvrxU/bh1RpIv+KYlfozaki25VflhQcMtH53mFP+kFMcjA/php844Xd5xqQLytxac1BjSX/1PiP5SD6CgWAgGAgGHAMp4JYDuScn7dwsi4oB/nfoK3d9sf+nivzvz1967L5u55du6f+XaPnsBw+NDVEONvxzazb/FLPqQZIiAQeWr//ZkysFEQ4BHJiwg7wuNvPa4GOPDT9zOgSocIs8shx8dVCo/iGHrlYsyOzZ985/sIG/fqBGRjpbsujVPJQ+tpHTgdELJs6P3+RJMlDkqu/Eq+JRnXP/NDd0CIJXttzH1oFdej3X6JXPxKa4ZVeU8RqH50Z85FOHV40NUfmD/4pBduSjPhGADsbILbSlU/o0h06tlx9cGacP1uSr41XyslcLuG7HbciWU7crvcTYGtc8lDw6Zn1ObWyjq/pOHx/xX7gRr3Qzzjx88DMuXunHB3AE1RhU+ZOc5sbEJV5otedz6MKOxrBFzsitj+MbesQHZZ64fKzF5/PyRVR6fC1p4xdzNXeMMSf+al+2Wr5pThQej1HjLeo25Vvla/laeZAda7PK0tf6DPkgGfIyxMMa8Vz1ewOfxA9lzjGLXvrkXXOOV/xinhzIh7GU4u3VN1zfUbgcktFaVTvY9Hx6X3Egg174HFuyJSwiyzMIKhl4KqaZr7918Csv0jsPJQe8hUxOqjx+8p19vrfPf1x25a6d3RPPn+hzzvP1wROPdOxD7th/b7fr7ltX/Usg14X/Wmsfp+2xKi/iQUa5gbIPIWbWXJhiXPy0a77RofWq+iWHPtcrPhXn0St7rNfQ77v0jaHYnKbH/RrSiW/CquIUL/LMC1tQ+sRAvIpZ/FDmtVbKP+OyIR3oVp40B7/uV9l03WnnbBUMBAPBQDAQDMyPgRRwU8Bd2fTmRpr/Rtrs3HFY4j9b4WBx2eVX9N/uO/KDk6vWUpvpMb7By4adS/x+oGJMPJpnY64CrsbEp40/fR0EdIigGIwu+hxG+f6uF0uR0Zz8qb7IDnrEDy9yHEY4PKjAOSSLj7Kjw54OIuj0CzvwD8XMHHb9sILu1sEMPxWX22jZrjmnr9jImetR7FAu5vQGLn3ygazLyD5j1X/msMclPiixtnQ4D23yTvzYnqYHfeitOmq/5gg590Vxeixam6OGDfKgi7yoeIK9usb4PuQbMbaKsLLpeKixDMk6n2yjz+NEL329eakcKyats/Khcb/P0Mn4UGzY1j0kn1rrqLkWrevlPNhFH2NQ+ew8tFv3b+WZxud58By09DBGfvUckY9DvHUcfl+rOk8fnml60VFzorEqS3zMQeW31twpcsrF0Lq3/GVMOZkmhx9DPGPWUrH4/erxKgcel3CKftrQoTh8HL2uh3bFBzzEo3sOTJNj7j1seayuDz08f+Ed4keXFwLRV/0hXuJBH7aUH3QzxjwxMef+4wt28dtjbrW1ttW25LF53W039nuNz11zTbfv7IEVnY+cP9h9/rprB/chbm8sNlprzJjWAH/Qq7wQK33GyaF4lXvkyI/43CdvI48MVGvJ8511go8x9Ms+erUHwhfmoK5zWhtdrX2Cy7lfPq42fhEz/ZojxpBXTsRDnPIXWteevrCNLDY8Rrej5zw8D554eCUnGpefoav3lclH8hEMBAPBQDAwDwZSwC2FmnmSGJncfIuGgWkb/uovG29t1jXHZl0HF41B0a0NPxt7rtbmn7E79u/t55Hh4rCjAxE6GHOdOoj4nM+7HR20dXDVnB865SdzjHtRgEIy8zpwteLAH+xDeVNUhzXG6gWP+Ouc+sqX+k7rYQe/sIddxVb1K3Zycf/Rff16aQxb6GBOucIeOtDHQYuc0Pa19zzUdZC883sMQ235oTig7tOQHOOKB5mWP5KFb0gnMfnBUjLgjxzgX8UK/O7vtPY8OWF9OQjLn0pZqyHcaZ2Ed3jlA/GAJ+KDTzaEsUm5ch8qn+SdZ1JbPg7lruIZXfgqXLbkhtZYMbf8IQ5sTdONPXBw/5GvrtzLyLX80NgkTLZ8YQyd02LXWrZ0yCetfV3nloxyAK9w3/KhJTvLGGs+5PukNVJM5BUdQzYrBllT+BVXq7A6pGtoHF16Hmh98R3sec7go/jGs5c591tYc/6fjN3f86ObeMgXupCHR3618iU/tPbirZRP+6BX/tf5regT3zzYUMxgg7j1O+45QG/r2cC47PpaePwVe44pn9M9Xyk8rN96YM/9UhvdxArVmCi5GfodIW756rE71oZ0K2fMg3H+0ACWsIftVo6Uf3KutXI8y+fQi/ePyUlyEgwEA8FAMDAWAyngNgoxY5MXvtxoi4gBNsxs9ocOSovoc3zKvRQMBAPBQDAQDAQDwUAwEAwEA8FAMBAMBAPBQBsDKeCmgHvRX/Rzs7RvluQleQkGgoFgIBgIBoKBYCAYCAaCgWAgGAgGgoFgIBjYbAykgJsCbgq4wUAwEAwEA8FAMBAMBAPBQDAQDAQDwUAwEAwEA8FAMLCgGEgBd0EXZrMr+bGXvx4FA8FAMBAMBAPBQDAQDAQDwUAwEAwEA8FAMBAMBAOLh4EUcFPAzV9XgoFgIBgIBoKBYCAYCAaCgWAgGAgGgoFgIBgIBoKBYGBBMZAC7oIuTP7asXh/7ciaZE2CgWAgGAgGgoFgIBgIBoKBYCAYCAaCgWAgGAgGNhsDKeCmgJu/rgQDwUAwEAwEA8FAMBAMBAPBQDAQDAQDwUAwEAwEA8HAgmIgBdwFXZjNruTHXv56FAwEA8FAMBAMBAPBQDAQDAQDwUAwEAwEA8FAMBAMLB4GUsBNATd/XQkGgoFgIBgIBoKBYCAYCAaCgWAgGAgGgoFgIBgIBoKBBcVACrgLujD5a8fi/bUja5I1CQaCgWAgGAgGgoFgIBgIBoKBYCAYCAaCgWAgGNhsDKSAmwJu/roSDAQDwUAwEAwEA8FAMBAMBAPBQDAQDAQDwUAwEAwEAwuKgRRwF3RhNruSH3v561EwEAwEA8FAMBAMBAPBQDAQDAQDwUAwEAwEA8FAMLB4GEgBNwXc/HUlGAgGgoFgIBgIBoKBYCAYCAaCgWAgGAgGgoFgIBgIBgYwcPZHF7qtvI6++FR37KVT3YlXz3Qn3zjXnX7rme7s2+fXbb12rFvV/kcXujNvn+9Ovfl099RrZ7vjL5/uqD6vm/6BBYr+xfurQ9YkaxIMBAPBQDAQDAQDwUAwEAwEA8FAMBAMBAPBQDCwkRjYyoJttT1UwHW+teQiBdwUhlNkDwaCgWAgGAgGgoFgIBgIBoKBYCAYCAaCgWAgGAgGFh4DXhCdt80LqGu5WnbHFHBdbtZibgq4uTkX/uacFdThz1/4goFgIBgIBoKBYCAYCAaCgWAgGAgGgoFgIBjYXhjwAmhtr6Ugux6yR3/4VHfsxVPdiVdOdydfP9udfvPp7gyfUZjwaYdZ8JkCbgq4KeAGA8FAMBAMBAPBQDAQDAQDwUAwEAwEA8FAMBAMBAMLiYGhIuhg4fWt892ZTb6OvHCiO/rDk/0nZb2A6z4OxTGmkJsCbm7Ohbw5x4A3PNvrL2lZz6xnMBAMBAPBQDAQDAQDwUAwEAwEA8FAMBAMOAZaRU8vivbtRrH29JvPdJt5PfnC8e7ID5/qC7j832Cn3ni6O/PmM+8UkssnG1oxecytdgq4KeCmgBsMBAPBQDAQDAQDwUAwEAwEA8FAMBAMBAPBQDAQDCwUBlqFzlXF2x8XbmuhluLpZl9P/OBY9yRv4b50sjvx6pnu5OvnutNvPN0XkVfeBrZCbiu2VuFWYyng5uZcqJtTwAzNX9yCgWAgGAgGgoFgIBgIBoKBYCAYCAaCgWAgGLg0MVALnK3C7bJhY0whdyimFHBTwE0BNxgIBoKBYCAYCAaCgWAgGAgGgoFgIBgIBoKBYCAYWBgMeAG3VbzlrduhYueijuPztCLukO8p4ObmXDrAD4E545fmX+Wy7ln3YCAYCAaCgWAgGAgGgoFgIBgIBoKBYGD7YMCLt7RXCrhvnV/5ri2fSFi2Ncdnfe6hL+T++JMKNd5WXCngpoC7dIBvATlj2+dBnbXMWgYDwUAwEAwEA8FAMBAMBAPBQDAQDAQDlyYGajFzqHh78o1zS1fPwud5i7gp4KaAu3SAz0P80nyIZ92z7sFAMBAMBAPBQDAQDAQDwUAwEAwEA8HA9saAF3C9eMsbq7y9SgGUQij/SdiyYQGfvYhbP6fgsdfYUsBNAXfpAF9BvIj9x5//j12u5GCjMLCImI9P23sTlfXN+gYDwUAwEAwEA8FAMBAMBAPBwGZgwIuYXsCtxdunXju7dPUsfG4WcRufUqi5TgE3BdylA3wF8SL2Kdx9+XvP5koO1h0DYGsRMR+fspkLBoKBYCAYCAaCgWAgGAgGgoFgIBhYCwZmKd6eePXM0p2N8XneIm4KuCngLh3g1/Iw2CzZFHBTvN6oAn4KuNkQbdZzLHaCtWAgGAgGgoFgIBgIBoKBYCAY2EwMjCngUgClEHr85VNLV8/C55Uirn0Pd+g/NPPcp4CbAu7SAd4BvKjtFHBTwE0BNxudRX0+xa9gMxgIBoKBYCAYCAaCgWAgGAgGFhEDFxVwG9+97Yu3r5zujr20fAVcfD7+yum+iDv0KQXPga9RCrgp4KaAuwEYSAE3BdwUcLMh8h/btIOHYCAYCAaCgWAgGAgGgoFgIBgIBoYx4IXLoW/f+tu3R188Obqe1f3Ojk7XWw99aLTceq8XPs/7Fm4KuBtQvFvvBY6+4Rt8UXOTAm4KuCngLt99u6jPk/gVLAUDwUAwEAwEA8FAMBAMBAPBwHbHwNQC7uvn+u/H8gYrb7Ie+eFTowuxKt5C/9NV7xott945x2e9hatv4Z564+mO/6Bt2mcUUsBNAXfLgLveN8Ii6UsBNwXcFHCzwVqkZ1J8CR6DgWAgGAgGgoFgIBgIBoKBYGCRMTCpgHvyjXMdnxzQt295k/XICydmrmf9P//mv+z+8yf/Snf+tfHF3/XMGT77W7j6jEIKuCnOzgzm9QTmpawrBdwUcFPAzeboUn4GJvbgPxgIBoKBYCAYCAaCgWAgGAgGZsHARQXct873b6Xyhup6FXD/11t+tv+UwvfOXLcl9bKhAi4x9m/gEvPb5zvPhXKYN3BT5N0S0AqA25WmgJsCbgq42axs1+db4gq2g4FgIBgIBoKBYCAYCAaCgWBgvTHgRcv+G7jlPzDjkwP++YQn53gD96XDf7DyLVz/rMJa2v/7df/t6LoaPl/0GYU3znX1MwqeC+U5BdwUcEcDTaAJnf6gTgE3BdwUcKffJ3mWJEfBQDAQDAQDwUAwEAwEA8FAMBAMBANgwIuWG1XA/fbzj6x7Aff//sP/anRdLQXcFGFHgyUPxs15MKaAmwJuCribc6/lmZY8BwPBQDAQDAQDwUAwEAwEA8FAMLD8GJi1gPvED47PVQvjO7i8cfvsS0/OJS+s/eCpK3o9/37Pe0frwee8gZsi7mjACGyhG/eAW6QC7s5D+7r/4cP/tLvjmSPdvEXFf7Xz6u6/f88/6K+f+flf6tDZ0sX4xz7zR805+D/yqd/rLn/wzn6etnRWyhz86MNena996Wz5NGZski+yRQ7G6NpoHrCVe3fj7t3kNrkNBoKBYCAYCAaCgWAgGAgGgoFgYPMxMLGA+/q5btUnFF440c1bwKXgSgGXAuxa1vnf3fO+Xs8LRz8zWk9fwH3hRHfspVP95yCIif/ILJ9QSFF3NIjWAtrIXvxgW5QC7r3Pne4+8C8+NrUACg+8XqhV4RLaKl5SEKbwiZyKlvBNK6YiAw+FXhWCXY45L+D++id/Z8UGtpjzYrTL7jr8cPfLH/pQ93d/5h92//Af/Y/dZ+65rfvy8xeacU0qRCueRaQp4F58v+UZlJwEA8FAMBAMBAPBQDAQDAQDwUAwsNwYGFvAPfriyY7/DGzeAi4FVwq4FGArZl5/+GP9XP0mLuOV9//87F/reb/1/ccumqu86quASwx8zzcF3B8Xbg9990j3gX/2T7sHTu9blcyhcSX045f9Xve5W6/uZW45cOfE4tc/+MVfWtGPHfpe+Bpq/9KvfbDDD9ms1H2oc/Sx9Rv/+ne64y+f7vARfsah9NH9oY9/bKKNIb0eg/SKF3voxYbGnJI35c7H1cZv1kSxy1/Nbxe6KAVcip0qzs5TjKTA6gXUqoNiq/RTVP25D3ywiX8VZF2eAu4f3LJr1Ru2yDMm/mp/UgH3nm+f7H7lY/+8u+zOm7uH/vJ8d91jD3W/8Gv/uLvx2GMrBWbZv+HIo92v/85vd8hobFloCrjLvSnZLs+4xBEcBgPBQDAQDAQDwUAwEAwEA8HAemJgswq4FFwp0FKArf6PLeB+84WDvY7/67L/+iIdVaf3U8AdeNN2UqGWAuSkIiqFRRUXKVhSuPSk02aMIqoKxF5UFS92qrwXMVsyY4uv6JaP7i+20fu7V/7RRT4zh9zYwjK+eOzuu2J0Wgu48HtBeMiuxmuuXPcytRehgKs3WaHKb4u23q5VMbMWUDXuVG/AQlu6fB77Ks6OfQN37CcU9pw93H3yuiu7u7/1TlGWYi/FZ73lu+Lz8xe6j336j7rfv+mLS1e8JYYUcLNJWqZnYXwNXoOBYCAYCAaCgWAgGAgGgoFgYAwGphVwT7x6pn9rda1v4OILhVeKuBRix/hWefQW7/985y/PJF8LuMSUTyj8u2f7tzz1Bi6FSAq2rQKWxihs1kWpBVgvUK5HARd72PBiMjbkU6V643cSD/pa8yqO1phqzJP6FIr/8PrP90Xp6lvt40PVVQvWKkArD/Kxyi1bfxEKuCpYemHV28zXvmRExxRw4eXtW97EhXrhtMrT1zdyoRRYK24o8KrIW+UnvYErn0V5y5Y3cr90/uiqQu2tpw517/+N3+ig6MPv6sNQn3xJ/1bRFHCz+Vm252H8DWaDgWAgGAgGgoFgIBgIBoKBYGAaBlTAPfP2+a6/3jrfnX7zmf77sBQ5+wLuy6c6FXAPf//YRTWnaTY0T+GVAu4s36+VLPR/+dIv9PKzfkcXn/n8Q/8JhZdP9TG1CrjEr3zI7g411kx/dKFP8Kk3n37nw8Ivn+6OvXRy7mSu1R8Kg16EoTCoYm5LN/y7v3rbSmFShUQVOylauj7a13/5lovewB37tqkXbPFHRVcKnL/4wQ+svNXrvrbefkUOX/BfvPXN41o0VUz+Zq1kJ1H0EB/yQ3wUbWvhtlVMrrlUX3kf0r8s44tQwKXYqLxOo7zl+oe337jqcwaTZPTZBIqYvOHrhU2KuPynaRRfa5GzFnBbPHpzGFnnpz+2gMunEX71t36z/5xC9YE3b3kDl2/j1jniwH7LduXdqn4KuNn4LMtzMH4Gq8FAMBAMBAPBQDAQDAQDwUAwMBYDKlhuRgGXwmv9zu08/W+8+PhgfawVdwq4M35CgQJkLaB6Yr3A6W14vEC5Xm/gum3XXwuxzHmhljYFVRWX9Xbu1ffs6n7lIx9eKQITg8vRn1Scq3PIEivFVeaQd5+97f5rnE85UPylX4vJ6J6kTzqWjS5CAZcCo78ZS583W73Y6gXLVkGSAuqkb+C2CqrI/PKHP9x/y7bq9IIsb+BSLPXv5lIY/vRdt6x6A3fsJxRk64HvPN3988v+Tfdbl3+6o61x6F3fONF98Df/RfeFr3151bh4yE8KuNlgLNvzJv4Gs8FAMBAMBAPBQDAQDAQDwUAwsOwY2MwCLoXXeQq2LtP6hu60NUgBd0oBlwInhUUSqULkpKIhc3oTlDZv7nLVwiZj8A0VJ7HnurSQ8CNLgdbH6jdr4dPbuLWYS+FTRVls0IafIi7FaYq4ipk5tYd8kh9DFHm+90u82BvKI3xuS3w1d5P66B/yY1nGF6WAWwuw+mSAipRrLeCixwvC6Nd3Z3/7qsv7ArKKo1AVcPmPyijWXv/4vpVPL8hXL+CiX59TQL5VMF4Vw/MXut+9/pq+gFuLt8h/+u5buw//3r+8qLAr3fLdfaW9SFfewM3GbFmeg/EzWA0GgoFgIBgIBoKBYCAYCAaCgbEY2MwCLj5RgKUg++3nH9m0GlQKuAMFXAqXFAq9uDmpcAgfi+hFVxVHW4CjOFn/EzMKqJNsaK6+AYxtCrjolC1sw+8FUc2JMie/NQalmItvj3zz4EWfjvD4XGZS+4+uv7zXpQIuvLWozFgt4LpO+eQx4jv+iK/2Nb5sdJEKuGPeYPUiqRcrVVSlcOrjtHm7Fzmfo6+CbkuWgiyYplDKdfOJgxPfwF1VnJ1WwH3+Qvd7u67tfvV/+q2OTyhUf+/7t2e7X//Eb3dXfOWei+bgrcViFZulp85rfLNpCrjZAC3b8zD+BrPBQDAQDAQDwUAwEAwEA8FAMDANA5tdwP3R3l/pC7gvHf6DlZrUNB/XOp8CbqOASyGQt1B505XCIUmuBVfGmKtvw6rAyTdu0aOiooqvUAqwFEe9gIscvL6g0uVFy2qzVdiEn2IpMaDT5dHPmPujNjLwSp5PKWhMfslP8Ui2Rb14LH7kXZfrHyrgDvlbbdbCtuwsG12UAu604mItkFb+VhFWPC5LMZdPIah4Kx6KnowzzxjzXCr01k88wKNCKXP1W7qT3sCVDxVTKk5f++gD/XdxW8VdfHI/8aMWcOW7YtsqmgJuNj7L9jyMv8FsMBAMBAPBQDAQDAQDwUAwEAxMw8BmF3C/f/KqvoD77/e8d6XGNc3Htc6ngNso4JLU+oYoRUR9J5Z5FSS9SMk4BUqKQPCrIOmFWPRStKwFXPH6grqcxmsBFzteFIUPXYyrXX2U7y4nf2WHOY9X49KNDi9Aa1606mvZFK+o50D85JJCco1BMlCX8/FlbS9yAZcCqYqc/p+RtQqSkwq44q9FWo2LooNCrIq4QzopkMovdKqQKz1QFXB5cxff4ecNY3Q639g2+tCjIq/L1YLwWuy43rW2U8DNxmdZn4vxO9gNBoKBYCAYCAaCgWAgGAgGgoEhDGx2AffZl55c03dwv/nCwZkLvyngjizgAhIvKlL8UZHUAaRioheAKYaquARtvYGLLi+oopO+v6HKmBdwW/PY9zdR5bPrpniMHnTLL48F39FRY3RdtDeygNvKqcaU46G+xpeVLnIBd60FxMhv7TdxU8DNhmdZn4vxO9gNBoKBYCAYCAaCgWAgGAgGgoEhDGx2ARc//o8r/pu5i7gp4A4UY4cWeNK4F2DF54VN/nMz3lBtvaUKP0VGFV9bhVYvgHpRVragLTnn9aKviquy6Xo0N6lIS7EWn7GptuSk0/3RnArALYo++SF+dGisUvxzmTovHdXWJJ1VxzL0U8Dd2iLndi4yp4CbDc8yPAPjY3AaDAQDwUAwEAwEA8FAMBAMBAOzYGArCriz+LcevHkDt1H0pYhIkZDCJW+r6m1Uf7NVyVdR1wuPjCELFZ+odKNf+hhzefGqYCp9Klx6IRZeiroUkqcVMpHT1So848PQOPH85h/+qxUbFFPX4w3cVj4Uv+JS3C3f4CUmz6fkl5WmgJsC7kYVkVPAzSZoWZ+L8TvYDQaCgWAgGAgGgoFgIBgIBoKBIQxsVQH3ja9+tPv/fve/6P633X+3O//aUxfVAPGXzy38p6ve1f2/v/9Xu5cO/esmz1BcPp4CbqOA6wlKOw+IzcZACrgp4KaAm+fOZj93Yi+YCwaCgWAgGAgGgoFgIBgIBoKBZcXAVhRwn/uLh1Z9QuGVA59oFmd/dO8HV/j+8yf/SnfhlWNNvmm5TwE3Bdy5gDMNWJmf/8GfAm4KuCngzn//5NmT3AUDwUAwEAwEA8FAMBAMBAPBQDBwaWEgBdxnujNvne/OvP3OpXzoPtihxprpjy70Rk69+XT31Gtn+/8s7NhLJ1NYTHH5ksRACrgp4KaAe2ltNtb8G5rfikvytyK4yXMiGAgGgoFgIBgIBoKBYCAYeAcDKliqgEkx8/Sbz3Sn3ni6O/n6ue7Eq2e64y+f6o6+eLI78sKJjrdZ1yN3+YTCy6e7FHDzIFqPm2kZdaSAmwJuCrh5/i3jsys+B7fBQDAQDAQDwUAwEAwEA8FAMLAVGNiqAu5mxppPKOTNpXX5q8Nmgna720oBNwXcFHCz6dnuz7nEF4wHA8FAMBAMBAPBQDAQDAQDwcB6YSAF3HxCIcXNFLg3HQMp4KaAmwJuNjLrtZGJnmApGAgGgoFgIBgIBoKBYCAYCAa2OwZSwE0Bd9OLd9v9pkp80384KODmSg42CgO5B6ffg8lRchQMBAPBQDAQDAQDwUAwEAwEA8HA8mAgBdwUcFPAzRu4wUAwEAwEA8FAMBAMBAPBQDAQDAQDwUAwEAwEA8HAgmIgBdwUcHNzLujNmb+ELc9fwrJWWatgIBgIBoKBYCAYCAaCgWAgGAgGgoFgIBjYKAykgJsCbgq4KeAGA8FAMBAMBAPBQDAQDAQDwUAwEAwEA8FAMBAMBAMLioEUcFPAzc25oDfnRv3VJnrzF8FgIBgIBoKBYCAYCAaCgWAgGAgGgoFgIBgIBpYHAyngpoCbAm4KuMFAMBAMBAPBQDAQDAQDwUAwEAwEA8FAMBAMBAPBwIJiYKsKuB//7Ce6HTt2rFw/9dd/qrv98F3do88d7N79np/u2+v1h4DD3z/WHXnhRHf0xZPd8ZdPdSdePdOdfP1cd+rXaMM9AAAgAElEQVSNp7vTb6aAm5tzQW/O9boBomd5/qKWtcpaBQPBQDAQDAQDwUAwEAwEA8FAMBAMBAPBQMXAVhZwKeLiD8XV937g5/qibS3sqsj7vo+8f+46Ywq4KVDODZ56w6Sfh2gwEAwEA8FAMBAMBAPBQDAQDAQDwUAwEAwEA8HAZmJgKwu4H/3Ux7r3/Pzf7z5zy+f7Au7vX/cH/du3vIXrObjqnmu7FHBThF0FCgdI2nloBgPBQDAQDAQDwUAwEAwEA8FAMBAMBAPBQDAQDGxXDCxKAZdCLm/b8gauLuU8BdwUb1O8DQaCgWAgGAgGgoFgIBgIBoKBYCAYCAaCgWAgGAgGLkkMLEoBV59Q8M8ppICbm/KSvCkF/ND85TAYCAaCgWAgGAgGgoFgIBgIBoKBYCAYCAaCgWBg0Qq4/EdmFHN37btp5XMKeQM3hdwUcoOBYCAYCAaCgWAgGAgGgoFgIBgIBoKBYCAYCAaCgUsSA1tdwFWxVm/g6vMJfAf33e/56f4/NksBNzfnJXlz5i9s+QtbMBAMBAPBQDAQDAQDwUAwEAwEA8FAMBAMBAPBwCIVcCnU8i1c/Sdm/MdljKWAmwJuCrjBQDAQDAQDwUAwEAwEA8FAMDAFA185/Wi3+57bLsoTY8ylAJACQDAQDAQDwUAwsJwY2KoCLnjhcwk/9dd/qi/a8u1bCrX8R2Z+qYgLnRdjh79/rEP/0RdPdsdfPtWdePVMd/L1c92pN57uTr/5THfmrfPdmbffuZQP2dqhxprpjy70Rk69+XT31Gtnu+Mvn+6OvXRy7qDW7M+UzV/0L+cNvSzrxgHijz//J/11+Reu64798FR/L5x87Vx37S27Bw8Ydx64r+NSnMhxIEFOY1DGWvrhx149wEjP4e8e6+3LH9eJXXS6/dYhqfroOmZpt3R/7U+f6HbecfNF8aJXuVPclXqePf+KiZiv2r2zwwb6yCEX7epLyw944VOM+IOv0icf65j4RastjQ9Rt0MbP+r60QdXUC5yUfOjvmLQemu8RT2ns+RfsVSsDPkP/6z+yAbUc+TjarvdFq/PS2aIup/kHNkh3rWMs86u39dYesHezQ98qWm/FSe+a/2lQ7SFy9Z9IP6top7/FmYZ03091sdJeRmjY5I868A6wtPSRd4VB3w8P9R36vciepCTTqjz0v7MVVeteja57Un+io+1x6Y/38ir25F9yThGW3iCr4UpMCw7Hpf0QqVbfrkftGt+XFZtz5PfW8wP+Ytd4m7d536P0YYPftmbhyJPLB6f9Pq4r2/L91ae5Q9zyLsNb0/LZcuedA9RyUBdf/VFc8QML/p0D6kvG/Bweb9iUnPSM+b3WbkgR3v23TOYJ2EIHyQzRN1P4hji07j415KfsTF7jmhj2/FV5+njF/sp8Kr1ke+iyk+Vn/b8QSeyY+4lz6Wwgz35VDFTfUk/Z8FgIBgIBhYPAypYqoBJMZOiJsVNipwUOyl6UvykCEoxdL3WkaIsn0ygcPuuv/03V968lX7GeSP3o5/6WJcCbgqu6wY8ASx06x5IbBrZBLMBhbKZZD3YuHJYHdqc+kEW/ipf17TOY4sDB/p94yo+L+D6YZYNN7JVP2OuRzFMOiRVHUN95ajOY7OlnxwOHb6YQ4440ee6aSsnOlg4lS2o58B1MCc++csBphbPWmPih+Ifhwy3T7sedLBdeVp9l0M3fXwgDnJS88I4uvGlxlR9r7K173G15hhjvYYKUopHMczqj9un7etV56p/02JFHn/ko1PHSLUzto8/xO16a1vrJJ01P4xLD3PiE1X+iZWxIUzJzlD+iLelf9/ZA93nrrmmu+zyK7prbt7dHflB+w+2Q3xsxvbsu7v79BVX9jquv/OW/v7A31ZxqeWDYh1Dkb/vyFf7PLiuio2qC15fGy8SiBcez6PzT2ojwyX5WbAlOflQ4/DfEukXb6vPGPPQls/glXtZcVYdwqLma1+2ZUP26LuvNS7J+bNLY0N0KIZJ+R3Sr99O4sEe/rXyU8f0XBvycWi82tOzysfxxX8L8akVG2OeZ9mUTvWdohs57Pm42/C280xqu82httvWeuAH9xw2pX9ofX0NlI8xvJJjzR488fBK/PRrHvAB/8m/MCFf3T/P+zz5ki7P1dj8SFYU+2PxqFhaeUdfK596Jrp/st2i6PD1rDzYVu7RSVtrJCqbyi0y+K41wQbPFempNtLfuvNRcp/cBwPBwDQMbFUBl8ItxVmKwvg46TMJKvROi2VoPm/gpvi7srEdAknGN/dhqU0lVBt5qDbRmvd10aFgWsELPdqsUpBl06oNr2xp06u+82tDyxx+uA/eRoZNsjbMUMUjvc4/a9tzQAxux9uyRUx+aHV7zCkPjKMbXsb2Hn6oL+BqXnlGRvEgQ59C7wPHHx70RTlAzn3U2yr42hpHv9YIKt/xRW+xaKxSj83bWlPGXEbj9c0h4ufCd/jxVbml7wdF+m5L/dZBSvHqQAUvF3awp750aB18nPYs/tT8y4cWhbfGgj0vGrXm8Ue5qr6ud5+c6NnQ0u3YmRb7Hfv39tjff+Hgyv1CLHUt0OM26YsH2solY+jCn6tvvL7Pz9m3L3R37L+323X3rf2/wnH/J/FRKKHwe+zF093pN57pdu/d09384MVvEzNHcfexbz6+CktuZ1r7qVfOdju/dHP3xPPvbMiIjziQm5RP5lz30L2lXJFP4pJul61teNDPRVv9ylf7LX+lR+tX8Vx1t/qMyZbfG4499GPLn6HIYI/YXQfjyPq/epB++YeuVrFe+WQeGV8v6ZhEa3yTeJnTuuJX5Z00pzjg8fYkmaq/9pGtv7vE7zqx5b+F5ElrD1X+KtX61Ge9++BxaJwx1lfr4fbE4xQ71Xarj6/yBRl+ez1WfruxS+xVv3xhHFnFRn/IP3S7nOtUW7JQ16l5aMX/pJwrbnhcx9j2PPnBd9kdouSVdZUfdY0Z15j/tpMT9hbgj3kuYkNftYUfLTxXPvqyUXOpfZxjQDYZa60XPio+zSvO0M09CyXfyXcwEAzMg4GtKODy6QT+0zIVb6vf9VMKrbdzq8ykfgq4KeCubMImASVzm/cQZdPIxlOHLDaU2qBqHXyTyRh9Ls1rk3rl7p19EVLjUG3qodo8Y9N5aMvG4e8e7/nqG7gtGelgzv3Rob76Kf5ZqG/SyYvyVHW4LfLROiToMOD5Vf6x4wVc5LEFpbDAvMdY7WsN/PAAj+cGHnQyhj760qOcjT3EoAPZabEqZuI4+uO3VRhDHlvyo/rPuGwQt/QMUc9p1aUY5S+6lSf5j41JsavwjY5Z/CGGSesm3+CBt+W77qGW/2P9IW/ELXuzUnzTurksfnvuFQc+q+DvbZelTc7h49nBYRt5LvkKBTvkBX76wsCY+/HRbxzqrrvtxhX5g3/2ZF/Q1frLn0l89x/9asfbueIlF/JPY9B95w50X7z9pr7I6+OztCn+3njv7SsFZuGB52Hr2aN54nGsOWbcvtaHMfHDSy6hzqu2ZOBnjYid9qSCpudHdmST9cRfaMWlbFXb3odHfcVf8yMf9VyDn/jw2eWlB4pP5GFoHh7X53Exh5xknc9t1Db8wvMkqnzCT97qH72qLHzkRjmu896HB97q27Q++cIvyQpzPs6ccAuv7I65d7EvnS1f0I1O7GmeNZGNIVqf5chIfpJN+UJuawG36pC+MeurtZUMdsiZ8kp8rJHHCS82kRXWmCevipu5qosx9xX/uGRbOtWfhc6TH+y5/WqPmPBZuZiWT+4L1heZmg/ygrzyJVuM4Ue1xbzmxFsxh4zWps4h42PYYF11P6Cb9UKH9DM27/0oHaGbd35KrpPrYCAY2IoC7mbjLgXcFHBXNiqbDb7Yaz9k2VSyYeSigMjm1w8BfhiAhwIr82w0lVM27myc2ZiyOdZmm3lt6kUZw6b0ikpf3XRjC53iE9UhDFvaEKPbN8zohF+65e+sFH85ELgc/SG91SeXc/8Y16YefSrgkmfF6ZQ3FjVXbVe9sol+8cov8sW4eKA61ECZlwxz+Ob8zKnvhx73wdtuh7bkkcUWBTyPkzUnTtmA3/1xLKHPbeGr65rUxsbtj+xdwcikWBxjs/iDf/gLXif5olg9lpo3+u6j5pVP9debon/Id/Ite/jmzw5iInZyR1zw1T5jzHl+6QvnyotsQBlzu4zRd4yIH150yT4+0oeKRzrH8MHLPXLPoQdXyfPtq11339a/1QrPLDj0WPY8fM+Kjuqf+DyHFYu6j4mbOedFH2OtnCrn0gd1+7SR03MevT6Pby29kmvpc3m14RvCmsbhkb8ac6rnB89T2sqbciNbQxR+sLDrrltXng3idR3KseZE8Y8LPe6Xt+UTfEN5kz5Rxew41Ry0Phu8jyw2GfO2y8/adv3Iggny4+PY8nubWBW77NEnD+o7ReekZyfriz3Zh9fz2bLn+lv5d/9p63mh+JBRAZd4fV3VVoxVP30u+VD90xp7DO6D5KDwkFutq/stvfjsz194Xfckf5hTPNMoOdr/7Nf79UdubH7wxfPh8dH2mFo4mSQPP7FzoYdnF/nVPYxdyUPdlvwQj/r13kFG+KhzyPgYNuDlGrPXRlZ2Q9vnl+QleQkGgoGtxkAKuPlPzPJjnQL3pmOATaU29XUjXTevPCQZ420552VDLD13Hri/P8jpgcq4b/5dTjxOhzbRvnmvm2LNQf3Agi0uxtk0z7shVgwcBNDj8XhbNrADL754bLTdd/rohhcf2dRPy49kFJvbr210ynfNqfCtOfmnQw196W7NaR69tFkvL9rJTotKBv20W2stm+6f+DWng7T6NadVL7bQAX9dGwpmyvukWJQ3dMzqj/wcQ2ssVabG3vKnyqx3n7XhwldyVvWTH65J+URecsQEhnSo9Vy38sF6gq8x9yOfCdB9iT18ol/9RucYvi+f3N9/TuHEy2dW/EfvoT8/8s5nFhr5cPxhV7lT/KLHXzrdv8F7tHyj1+9NeKuvkocqPmKBjzGth9oap0/b893iYUy86HIMEgs6oBRt3C5j9TlAEQUeH/cinGyJYs/99VjE06LyizmXQZfbrm14XR/8jLVicVnmkSM3evPc9VQ/NIduj0/jLQovuQL3ui9ctmKL/qzP5pbdobGWfvLgfuCn/xYq/2PuXWQda9UP5QB7zPmaixd7WhuNOSWnvo5gU597Qj/zXMjIF/oqUCpW70/S77bUdv/QzZpha2jtdL8qNlH5gt8aQ4/wgl/Ykt0h6v7UWMgP+n1c7Xnyg59Dfmh8kk3ktT7yo1LFLD16niIneajnTzrEo37FHDJaJ/KMLcZa/NhgXjbFA612fC7tFKiCgWAgGFhcDKSAmwLuyo9+btTFvVG329poU8mmkw1ofRtSm2govBRZOKxo06xNuza/fM+SDXIrT8jooKNDEnKSZXNMWxtiqOb05hc8sokNCnDwPP6dY71P8pM57MlPxdnya2gMW2z60alDTd3AI6tNufS4nOdPbcUFP35p469CImPiFa0yisttoofcaEz6xYtfzuN+61CDDPyyO0Tx0e3Q1lrQrnlCp2TU1tqCCbfDvPs2xh/Pj2PI9aqtA7D8xy9sqF/9r3mbxZ8xvPIL3po394k2PFw+Tl8xSFelwq/LzdL2nGodkUevDsb0mau2NIYOeKGKg3jBHuPc49Vv719z866OizHZaOWLOfkIdf/cB49/DN+Bbx3urrphZ3fwuSdX5R89YJ+3uV2n2oqVPvbxD781L8onGG556M5V4/6sEx/6iKne65onFr8fsKX7XlgRL5R59DFH3/PnfOiFB37Wimc4coqJeS6tjWQ1jxwX84zJtvclI9ryV3PoIE7HiO5tj8HtS5bckRP80Ri2lAONKWb1XW+dQyf2PfeSg7b0Kz6ox+FtbCIPxrApv/Fd68p8K07ZH/tsFv8YWu0Jqz4uH/c/e6jHyiz3Lj5IZ8ufiiV4yI/nrtX254GvpzAh/9HlxXj5wu80+xxknVdr6b7WMfpc4sGG1hf9LfxgQ/eZ5BSr+6A9FXmRXsXEGDIeL/1J/rgtfCAX6PNxb8+bH8+H66Ot/OI/fK31bI0RP/IeL2PkkTF81Rx6mcNWfZ60dMPzxF8eX8Gz7vcWHn1Ma4Id7ttpe+2ai/RzLgwGgoFgYPEwkAJuCriDG6PcsIt3w26XNfFNJRtabfSJTxvbGisyzMGrA6RvtLUxlhx9DibwSlZ21Ucf/NJTqfgp9smm9IvC44czdEqveOahso0s+txGPSDBg++tAxdzvqGnL5/h9wKu+92S8Xl8UH7RQ5sx6Revr1f1xQu4zOlCVvI+ht/qE++0g4/7hD4V8rFb88u8Y8jb2CQ25GS/5kfYYRwe9CuGmoM6L1tVh2xBxaOxaf6Iz+OsMuLxWGiznvIdGfKIffFDtXbwidfn3a6Pj21jr3WQ9TGtr/PiOzEo/637An/9nq7r4/mQvx4P8rLDPDni+YAc/UnftpW+MXxPfu9Ed81NuzqKuC5Hm/9wjDkO9XWOvuNlEq4o3lLEdR1aW40pPoo1FOU07pScsDbkycdpM6dx8fk6DrUVAzKKQfcwejXva6y1w2c9Hyj8wgsfcuKh72357f4yJtvwui3xK1/yh3HlDBnxCZPqQ7HF5WPOV/X4HDLYZgw8Kj7X1dIvf1tzyKKPWKSn+kAfHcx7bsTPmHI/tLa6dyUzlro999/Hybn/Xns8yEy6d/HD46t+tfBSedxenau+eW7J+dA9xJz7LawR99Day7bnSWOiQ/gZ0qvYlG+eCb7W+OUxyY7TSf5M4kM3ss6j9iz5QQdxSHYMdUwgiw4fkw78qJiHnzzX/ziTceXRnxPVv4o5X5s6hx8+hg18GmNHMYT+ZC+aXCQXwUAwsIgYSAE3BdyZNjGLCOL4tHwPVzaV2uSyWfUNKX0O6RxK4NP60maOzSgHcualA8oGmbcL9NaNZOGnzaU2hzttatGvjbg2vvR1KMI3DijYli+i8DEH1Rh8LV7msTk0J3lR+as+Njj0Eis28Utz0Mrvc4rLZeBHF3Eyr77n1O0wj+/ik5zsoIMx8ShOxv0w7fytcfSjx9/skQw5uPG+2/t5cgGfYsKebDJGrrEtWfrIYFM+eqyMwYN95GhLNzqwraIFfeeBj1y5vlbbixbKp/uHjGLQeLWl8Un+iAeqmGhXmZ/k+p1vTMtnxuFXXPTRI98YV+4Z07jblYyPuQ4fH9PGd9bO15R2XSO9vaa43Vd0gB+eH4w7/tClvq+tfKvxoGvofkQ3fjx44pHu7NsXujv239vtuvvW/j8JO/PW+U6fQpjER/H26huu7/h8gnxwyvdwHY8+V3OFHfKh3Gmef0HAf4DGZxQkT5y+nvIRGXha680c8UKFC+mTDHp9zNv45veGzyHH53N0b2hd4Wm1Fas/P4gbv4RvqJ5trbUmRvdXOuGlXWNkHYgdf7hkx3UgK3x5fB6DxpHDB3TiJ7TOqQ9t+aT5ul7OW+ckg338Uh/79d7TnOdGeWYtPUdux/mlA4o9+Hys1a7yyHH5eM11K56hexebxDt0b6Fb9lr+MVbtOR9+em6cV7HA7/HIH3iRlQ/0ZY9x/w87hcFJVLqqT7LvfioGbEon6+V+isfxwvyY30bdjy0dGoM6ljQ+Nj/kTbnDL8lPo8j4vUsOhFUo6yYdlZd5rRN+gjvnl5xTl/FxtX29WvH4WGu9tK7YqXttZJlnjeW37IYu31kra5Y1Cwa2JwZSwE0Bd2XjkZt8e97ki7iubAy1iaXtm3ffvPqBBj420X6QrIcHeHQoUdzoYFx9KH3saIw2lza+vJWKnDaz+MfG2/XQZoxNufRApcvHaKPLDwF1vvbRrxwxp4MQvnC49A02cyqgVD2S1aadvuJSHphjI+85US7QLdtus2VHY+jVIQ/ayhM6Wz5p/ZjXGrhe5cT9Y8ztVFnlHr+Up5pfbKCHcS75Ids6JKrv9jXmFB2eT5+jXeexzbqyvtX2PP7gH3qUL2zWGNDLPOPYdSzju6+39Mlv6RWfr7fa4sG21sBt1Jx4X/aUC+S4f/TGl8YVFxjTGD7JtuNM8U7zB9vIIyufXJYx5shZ635k/pHzB7vPX3dtd9nlV/TfqT3y42/M8hbWlbt2dsdefKdoOsTXyqvuIwrA1916Q/fYNx9f8c/9FJ/G6v2gWPhWr79RW+OGr+pCJ7nx/OqeYg4ZfJdtKH3GfYw2OsAK81pv+tINj+sTBuBlToVT2pojJuFPeGB+6Koxw1f99fxp3WUDqhzhdytOydS8KGaXIQ4wRdGa9pDfPo5+YoX6uGJxu7SVX9oeh7fFgw7lVnl3G605zyl6PEf4yJjroj32t1G5lK/kDn1gAR1gkTlfe/HIb+kYuneJiTWVjUqRa+Va+qs9jUM1B5VejeE7F318IKaaG9ZM/PwhCn58YdxjdpvMcfmYt5Gv+GmNuf8uX9vyvY6rP8Yf4kIPMq31UDyz5ofng2NbPk2i8JNz8dCWfcaYVx9/yKXWFqr1BDfEQn8ShtDl9mRX1NemZQ+b0o8exVvtuh14FCd02hrKl9Dh35bkJrkJBoKBjcLAVhdw3/eR93cf/+wnVn4XaTO2nvEe/v6x7sgLJ7qjL57sjr98qjvx6pnu5OvnulNvPN2dfjMF3HVN9nouXHRt3wefbyq1zoyx8dRhWOOizGuTrDE2smw22cRqDOqbWjbTHHR8Q+1t5FUIQI4+B0Fk3BfpZL5uhN02PlY/mR/y1WXVxgY+ShdtbcjFA4UPnlZumGdOscIrWelVn/hbOZJN5ad1kJJ+UeUHG+gnbzqckwN0Oq/89FxLrh6EkCPW6of81BpJv8YVZ4272hG/YpAcVAcat41/8771RBzkXDHSlz23gS+z+CMM13yiu+Zf+ZRdqHKITR+njV9f3HNTt+uuW1cKGK2cwks8rmMW/KNT/qNH6+n6lKM9++5eKT7Id2FP/iMnHcozvMKl+Dw/rAs8zElesaJLWJGs+Kptn9/oNn6637KnvCgHUN7svfHe25tFYMXi+ZYuUeJknks51RxU61NzBb/8aMkhqzWHctWc0q96ZXvWZ1UrN/LPqfIKRmhDq81WLvBfWIa/2pPeqqvyuS9qYw+56pPjuNpGRr6Tx5pb9OGzdNNnLblX8El+ag3wxXX4ujOn+6TGo3H5jz3XLzuVol9FS58jppYOxuSjfHbb0gGf4sAGONKcU3yEVzmUfq3JJMpa8y8A0O860cHFmOcJfxhnPZxfPBU7zuNt9Cg2H1ebWNDFNc3/SQVQzwX25OcknT6neJBtjctfqO7zWfMjOdc1qe3PH/nl9xSyxKnfEm8zhww+VsyBgXpPyQ9k6pr7HLlRrrCHfuFR/mis3svMM4aOGodkhYMhH+RL6PY9o2Vts7bBwGJjYKsKuCrUegGXIut7P/Bz3e2H71q1V1krhlLAnfD2yVqTG/nFvsGzPlmfYCAYCAaCgWBgfgwMFQeT0/lzmtwld8FAMBAMBAPBQDAQDMyOga0q4KpwK8raXXXPtd2OHTua13t+/u/3b9HOs8Yp4KaAu65/EZgHhJGZ/eGUnCVnwUAwEAwEA8FAMBAMBAPBQDAQDAQDwUAwEAw8221FAZc3bSnIerGWN3L/8cf/Sf/2LYVcCrtOU8BNETZF2GAgGAgGgoFgIBgIBoKBYCAYCAaCgWAgGAgGgoFg4JLDwFYUcPlEwrvf89Pdo88d7Au1FG8Zo4BLUZ2+Xyrkzltwzxu4ubEvuRt73pslcvnLZjAQDAQDwUAwEAwEA8FAMBAMBAPBQDAQDAQDi4WBrSjgekGWN20/+qmPrXz71r+Dq7dwnX8e/KSAmwJuCrjBQDAQDAQDwUAwEAwEA8FAMBAMBAPBQDAQDAQDwcBSYmArCrhehKVI+9+95939m7iM8yYu/5HZ/We+0r+lS5+3ceFzuVnaKeDm5pwbPLMALbyL9deprEfWIxgIBoKBYCAYCAaCgWAgGAgGgoFgIBgIBrYDBraqgMvnE971t/9m/x1cFWf1bVzeuOXSd2/1OYV5850Cbgq4KeAGA8FAMBAMBAPBQDAQDAQDwUAwEAwEA8FAMBAMBANLiYGtKODyVu3f+Fvv6t+2pXhLgZbiLG0uL+RqXDzzFHFTwM3NuZQ35zxgj0z+shgMBAPBQDAQDAQDwUAwEAwEA8FAMBAMBAPBwPbCwFYUcB1DKuD6d25VyBWfeNSflaaAmwJuCrjBQDAQDAQDwUAwEAwEA8FAMBAMBAPBQDAQDAQDwcBSYmBRCrgUZfXmLQVbFWk1RoFXY7PSFHBzc84NnlnBFv7t9ReurGfWMxgIBoKBYCAYCAaCgWAgGAgGgoFgIBgIBrYaA4tUwPU3bWnv2LFj1Tdy581VCrgp4KaAGwwEA8FAMBAMBAPBQDAQDAQDwUAwEAwEA8FAMBAMLCUGtrqAO29Rdha5FHBzcy7lzTkLyMObvwYGA8FAMBAMBAPBQDAQDAQDwUAwEAwEA8FAMLA9MZAC7jPdmbfOd2fefudSPoT3HWqsmf7oQm/k1JtPd0+9drY7/vLp7thLJ1NYTHE5GAgGgoFgIBgIBoKBYCAYCAaCgWAgGAgGgoFgIBgIBgYxoIKlCpgUM0+/+Ux36o2nu5Ovn+tOvHqmO/7yqe7oiyf7b9TyNuuaa5mbvB55A3eTE75sAIm/2/OvU1nXrGswEAwEA8FAMBAMBAPBQDAQDAQDwUAwEAxsBwykgJs3cJeuIr8dbrzEkB+QYCAYCAaCgWAgGAgGgoFgIBgIBoKBYCAYCAaCgTEYSAE3BdwUcPOGcjAQDAQDwUAwEAwEA8FAMBAMBAPBQDAQDAQDwUAwsKAYSAE3BdzcnAt6c475C0x48pe6YCAYCAaCgWAgGAgGgoFgIBgIBoKBYCAYCAa2NwYWpYD7vo+8v+PaCLzlG7gpUG4IsDYCrNG5vR+4Wd+sbzAQDAQDwUAwEMINU/8AACAASURBVAwEA8FAMBAMBAPBQDAQDMyKgUUo4N5++K7ub/ytd3XQWf0fw58Cbgq4GwKsMeALTx7KwUAwEAwEA8FAMBAMBAPBQDAQDAQDwUAwEAwEA2vBwFYVcHnbdseOHaOvj3/2E3PX4FLATQF3bvCs5eaKbB7OwUAwEAwEA8FAMBAMBAPBQDAQDAQDwUAwEAwEA2vFwFYVcOU3b92++z0/3T363MENq7GlgJsC7oaBS0AOzcM4GAgGgoFgIBgIBoKBYCAYCAaCgWAgGAgGgoFgYCMwsNUFXN7E9bdraXt/PWJOATcF3BRwg4FgIBgIBoKBYCAYCAaCgWAgGAgGgoFgIBgIBoKBpcTAVhZwW2/fpoCbG2kpb6T1+EtDdOSvdMFAMBAMBAPBQDAQDAQDwUAwEAwEA8FAMBAMBAMVA1tZwKVYO+Y7uGt9Izdv4KYonKJwMBAMBAPBQDAQDAQDwUAwEAwEA8FAMBAMBAPBQDCwlBjYygJuLSbTzxu4uZGW8kZqgTljw38xe/z5/9jlWnsOgrFhjCU3yU0wEAwEA8FAMBAMBAPBQDAQDAQDwcB2wUAKuM90Z9463515+51L+dD67lBjzfRHF3ojp958unvqtbP/P3t3Hm3ZddcHXgksku6spJt0J00v0hk6IYFO1gqLKYG0GUIAA6HBscFJSACbBMwUbGwwgzFgZssGbGPANjaejW3ZsqbSULNUkmwNpaGk0lQl1aTBkqo0Dxjw7vW9Vb+nXafufe++oaruu/X5465z7zn77LPPPp9z6+l7tvZtl+7Z0i65a5OwUmB9RhpIePv+W6/yWkUfpA9X/b3k/tOHDDDAAAMMMMAAAwwwwAADDMy8gQosK8BMmLnlwBVt8/7L26Z929tld29tl+7Z3C6+c1PbcPtlLdMRrDYzyNy3X/gPv3Cq6RNqioUv/tIvaR+97twVHdsUCm7EFcFZLXT7T37SJ8BdfXgtwJ3sy72nbxhggAEGGGCAAQYYYIABBubJwOkIcBfrP1MoCFuFrWeAAQGuAHexfwhs84cWAwwwwAADDDDAAAMMMMAAA88ZEOCaQkFgegYEprP2pSfAFeDOmkntee4PA32hLxhggAEGGGCAAQYYYICB2TIwawHuyfBhCgUBpZB6xgwIcAW4J+PLXp2z9QeG6+F6MMAAAwwwwAADDDDAAANrY0CAawSucHPGws0z4ctNgCvAPROcO8e1+UNFP+pHBhhggAEGGGCAAQYYONMNCHAFuAJcAe4pNyDAFeCe6f/4On9/gDLAAAMMMMAAAwwwwAADDExrQIArwD3l4d20OJWb3y8yAa4A1/09v/e3a+vaMsAAAwwwwAADDDDAAANra0CAK8AV4BqBe8oNCHAFuP4xX9t/zPWn/mSAAQYYYIABBhhggAEG5teAAFeAe8rDO18o8/uFMu21FeAKcKe1opzvCwYYYIABBhhggAEGGGCAgTPdgABXgCvANQL3lBsQ4Apwz/R/fJ2/P0AZYIABBhhggAEGGGCAAQamNVABbpZbD+1oWw/uaFsOXNE277+8bdq3vV1299Z26d4t7eI7N7UNt1/WLrzt0lOe9Ux7LpPKpc1pe84h55JzyrnlHHOuOeece98XVddZ9WbVy2MdvPnA5W3jPdvapXu2tEvu2rTuOnPV/SAsdc3vu6qtlwD39ed9qH3d87+9/avnfcOir2954YvaH16xob3/1tUHs9PWkT50P/rHngEGGGCAAQYYYIABBhhggIH5N9CHluMC3FHWOGcBbs7pjA9wz7t5Q/v273nRcaHUy37u5aNA6Bff8mut3g+/BMbtt1i49Q3f9u3tPVs+NHXQ9OaPva3955f94Cjg7o+dOl7yih89YX2VSXvT7vpsOdtfXqcjwH33Ddvba9/zR+27f/iH2kte/aqxYetvn/uBUWD7S+9929jtCVe/75Uvb4ttnzaAXW05Ae5sG/cd5PowwAADDDDAAAMMMMAAAwyslQEB7hk6AjdBbILSLIMpwWlC0EkB7XKD2NSZQLXC2NQ/DHrHBa7LDXCr3nF1rdVNop61/8I9HQHuD/78q9tLf+6n2w/8zCtHIewwQP2Tndvaf/yxH2lf8w3/btGAVoC79h7cY/qUAQYYYIABBhhggAEGGGCAgckGpg1wL7lr87qfQiHnkCkUjMC976pRUJtw9df++A2jkPXs9795FOCOG8ma6R4y+rUfSVtBbwW0ucn6UbIJVjPCtw+I+7LjjpM6pg1wK7jt63SjT77RZ61vTkeAW4Ht/3j9r40NcH/ubW9q//WnfrK94CU/MDHAfdd1W9oL/9sPTtxexzgVSyNw14/3Wbv/tIcdBhhggAEGGGCAAQYYYGB9GVg0wN2//eh0rXszXevmtuGOjet3Dtw7No7OYSHA3X+Gz4GbYHUY4GaEbELX92z90HGjc8cFuHWjJ7TN6NwEqn2AW9trOQxmE+D+5OtefcI0Dv0o3T6crbrfvuHdo+Nl/6rbcn196eR6zVqA+9ZtF7QX/ff/1t5wwZ8uBLQV1vYmF3ufYPhUBLd1DAHu+nPvu8o1Y4ABBhhggAEGGGCAAQYYWImB5Qa4F91+2brLzdLmhM/HjcAV4J4Y4FYomrC13gfVMMCdNPp1uF8PclyAO27ag2G5qqMC3LSl1lmu3y+9mQpwb7my/dBrf7696s1vaBXaTprjNj9Ulh8sm7S9wtVTsRTgrl//vrtcOwYYYIABBhhggAEGGGCAgeUYEOCe4XPgDqdQCJ6EtxXGJmQdBrgFLKHqt73ohQtTK6RsH/xWuSxT33D0YsoP9xkGuNk+3G+pz6mjP7b3s/elOEsB7m989D3txT/ysvbH12xaMsBNcPsjv/ra0Sth76kIaicdQ4A7e65917gmDDDAAAMMMMAAAwwwwAADJ8PAuAB368EdbfP+y9um/dvbpn3b22V3b22X7tncLr5z02ge3JPRjpNZ54bbLxu1PeeQc8k55dxyjjnX0evQjtb3RbXnrHqz6uW9V7ath3a0zQcuPzovxZ7MS7HptAWN/RQKfWBb67OscLUPcFN2qQB1uL3q76dEyLrUn7qzvkLXYYBb/T4cgZt986rtluvrC3KWAtz8qNnQbD4Pp0TI6NvMf5tlgtzh9klB68laL8BdX+Z9R7leDDDAAAMMMMAAAwwwwAADKzXQh5bJF0evgzvalgNXTAxwL7zt0nbBrRe383ZtaJ+4+aJ27o0XtI/dcH772M7z2jnXf6J99LpzR6+PXHtuG72u+Xj7yFq+jtWb47zv8g+1D+z4cPvQ1ee0j1z78VE7PnHThaO2pY1p66QAN+dY4W3Ou++L6s8zLsDtg9EKTRPmDn/ErDqolgle+x8tq/W1HAazFeBmex8aD8vV/tWWmkJhGPxWOcv18WU4SwFuH7BOmkJh3NQJCXBP51QKAtz1Yd13kuvEAAMMMMAAAwwwwAADDDCwWgN9aDkMcEejcPed+ENmmVP2gt2XPBfi3nThKMT9+A3HB7l9mFuh7lotU3deH9jxp+2DV320ffhTH2sfvf4T7eM3nN/Ou/miUdvSxrHz3+478QfMzrgAt+DUiNoEpxWK9qMR8wNl+eGwxQLcmkrhZ85+7Wgk47iRscNgtg9wqy1ZDsvVtmGAm/UJfhMajzte7Wc5m1+S6ynATVD7dc//9vb68z50wpQJ3/fKl49G5Z6O6RQEuLNp23eO68IAAwwwwAADDDDAAAMMMLDWBpYMcPcfDXCH0yhUiHv+LRuOG4mbEHchyD02Kjcjc9f8lbpvOL998KqPtA8lwL3m46NjnHvThe38XRtGAfMovB1Mn7Dxnm0L0yec0SNwAymh6Au//7+0D3/y3NE0BsMgtALdzJObcik/BJh1CXkTvNa2hLPD0bjZ3gfDeT88XvafJsDNMfu5d/sQutpgOdtflqczwO1H3C72vkbjJqRdrFyC3QS8p3pKBQHubBv3HeT6MMAAAwwwwAADDDDAAAMMrKWBE0LcY1MonDAP7t5M2/rcXLijqRT6kbg3XzSaUiFTGGRahXpVqLtWy6o3yw9dndG3Hx9N2ZBA97xdR0ff9lMnpM2X7t1ywvy3fYDb90Hft3M9hUJC1gpeE9ZOGmVbQW9GvFbn1OjXYVBb2yuwrfqHwexKRuAmKE7wO+mYgtz188W4HgLcxULbWdgmwF0/3ut70dI1Y4ABBhhggAEGGGCAAQYYWKmBPrwcO43CYBRuAtENd2wczS1bI3Ez32xG49aI3JofN3PkLrxuurAl3F3xq6/r5otGI39HUydce247Z+d5bTT69pYN7aJj896mjaPw9tiPly139G36c24D3ISdFa4O4dTI237EbI2WrRG3k0LUvq6qZ9Jxqmy2jztWbc8yx+9/BK3f5v36+/IT4F616KjeaQJiAe76c++7yjVjgAEGGGCAAQYYYIABBhhYqYFpAtxNx+bCrakU+pG4CXEz4rUfkZtAtw91K9xdq2XVnx8uO+e680ajfT+R0be7L2kbbr+0XXznphPD233blzV9QvpzbgPclWKxny+atTAgwBXgroUjdfg+YoABBhhggAEGGGCAAQYYOJMMrCrEPTYad8Ptl41+NKwPdCvYXQh3M+XCCl99XfU+P2T2sZ3nj0b5nn/rxaPRtxePG3m7gvA211+Ae58vgjPpi+BUnasAV4B7qqw5ju9wBhhggAEGGGCAAQYYYICBeTEwKcDdOmY+3ExFMBqJu3dLu3TP5oV5cTPqdTS1QgLdLtRNsHtSXndsbB+/4fx27o0XtvNuOfrDZTnupXdtWpjzdjRtwrjw9uCOVtNF9Oc+vJ4CXAHuwry/Qxw+r/wfAAGuANf9s/L7R9/pOwYYYIABBhhggAEGGGDgzDTQh5h5X+FmBbj5wa/+R80qxO2D3ApzM71CvRLqnoxX1X/uTReMRt9ecOslo9G/l9y1qV127AfLxoW3/Q+X5RyH5z30L8AV4ApwT4IBAa4Ad/hl6/OZ+ceH6+66M8AAAwwwwAADDDDAAAPLMzAMMxcNcfdvbzUv7glhbkbmjnvt2TwasZugd0WvMXWed/NF7fxdF4/m391w58bRcTfevXXUtk1p4/7to+A5we1yw9v4EeCehPDOjbm8G3Me+0uAK8CdR9fOyXcbAwwwwAADDDDAAAMMMMDAqTDQh7gLAe6hHS0jcWs0bkbiLozGPRbkJsztA92Euv0rI3XX4tXXmff5UbSMvs3UCZfs2Tw6xqZ92xaC27RzIbjtpk0Yjr6d1LcCXAGuEbgnwYAAV4A76UvXen/sMMAAAwwwwAADDDDAAAMMMLC4gT7AzftJIW5C0Qpyjwtzj416HY1+PRbqVri75sv929uFuy9pF912Wbt4NPp2c9u4b1vbvG/MqNtFwtuc5yQXAtyTEN5N6mzrF78556l/BLgC3Hny7FzOnO8u19q1ZoABBhhggAEGGGCAgVkxMAxxlwpya3qCPtA9Ve8vvO3o3LcXZ+7bY1MnbJly1G2d52L9LsAV4E5M9xeDY9viX+gCXAGue2Txe0T/6B8GGGCAAQYYYIABBhhggIGlDFS42S+PG43bTatQ0yvUFAsV6J6K5UW3XzqaPuHSPVtGUzYkON564IqjUz6kjd2rP5d6v1Q/CHAFuALck2AgAa7X6vtgqS8w2/1jzwADDDDAAAMMMMAAAwwwwMB8G6iQc7jsQ9Hj3h+bJ7cPdE/2+w23X9YuvmNTS4CbuW+3HLi8bT14xZLBbc5pGr8C3JMQ3k3T8crM95eL6+v6MsAAAwwwwAADDDDAAAMMMMAAA2tnYBjg9p+PC3C70a6nav3F+fGyOze3y/YeH+D2bRy+X44NAa4Ad6qkfzmolF27Lyd9qS8ZYIABBhhggAEGGGCAAQYYYICBowaGIehKPq821B13zPx42SV3bT46/+3+7W3LwSvatkM72riyWbfc6ynAFeAuG81ykSnvHxoGGGCAAQYYYIABBhhggAEGGGCAgbU0MCkcPR3rpwlwV3PuAlwBrgCXAQYYYIABBhhggAEGGGCAAQYYYICBdWvgdIS2/TEnBbirCW37fQW4bs51e3P2kL33FI8BBhhggAEGGGCAAQYYYIABBhhg4HQYuOSuoz9gtvGebW1zfsDs0I62fQVTJUxquwBXgCvAZYABBhhggAEGGGCAAQYYYIABBhhggIEVGhDgrrDjJiXW1nsSwwADDDDAAAMMMMAAAwwwwAADDDDAAANrZUCAK8D19IMBBhhggAEGGGCAAQYYYIABBhhggAEGZtSAAHdGL8xaJfTq8bSHAQYYYIABBhhggAEGGGCAAQYYYICB9WtAgCvA9XSFAQYYYIABBhhggAEGGGCAAQYYYIABBmbUgAB3Ri+MpyLr96mIa+faMcAAAwwwwAADDDDAAAMMMMAAAwyslQEBrgDX0xUGGGCAAQYYYIABBhhggAEGGGCAAQYYmFEDAtwZvTBrldCrx9MeBhhggAEGGGCAAQYYYIABBhhggAEG1q8BAa4A19MVBhhggAEGGGCAAQYYYIABBhhggAEGGJhRAwLcGb0wnoqs36cirp1rxwADDDDAAAMMMMAAAwwwwAADDDCwVgYEuAJcT1cYYIABBhhggAEGGGCAAQYYYIABBhhgYEYNCHBn9MKsVUKvHk97GGCAAQYYYIABBhhggAEGGGCAAQYYWL8GBLgCXE9XGGCAAQYYYIABBhhggAEGGGCAAQYYYGBGDQhwZ/TCeCqyfp+KuHauHQMMMMAAAwwwwAADDDDAAAMMMMDAWhkQ4ApwPV1hgAEGGGCAAQYYYIABBhhggAEGGGCAgRk1IMCd0QuzVgm9ejztYYABBhhggAEGGGCAAQYYYIABBhhgYP0aEOAKcD1dYYABBhhggAEGGGCAAQYYYIABBhhggIEZNSDAndEL46nI+n0q4tq5dgwwwAADDDDAAAMMMMAAAwwwwAADa2VAgCvA9XSFAQYYYIABBhhggAEGGGCAAQYYYIABBmbUwDoKcK9qWw/taFsOXN423rOtXbp3S7vkrs0tJ+ClDxhggAEGGGCAAQYYYIABBhhggAEGGGBgPg1sHmWhyUSTjSYj3X7v2o1wPmuthgqnUdsOXdm2HLiibdq3vV1299ZRwy/ds6V56QMGGGCAAQYYYIABBhhggAEGGGCAAQYYmEsDe7eMstBkoslGk5HOZoB731Vt271Xtq0Hd7TN+y8fhbhJnb30AQMMMMAAAwwwwAADDDDAAAMMMMAAAwzMs4GEt8lEk40mI12zQbP3XdXWbgTusQA3CXMamrQ5Q4Y3e+kDBhhggAEGGGCAAQYYYIABBhhggAEGGJhTA8lAk4WOwttDV852gJtkOQnz6JUg99AOL33AAAMMMMAAAwwwwAADDDDAAAMMMMAAA3NtIINaKxddy9G3qWtNR+Ae17hM1Dt6Zc4HL33AAAMMMMAAAwwwwAADDDDAAAMMMMAAA/No4FgOet/a/XBZn7OevAD3JDW4b7z3JweFftWvDDDAAAMMMMAAAwwwwAADDDDAAAMMzIYBAa6geU0nVXZjz8aN7Tq4DgwwwAADDDDAAAMMMMAAAwwwwMB8GBDgCnAFuAwwwAADDDDAAAMMMMAAAwwwwAADDDAwowYEuDN6YTwhmY8nJK6j68gAAwwwwAADDDDAAAMMMMAAAwwwsBoDAlwBrqcrDDDAAAMMMMAAAwwwwAADDDDAAAMMMDCjBgS4M3phVpPK29dTHQYYYIABBhhggAEGGGCAAQYYYIABBubDgABXgOvpCgMMMMAAAwwwwAADDDDAAAMMMMAAAwzMqAEB7oxeGE9I5uMJievoOjLAAAMMMMAAAwwwwAADDDDAAAMMrMaAAFeA6+kKAwwwwAADDDDAAAMMMMAAAwwwwAADDMyoAQHujF6Y1aTy9vVUhwEGGGCAAQYYYIABBhhggAEGGGCAgfkwIMAV4Hq6wgADDDDAAAMMMMAAAwwwwAADDDDAAAMzakCAO6MXxhOS+XhC4jq6jgwwwAADDDDAAAMMMMAAAwwwwAADqzEgwBXgerrCAAMMMMAAAwwwwAADDDDAAAMMMMAAAzNqQIA7oxdmNam8fT3VYYABBhhggAEGGGCAAQYYYIABBhhgYD4MCHAFuJ6uMMAAAwwwwAADDDDAAAMMMMAAAwwwwMCMGhDgzuiF8YRkPp6QuI6uIwMMMMAAAwwwwAADDDDAAAMMMMDAagwIcAW4nq4wwAADDDDAAAMMMMAAAwwwwAADDDDAwIwaEODO6IVZTSpvX091GGCAAQYYYIABBhhggAEGGGCAAQYYmA8DAlwBrqcrDDDAAAMMMMAAAwwwwAADDDDAAAMMMDCjBgS4M3phPCGZjyckrqPryAADDDDAAAMMMMAAAwwwwAADDDCwGgMCXAGupysMMMAAAwwwwAADDDDAAAMMMMAAAwwwMKMGBLgzemFWk8rb11MdBhhggAEGGGCAAQYYYIABBhhggAEG5sOAAFeA6+kKAwwwwAADDDDAAAMMMMAAAwwwwAADDMyoAQHujF4YT0jm4wmJ6+g6MsAAAwwwwAADDDDAAAMMMMAAAwysxoAAV4Dr6QoDDDDAAAMMMMAAAwwwwAADDDDAAAMMzKgBAe6MXpjVpPL29VSHAQYYYIABBhhggAEGGGCAAQYYYICB+TAgwBXgerrCAAMMMMAAAwwwwAADDDDAAAMMMMAAAzNqQIA7oxfGE5L5eELiOrqODDDAAAMMMMAAAwwwwAADDDDAAAOrMSDAFeB6usIAAwwwwAADDDDAAAMMMMAAAwwwwAADM2pAgDujF2Y1qbx9PdVhgAEGGGCAAQYYYIABBhhggAEGGGBgPgwIcAW4nq4wwAADDDDAAAMMMMAAAwwwwAADDDDAwIwaEODO6IXxhGQ+npC4jq4jAwwwwAADDDDAAAMMMMAAAwwwwMBqDAhwBbierjDAAAMMMMAAAwwwwAADDDDAAAMMMMDAjBoQ4M7ohVlNKm9fT3UYYIABBhhggAEGGGCAAQYYYIABBhiYDwMCXAGupysMMMAAAwwwwAADDDDAAAMMMMAAAwwwMKMGBLgzemE8IZmPJySuo+vIAAMMMMAAAwwwwAADDDDAAAMMMLAaAwJcAa6nKwwwwAADDDDAAAMMMMAAAwwwwAADDDAwowYEuDN6YVaTytvXUx0GGGCAAQYYYIABBhhggAEGGGCAAQbmw4AAV4Dr6QoDDDDAAAMMMMAAAwwwwAADDDDAAAMMzKgBAe6MXhhPSObjCYnr6DoywAADDDDAAAMMMMAAAwwwwAADDKzGgABXgOvpCgMMMMAAAwwwwAADDDDAAAMMMMAAAwzMqAEB7oxemNWk8vb1VIcBBhhggAEGGGCAAQYYYIABBhhggIH5MCDAFeB6usIAAwwwwAADDDDAAAMMMMAAAwwwwAADM2pAgDujF8YTkvl4QuI6uo4MMMAAAwwwwAADDDDAAAMMMMAAA6sxIMAV4Hq6wgADDDDAAAMMMMAAAwwwwAADDDDAAAMzakCAO6MXZjWpvH091WGAAQYYYIABBhhggAEGGGCAAQYYYGA+DAhwBbierjDAAAMMMMAAAwwwwAADDDDAAAMMMMDAjBoQ4M7ohfGEZD6ekLiOriMDDDDAAAMMMMAAAwwwwAADDDDAwGoMCHAFuJ6uMMAAAwwwwAADDDDAAAMMMMAAAwwwwMCMGhDgzuiFWU0qb19PdRhggAEGGGCAAQYYYIABBhhggAEGGJgPAwJcAa6nKwwwwAADDDDAAAMMMMAAAwwwwAADDDAwowYEuDN6YTwhmY8nJK6j68gAAwwwwAADDDDAAAMMMMAAAwwwsBoDAlwBrqcrDDDAAAMMMMAAAwwwwAADDDDAAAMMMDCjBgS4M3phVpPK29dTHQYYYIABBhhggAEGGGCAAQYYYIABBubDgABXgOvpCgMMMMAAAwwwwAADDDDAAAMMMMAAAwzMqAEB7oxeGE9I5uMJievoOjLAAAMMMMAAAwwwwAADDDDAAAMMrMaAAFeA6+kKAwwwwAADDDDAAAMMMMAAAwwwwAADDMyoAQHujF6Y1aTy9vVUhwEGGGCAAQYYYIABBhhggAEGGGCAgfkwIMAV4Hq6wgADDDDAAAMMMMAAAwwwwAADDDDAAAMzakCAO6MXxhOS+XhC4jq6jgwwwAADDDDAAAMMMMAAAwwwwAADqzEgwBXgerrCAAMMMMAAAwwwwAADDDDAAAMMMMAAAzNqQIA7oxdmNam8fT3VYYABBhhggAEGGGCAAQYYYIABBhhgYD4MCHAFuJ6uMMAAAwwwwAADDDDAAAMMMMAAAwwwwMCMGhDgzuiF8YRkPp6QuI6uIwMMMMAAAwwwwAADDDDAAAMMMMDAagwIcAW4nq4wwAADDDDAAAMMMMAAAwwwwAADDDDAwIwaEODO6IVZTSpvX091GGCAAQYYYIABBhhggAEGGGCAAQYYmA8DAlwBrqcrDDDAAAMMMMAAAwwwwAADDDDAAAMMMDCjBgS4M3phPCGZjyckrqPryAADDDDAAAMMMMAAAwwwwAADDDCwGgMCXAGupysMMMAAAwwwwAADDDDAAAMMMMAAAwwwMKMGBLgzemFWk8rb11MdBhhggAEGGGCAAQYYYIABBhhggAEG5sOAAFeA6+kKAwwwwAADDDDAAAMMMMAAAwwwwAADDMyoAQHujF4YT0jm4wmJ6+g6MsAAAwwwwAADDDDAAAMMMMAAAwysxoAAV4Dr6QoDDDDAAAMMMMAAAwwwwAADDDDAAAMMzKgBAe6MXpjVpPL29VSHAQYYYIABBhhggAEGGGCAAQYYYICB+TAgwBXgerrCAAMMMMAAAwwwwAADDDDAAAMMMMAAAzNqQIA7oxfGE5L5eELiOrqODDDAAAMMMMAAAwwwwAADDDDAAAOrMSDAFeB6usIAAwwwwAADDDDAAAMMMMAAAwwwwAADM2pAgDujF2Y1atJY9wAAIABJREFUqbx9PdVhgAEGGGCAAQYYYIABBhhggAEGGGBgPgwIcAW4nq4wwAADDDDAAAMMMMAAAwwwwAADDDDAwIwaEODO6IXxhGQ+npC4jq4jAwwwwAADDDDAAAMMMMAAAwwwwMBqDAhwBbierjDAAAMMMMAAAwwwwAADDDDAAAMMMMDAjBoQ4M7ohVlNKm9fT3UYYIABBhhggAEGGGCAAQYYYIABBhiYDwMCXAGupysMMMAAAwwwwAADDDDAAAMMMMAAAwwwMKMGBLgzemE8IZmPJySuo+vIAAMMMMAAAwwwwAADDDDAAAMMMLAaAwJcAa6nKwwwwAADDDDAAAMMMMAAAwwwwAADDDAwowYEuDN6YVaTytvXUx0GGGCAAQYYYIABBhhggAEGGGCAAQbmw4AAV4Dr6QoDDDDAAAMMMMAAAwwwwAADDDDAAAMMzKgBAe6MXhhPSObjCYnr6DoywAADDDDAAAMMMMAAAwwwwAADDKzGgABXgOvpCgMMMMAAAwwwwAADDDDAAAMMMMAAAwzMqAEB7oxemNWk8vb1VIcBBhhggAEGGGCAAQYYYIABBhhggIH5MCDAFeB6usIAAwwwwAADDDDAAAMMMMAAAwwwwAADM2pAgDujF8YTkvl4QuI6uo4MMMAAAwwwwAADDDDAAAMMMMAAA6sxIMAV4Hq6wgADDDDAAAMMMMAAAwwwwAADDDDAAAMzakCAO6MXZjWpvH091WGAAQYYYIABBhhggAEGGGCAAQYYYGA+DAhwBbierjDAAAMMMMAAAwwwwAADDDDAAAMMMMDAjBoQ4M7ohfGEZD6ekLiOriMDDDDAAAMMMMAAAwwwwAADDDDAwGoMCHAFuJ6uMMAAAwwwwAADDDDAAAMMMMAAAwwwwMCMGhDgzuiFWU0qb19PdRhggAEGGGCAAQYYYIABBhhggAEGGJgPAwJcAa6nKwwwwAADDDDAAAMMMMAAAwwwwAADDDAwowYEuDN6YTwhmY8nJK6j68gAAwwwwAADDDDAAAMMMMAAAwwwsBoDAlwBrqcrDDDAAAMMMMAAAwwwwAADDDDAAAMMMDCjBgS4M3phVpPK29dTHQYYYIABBhhggAEGGGCAAQYYYIABBubDgABXgOvpCgMMMMAAAwwwwAADDDDAAAMMMMAAAwzMqAEB7oxeGE9I5uMJievoOjLAAAMMMMAAAwwwwAADDDDAAAMMrMaAAFeA6+kKAwwwwAADDDDAAAMMMMAAAwwwwAADDMyoAQHujF6Y1aTy9vVUhwEGGGCAAQYYYIABBhhggAEGGGCAgfkwIMAV4Hq6wgADDDDAAAMMMMAAAwwwwAADDDDAAAMzakCAO6MXxhOS+XhC4jq6jgwwwAADDDDAAAMMMMAAAwwwwAADqzEgwBXgerrCAAMMMMAAAwwwwAADDDDAAAMMMMAAAzNq4LQHuNvuvbJ56QMGGGCAAQYYYIABBhhggAEGGGCAAQYYmEUDqxk9uxb7rlmAO4udq01uegYYYIABBhhggAEGGGCAAQYYYIABBhg4HQbWIrxNHcsOcE/HyTqmm4wBBhhggAEGGGCAAQYYYIABBhhggAEG5sHAcoPdJQPceegU5+DmZoABBhhggAEGGGCAAQYYYIABBhhggIFZNLBUoHtCgDuLJ6FNbi4GGGCAAQYYYIABBhhggAEGGGCAAQYYOBMMDAPdhQD3TDh55+gmZ4ABBhhggAEGGGCAAQYYYIABBhhggIH1YKCC3LPWQ2O10U3FAAMMMMAAAwwwwAADDDDAAAMMMMAAA2eiAQHuveCfifCdM/cMMMAAAwwwwAADDDDAAAMMMMAAA+vBgABXgNvWA1Rt9IXKAAMMMMAAAwwwwAADDDDAAAMMMHAmGhDgCnAFuAwwwAADDDDAAAMMMMAAAwwwwAADDDAwowZOe4C79dCO5qUPGGCAAQYYYIABBhhggAEGGGCAAQYYYGAWDZzuUb9rHuDOYidrk5ufAQYYYIABBhhggAEGGGCAAQYYYIABBk6FgbUOfFcV4J6KE3YMNxYDDDDAAAMMMMAAAwwwwAADDDDAAAMMrGcDqwl1pw5w13MHabsbnAEGGGCAAQYYYIABBhhggAEGGGCAAQZmycC0oe6SAe4snZS2uMkYYIABBhhggAEGGGCAAQYYYIABBhhgYJ4MLBXkjg1w56kDnIsbmgEGGGCAAQYYYIABBhhggAEGGGCAAQbWg4FxYe5xAe5JP4mDO9pWL33AAAMMMMAAAwwwwAADDDDAAAMMMMAAA+vZwKGTG4j3Qe4owF3T4HY9d7y2++JggAEGGGCAAQYYYIABBhhggAEGGGCAgdUYWMNwN0HuWasKb1dzIvZ1IzDAAAMMMMAAAwwwwAADDDDAAAMMMMDAmWBgFaHu8gPcM6FDnaMvDgYYYIABBhhggAEGGGCAAQYYYIABBhg4GQaWGeZOF+CejIYuUueWA1c0L33AAAMMMMAAAwwwwAADDDDAAAMMMMAAA6fSwCn//a4pwtzFA9xFQtblnMyp7GTHclMzwAADDDDAAAMMMMAAAwwwwAADDDDAwKkwsJyMdNGyiwS54wPcFQa3p6JTHMPNxwADDDDAAAMMMMAAAwwwwAADDDDAAAOzbGDRsHax7HVMkHt8gLvYzmO2zXInaZubmAEGGGCAAQYYYIABBhhggAEGGGCAAQZmwcCyA90uyH0uwB0T0I6r+GSe8Ob9lzcvfcAAAwwwwAADDDDAAAMMMMAAAwwwwAADp9PAycxAx2WuY9cdC3HPGrtxTJi70kafzo52bDc6AwwwwAADDDDAAAMMMMAAAwwwwAADDJxMAyvNTafNZZcMcJfbgJPZGep2szHAAAMMMMAAAwwwwAADDDDAAAMMMMDALBtYbp66VJA7McCd9kCz3Fna5mZmgAEGGGCAAQYYYIABBhhggAEGGGCAgdNpYNqcdVKQOzbAnabS1Z70pv3bm5c+YIABBhhggAEGGGCAAQYYYIABBhhggIH1YGC1eeg0meu4EPe4AHepSlbSyPXQ+droS4IBBhhggAEGGGCAAQYYYIABBhhggAEGVmJgJZnpUjlsH+QuBLhL7TRNQ1ZygvZxYzDAAAMMMMAAAwwwwAADDDDAAAMMMMDAPBmYJktdKo+tEHcU4C5WeJqDrVnn7tveNnnpAwYYYIABBhhggAEGGGCAAQYYYIABBhg4nQbWaPrXabLVxbLZhLhnLVZgsQOsKLQ9nZ3u2G56BhhggAEGGGCAAQYYYIABBhhggAEGGFgLAysIeBfLWhfLaMcGuItVNnVwuxYdoQ43FAMMMMAAAwwwwAADDDDAAAMMMMAAAwysBwNThrqLZa/jgtwTAtzFKlgyvD0FHbnxnm3NSx8wwAADDDDAAAMMMMAAAwwwwAADDDDAwEoMnJIpXJcIcxfLYIch7nEB7qQdT0Zwu5LOtY+bkgEGGGCAAQYYYIABBhhggAEGGGCAAQZOh4EVBb8rDHL7EHchwF1ReDvliNvT0aGO6UZmgAEGGGCAAQYYYIABBhhggAEGGGCAgZNpYOpQd5Egd1IuWyHuogHuxJG3UwS3J7Nj1O3GY4ABBhhggAEGGGCAAQYYYIABBhhggIFZMjBVmDshyB0X4h4X4I4rsNLwdi067bK7tzYvfcAAAwwwwAADDDDAAAMMMMAAAwwwwAADp9LAWmSbSwa5ywxxz1qL8Ha5J3YqO92x3OQMMMAAAwwwwAADDDDAAAMMMMAAAwwwsBYGlpuDTgxzlxHinhDgLnfk7TSNXovOUYebjAEGGGCAAQYYYIABBhhggAEGGGCAAQZmycA02ehqQ9zpAtwxc95O07hZ6kxtcXMzwAADDDDAAAMMMMAAAwwwwAADDDDAwMkwME1WOjbIHTMSdzhjwnEB7tjRt8sMb9eiAy7du6V56QMGGGCAAQYYYIABBhhggAEGGGCAAQYYOJUG1iLbXCzMXUmIuxDgno7w9lR2vmO52RlggAEGGGCAAQYYYIABBhhggAEGGGBgJQaWG+yuZYg7OcBdxsjbaU9gJZ1jHzcVAwwwwAADDDDAAAMMMMAAAwwwwAADDMySgWnz0ElB7jQjcWsqhVGAO83o20kHm6axs9S52uJmZ4ABBhhggAEGGGCAAQYYYIABBhhggIG1MDBNNjopVz0hxJ0wH+5Zbc/tzUsfMMAAAwwwwAADDDDAAAMMMMAAAwwwwAADs2dAgCvAFuAzwAADDDDAAAMMMMAAAwwwwAADDDDAwIwaEODO6IXxtGP2nna4Jq4JAwwwwAADDDDAAAMMMMAAAwwwwMCpNiDAFeB6usIAAwwwwAADDDDAAAMMMMAAAwwwwAADM2pAgDujF+ZUJ/mO5+kRAwwwwAADDDDAAAMMMMAAAwwwwAADs2dAgCvA9XSFAQYYYIABBhhggAEGGGCAAQYYYIABBmbUgAB3Ri+Mpx2z97TDNXFNGGCAAQYYYIABBhhggAEGGGCAAQZOtQEBrgDX0xUGGGCAAQYYYIABBhhggAEGGGCAAQYYmFEDAtwZvTCnOsl3PE+PGGCAAQYYYIABBhhggAEGGGCAAQYYmD0DAlwBrqcrDDDAAAMMMMAAAwwwwAADDDDAAAMMMDCjBgS4M3phPO2YvacdrolrwgADDDDAAAMMMMAAAwwwwAADDDBwqg0IcAW4nq4wwAADDDDAAAMMMMAAAwycJgMXvfPt7fnf8PXt3qsuP+4a/MzLfqj96y//snbtJz523PpTHRo4nqCKAQYYOP0GBLin6R9p+E8/ftfANWCAAQYYYIABBs5MAwnKEpglIJvGQAK0BGmLlU8I9wVf8AUTX8MgLnUtVj7bUudjN17fXvI9LzqhbLZV24fnU/v0ZVL2ra/75VE9w/V1flmf12LtSh113FrW/uNCyCpTyz6UnNSeOp/F2pFtk45X7Zl0vZY6xzpuf82qzv78q52TjlPnvNTyo29984KvpVzUtRvXnrStb3Mdt9pZ5zVpWf358++/uZ318usWXv/hLTcuvO/X53223bPztvb3XnP9xDK1T8pWmxars8qnHVW+X27bfmv7Wz9z/eiYOXa/bfg+x0nZ7FPn9f4Ntyy6z3LrT3sXq/ORW29r/+o3bzihzKT21PFTZ17VH+OW1Ud1jfNdkfs//TBuXdbXfVcOct2vO+/jo/upfMfX9/z7b194qDDcp/atZe9uuG+1o+qO8b6ddc2yPduqfNVdy/4Ytc80yxiofpqmfMqk/LhrGm+5luUudffl8j7rUkf/Pp9zXf/dG29o8VAmxl3T2j/Lfvv/87qdLa9+Xd5X+WnPrcplv5PVL3UMy7X9G0uAK8Bd9B8vN9za3nD6U38ywAADDDDAAAOn30AFBJOCt6XCigoUsqxQokLBCtj665zjDMOHrKvArC+b94vVleOlrh/7/v86NmhNvRXu9e1LvXVewzbmc8KaYXsqCJ7UT6mz+rL6ZLGyKZ/t1ReT2lN1Vl3Vjj70ybZhe1N/36ZJ26tc9VNdw6yf1KZqQ1/nYtepjjHtMsfNNc251z59X9W6WubY6cdv+fqvG+ugrkfqXW5/JtRJSPUHn9i1EH7WcWuZ8CdlEkRVgFthUH2uYKnCqvpcdaxkWXVXiLVUndm+VICbMlXfUss+rFtqv2pbBbKpu/oo5573WdfXmfX5nKAuoXgFhVm/WD+Os1w+e9+pJ5/r3qqwtQ9wa7/cb1lf+9R9m8/9K/X126otdYzyV+3I+v5ernsrZvt6+mOs9H36cqlr2l+XXLPsk2vTX5dcw+//o6MPKyrAzfVI+f4aZZ+67v37an+ty74Jc1Nvbcuytvfrctxhudqe9b/1kfEPOqrMuGWOc7L6ZdzxZmVd3UM5/7Qp1y732rj+nXSNTue5CHAHXz6n82I49vH/EOgP/cEAAwwwwAADDDCwFgYSHFSgtdhyGB4keEjQ0IdqFXj069LGCj2yHLZ5XBCXdX0Y2O8zrCufKwzJuQz3q4CkyqSurEsom9GdVfcwaKn1k5YVrPT19mUrqKn21Odh+Ry3Aptsq36u65Lzq3Po31c91Y6qI23ItjpufV7s2mZbXz77VHvTjjqvvk1ZV8ce1p2wNe0Zrq82V33LXda1H9Y7bH+O0/dHjpO2V9/2x62+rbbVOfX79/2Z8Coh1Y+/66aFILcPexJQ5XWqA9yELP3I2/pcgVmdc7W/ArZxAW4FwRWYDcPSqquWFXhlWSFQ1Vtlsqx6h9sqKEooXuXTzmG52jZuWccdnm+Z7c3kvh/nM75Svvye/fM/O/qeqAC36ki5vg2TbKXMuG3ZPxZTf9U5XGb7tg+9f9TO4b3ZH3ul7+PjS35l5yh4nVRHH9SWp9563sf5+RtvOSHA7cvHT8oN963PFRhWO+pa1vZ+2V/fuPmJd920cC3Ka9WT8DbtqM/TLE92v0zThtNVpvq9rkfdl+P6MGXHheynq+05rgBXgLusm/10YnVs/wHHAAMMMMAAAwwwsFoDFV5VmDAMKvr6Kxip4Cvb8j77ZltfNvVUneOWw2CtD8z6evK+6qq21THzOe8TzCSgyfuUHwZ0w/rqc51P1dvvmzZXfXWM1Jtj1fqqJ8us6/epbdWW/nxTtj737/v21DlnXdUxrh/7dX3ok3r7z9WeWo7bPk2Am/3LTOqo+qrtWWZdln0gWuVWs+z7qq+n+ifbq9/6fqn31R9VvtZPWlb5hFr1v2tXwJWgMSFWQqoETHkNA9w+hBr3vg+m+vOZ5n32TZ3DOsYFpilTwWj/PueSOhLe5JX3WZcyCeCyLvtlWUFPHa/KZ5l1de61f86h9qljL3VefXuqbJ1Pf651vGyr/q/yWcZe3V9lOjZyneteLydZpvykALc89/XXMSa5yfo6/nC/fC5/VXfaNu5eSdvqu23SsbLvuGMM1+VapN/qmqY/J71SJvv3I11zbWp9tiXgG47Arfr7Y5ePrOvf92WW837YjtSZdamjzjEupq2z9kk9cTqpT7I+ZVLvcvulb0vq+Irf2Nm+7Nd3Lty7f3rxLe3v/tz17XNecV172R/f1J694+jfNVn/+a++vv21V17X/u0bbmhff/bREf7p+5p6InWnzrr/su+PvvOm0T7ZN3WkTL8+9aXMHdcdP9VL+jF914/A3XP97lFb/+orrmtf+/obRm0fF+7253gq3wtwBbhT3+ynEqZj+Y8zBhhggAEGGGCAgZNhoIKMCggqtBp3rAruKpyocGRc+DBu/8XWJYiYdOxqY5apo9qR/10+bcm+eVW7KiDJunqf8xu2MwFK1leQUu2rfbJ/1mWZfbM+y1rft2XY9tRZ7Um5Ooesr37L+9RV5fI57anRglXnsD11/v35pJ4qX23uP2dd/xqWz7a+XVW22lR9n/V1/DLTL6tvsqz3Vdc0yzrX1PnLL//J0Tn19Q/f5xjVxrxPO/v+7N9Xf9Qxqn11PpP6M8FGApKEJlnWVApLBbgVLFUImYArfVDBZn3OcrHgqN/2U+852pbhCNkcqw9KE+pkv6xP4JJteZ9jVbl8TpmcT85rWGfafeMnd4/W1/Zq87hrWeeZOr/wF64fHWdcnVmXMqkzfVF1VXuyrHVZVr117Cyzb9ZnWetrn3io616mc23zyrVPuaGTPsDNvkNn9bnM1LGWWpat7F++qk1pZ/ZPnbWt6qsy2W/cvTcsX/sttazgdVK59H3sVJ/nOo17ZTR6H+De9MndC7bq2tZ1Hrf/83/3qLdsy/HK67iy5XXYpuxT7c35ZHss9KYmnedw/cnql7SpP1banH658oqjo4SvuOLW9k9/eWfbfvmt7YGbb2tf89s3tDees6vtvHp3+ye/tLNduOnW9pk7b28/+76b27/+raUD3F/8wM2jsPfwLbe1S7fc2v7Zr+wc1ZUg9yt/Y+foGLddu7v9y1/b2T5+2XMPZtKu6sMKcJ+6/fb2TW+8ob3qPTeN2rBh863tH/zi0fmz+3M6ne8FuIN/2E/nxXDs4//I0h/6gwEGGGCAAQYYYGAtDVRI8O6zf3sUlCVIGBcm9CFEBRmTlgkbKlDry2R96u7XVciScxpu68vV+z7IyPt+fR/K9e+rv8adVx0zyyqX5XD/2jfrE5zUcfv21z4VrPQhUl933ld/JlBM+aqn+i3/m3XWVcBT5aud9bmOlTqzrQLKcZ+HbajyO88/d8mQtM43y+xXx0/76jqkzWlPXrdvvGRUZ7V/eOylPldfZv8y2l/7On6OdejK565J2pZyfX/276t/av+UT1vq86T+TEiUoLCC24RXCZXWKsDt+yPHqgBssSCqwqwKQbNfBV19fXlfgXGCo5SvcnWsOp98rn370Dfr6njDsLTK17KOlXPo66vttawQtj/HrMt+w2MMj137Zn3Op0K/Oq+46c3mfVxkfZkcOukD3Ey1UlMolOvyVzaH9U/63N8vqTevSWWzPu3LsapMHbf6bZzV2jbNsq5r9dm4ZYV5fX25lv36CjzrGmSZ8im32HXv66zyfb1ZV3WPKxvDOVa1J8tpz2FYX//5ZPdLHSvn2vt+7Qdubj/wtuemhPiTC3aNtqdcQu4/OzYaN+2rUbf9+9SbsrkPDtywu33d2TeMgtms/+ye29t3vunoqOuEtQmEt26/tf3FXc/9HVX3a12D9G0FuBl9+6W/trPdes3u0bVNWVMoCEwX/pEo1JbP3VD6Ql8wwAADDDDAAAMMnAwDFUT0gVvChlpf4VaOXaFBv26xNiWEqOCsD+Cyf4VkfZnF6pq0rdpUx0m51J/PCT0S1vXt7Y+dsrV/gpIK9upYwz6ofbM+7e/rHe7Tn1+FMFn27cw+Of/aXttq3Xf/+28/rny1p8pPWvbnkTZOKlfr+/JpUwVHfWhUberXVXuyLeur/fU+DwQyOjrXvvpnOcu+/vJTbe6X6esEuAnfcrycc9rQl+nf1/lW/f22ce+rfEKiBCQJbBMSJoDJcqkAd1yw1K/rg5z0T8KTBFQVRNbnClf6PqxtaVeClWGQVXXUPv322lbrMi9qravyqb9G36adFXBlnyrTLysI6s9v+L4/37yvtqeefv8K6ar+Otfav/bN+tRR66t8XJbJ8lMPqWp9XybvJwW42RZXw3u+6s32Ou6kZX3X9N8N1Y7sk7prW5Wthzj9fZeytb3KTzrmYutzLRPSpf8WK1f9PryOdS/0I3CvuPzoSO0qW2XiqtbVsr9e8RTfWVfbxy2/4003jkb8JkBMu2q/ce3vpzgYt33SupPRL8M+rnOtNow77/TdT737puNc96Ft/z71pM7sk1HQuXeG/Ze+Smj7jvN3tX/8SzvbXz82hUKmVaj7rr5j0t4KcIf9kbICXAHuol8aBdvSf7gwwAADDDDAAAMMMLA2Bip8qICqAq0KKWp7fR5uX+o69OFI1ZUgog8q+jJVX46TEWrZp9ZVgFKfa9kHdRVmZL+83/bB900McDM9Qfat/ROWJrzL56p7eL7V7qxP/dUvVT7L2qfaMu78+vJpa0LHmgYin7NPBYn9MaruWjcuxMm2up7jtvfHzvu+fG2r4/d9MW5dtaf6scKoWp9zqLZW3ctZVj05dvol9fdtGp5ftuV4edW2rMv+1ba8r/6p+quNtU9du2H/JACpQCpTA2TEah+SJITJK2UScgzPtYKwlBluq88VpKTeHC/rExDneFlXAUuVrzrrmNlnGMJW2SwTxqSumtogn7NPnUe1rW9HbVtsWVM6VJmqpz92tbXflvdpe0Y159zySh0Jk7Psz3e4f+2b9amjrzfH7a9776fe5zpXQJp12adMZN/h51gqO3VeWVf36rhluUv53leNTu/ri8PeXvaptuY4dcxhXam33zbN+1z3caFqXb++79O/6duYiJVck1oXm32Am/U5fsrllfc5Vsr07Rquq3r7Mtmn6u7Xpx1pT46V/WrkeN/2BIwrCRlPdr/UeaQPe68/896b24+987kRuH25xUbgZk7cI8e+a1Jn7oN7du5uz3v9DS1THVQ945YHb7xtNJ1CplWo+73ut/RtBbhG4AprF4U0Dpd1a/NHun7UjwwwwAADDDDAAAMxUGFCAoSMShsXPmRbgoOEEAk0KqwYhgmTTE0KUPqgoi/Tt6sP/ypUybo+8KhzqCAm2yt4SV21XwV0WZf3KZdzynln39SZQCXv+wCl9s+ovJStdmd9yvX1Vh/UPlXP8Pyq3HCZuirsyT5p47CfK8ypc+zPv0Kc1FN9VG2p8sNjjvtcx6g6qsy4NvUe8r7an32qfPVD1bOcZbU/fVFBW94PX/0xcv55pT8yd27alHB8eD5pR51r9c9S/ZmwqILPCh2HYWlCmWxLIJIwpA+VJr3vR5pm/5Trw520NYFKPyq3+rHW1zHTxmGbqmy/TP1VLvvkmBXe9OX69324Vcfrt+d9tWfY/knb6nzTlt/6yHPz+mbUb47RH6fqTjCXstk327M+y+Exc13LZF3ruqdiJO/7Mmljma77rwymXP9+eN7jPg/rHvqq49e+aVNvOeuH7a6yw7pq/TTL3kiuafqy9qsgL2VqXfo3fZttWR8n/bqUq2uQZT6nXNXRu+nvgf56pWxC/GpLjpHtw+Ok7rSjtlV7qq21TJnlBripq+6Jk9Uv1b46v/p82dZb2//92p1t07ajUxu864Jd7c0f39V2X7u7ffGvjJ8DN1MafNEvH93nydtub9/z+89997z8T24azYGb+XQf3X1be8W7b2rXXrW7Zf0L3nzjaF22ZT7cBLiP7T46726mbkib0u8V4Gb6hox8NgeuIHfhS6HgWvoPCgYYYIABBhhggAEGTo+BCigSJAyvQQUG44KwYdn6nABjGLYltEj9/foKWer4FZ5UPbXs66vwo983o3YzsrbKV/iR/bKuziH7ZHRuwpLaP9urfJ1/tafKVMCS9dm3ytXxsqx9KogZhjh92f596qrj1HnmHPsyw/V1PnWs+lzXaNpj1zFyvLouSx07+6TN/bEnQUgOAAAgAElEQVTqfdannn5Zx6g+Tttq3aRl9WXqTXvSP3276nzr/KtNOW7e9+czztRy+zMBTx8oDttd4dekMglFEsL2wVVfR0KdPuCa9L4PfKvOOmYfQvV1D9+nDRVWZZ/FAtw6r5TJsROy9W1Lu6v+ak+/ffi+zr/qTTtqGopqU+qr4K/KV91VJutz3lmfZZWrttT1LdOTDJTbshk3de/kfbaX51qfsnWcScv+/kiZvj15P2m/fn3fpn593Rtlvd+22Pv0eYWkVa6uf65T9W1tyzL9m77Nvimb9ynb93ddgyyzT8pl9GzK1Cjdvs5c235UbrUhlvK+PGefrOvbVW7KVe+vjpF2VABZ6xZbnqp+qTakzX3/ZZ7at5+3q/3dn7u+/dVXXDcKVjPyNeUTsH7+q69vf+2V141C2a8/++gDouzzSx+8ebT+b/7M9aNgNiNycy4JbV/69ptG27Lfj77zppapEh6+5bb2XW++8YT1Oc7ZH93VPucV17XMxzvsv7Tly35956htX/v6G9pX/MbO0f1Z53O6l37ETLg81Rfq6Ybq+KfnP270u35ngAEGGGCAgXk0sFQoUMHGtOfehx19EJHQoUK3KrPtQ+8fraswZdIx0obsW+XzeVi2D0oqFE2ZnF9NzZD9+m1VR7UzdeR9yme/tLkPgobvs32pMv0+7/udsxeCoX79pPepu0LntCft7QPMjFCtfdP2bK821bkttkxdqaPC0mHZ6tPq7zp2Rrn2AVeO2V/Dvj9TZ+oZ1+/D4+Vz3/9VTx0/26sNOWbtn/c1j2n6o/qiyvZ9tNz+HAZLdcwKGvtAaRgy1bZJy9Td79OHO3WcLBP8JNzKr9WnzKT6hut/92O7RuHrcP2kz6k7x6rtfaDWt6cP3rI+wc+kkHq4rQ+Jcqw+pKtjVN/mOHmfUC77LXXu2d5b6/3U+95C+Shf+VxzKveO0q5J91XWV5217P2lvhy7vmerzLhl7VdtrXZlfZWf9j6qvqxlf11zfdO3ta03ONyWMimb/at8XdOUTZ/X+ryvBw11DctSLat8jpnRshXi9+2p+uo42Sfls8y6YXvyeVh/1bHU8lT0y1JtWGp7+jJ9lT5YquyZtF2AK8B1QzDAAAMMMMAAAwwwwAADDKyhgUnh13LChmEAVuHWcupQ1kM4BhhYbwYEuOPNCnDX8B/p9XZTaO/4m0K/6BcGGGCAAQYYYIABBhhggAEGGGCAgVkxIMAV4HrSzgADDDDAAAMMMMAAAwwwwAADDDDAAAMzakCAO6MXZlYSfu3wtIkBBhhggAEGGGCAAQYYYIABBhhggIHjDXz2rtvaYq+17C8BrgDX0xUGGGCAAQYYYIABBhhggAEGGGCAAQYYmGBgsaB2OdtWGuoKcCdcmJV2qP2OfxqhP/QHAwwwwAADDDDAAAMMMMAAAwwwwMB6NLCccHY5ZZfbFwJcAa6nKwwwwAADDDDAAAMMMMAAAwwwwAADDDCw5/ZFp0WokPYv79zdpnlV+cWW04S5Alw3p5uTAQYYYIABBhhggAEGGGCAAQYYYICBM9rAYiHruLD2L+64tS32GrfPYsdYLMgV4Lo5z+ibc7Gbwzb/ewcDDDDAAAMMMMAAAwwwwAADDDAw/wbGBavDAHZSWPvnd9za+tekcsP6xh1zkjUBrgBXgMsAAwwwwAADDDDAAAMMMMAAAwwwwMAZZ2BciNoHrcMwtg9q8/4zt98y9jUsN6ynP8a4NgyDXAGum/OMuzmHN4HP8/8kzTV2jRlggAEGGGCAAQYYYIABBhhgoDcwLjitYLUPXPswtgLbP7ttV5vmVeX7Ovq663jj2tK3VYArwBXgMsAAAwwwwAADDDDAAAMMMMAAAwwwcMYYGAamFaRmWQFrha4VwlZg+9Sdt7fH7rmnHbn3gfbwA4fbpx840j796UeOvh44MlqXbSmTsrVf1VP11nH6Yw/bVSGuANfNecbcnIXe0hM3BhhggAEGGGCAAQYYYIABBhhg4Mw0MAxJK0CtQLUC1gSuFb4+e9sto0A2ge1Dnz7SHjnyeHviiafaU0893Z555pn27LPPjl55n3XZljIpm30S5qaOqi9113HquNWOYfvi9Kzt913VvPQBAwwwwAADDDDAAAMMMMAAAwwwwAADDMyzgW33Xtn619ZDO9rodXBH23pwR9ty4Iq2ef/lbdP+7Udf+7a3Gw/e2u5/4HB7+Mijo3C2wtpplwl0s2/qSF2b9h2re//20bFyzBx79DrWnr6NeS/AFWAL8BlggAEGGGCAAQYYYIABBhhggAEGGJhrA8NQtA9vE6IeF97u296uPHBNO/jA/e2hw4+sKLgdBrwJclNX6kzdFeQmMK7jTwpxBbhuzrm+Oef5qZFz81SUAQYYYIABBhhggAEGGGCAAQYYWNrAcsPbaw/cOJrT9vHHn1yYHmEYyK70c+rMnLk5xrQhrgBXgCvAZYABBhhggAEGGGCAAQYYYIABBhhgYG4N9AHuUiNvrz+wqz3w6SNrMup2Usj75JNPj46RY00T4gpw3Zxze3N6ArX0Eyh9pI8YYIABBhhggAEGGGCAAQYYYGCeDUwV3u7b3jbes61du//Gkx7eVqibKRUSFOeYOXaC3EnTKQhwBbgCXAYYYIABBhhggAEGGGCAAQYYYIABBubOQB/e5v2kHyxLgLpj/6dGUxtkdGyFrCd7mRA30ynk2KMQd8IPmwlw3Zxzd3PO81Mj5+apKAMMMMAAAwwwwAADDDDAAAMMMDCdgT7AHU6dkNGum/ZvH418vezuraMfFzsZc94uFQLnmPlhs7RhOJ1C/aiZAFeAK8BlgAEGGGCAAQYYYIABBhhggAEGGGBgrgwsJ7y94cAt7aHDj5yykbfDUDfHThsmhbgCXDfnXN2cnkBN9wRKP+knBhhggAEGGGCAAQYYYIABBhiYZwMnBLgHd7SMaN1y4IqFkbejaQvu3t7uf+Dwkj9atmHDhvbSl760fdM3fdPYV7alzDCcneZzplJIGzbdfXQu3hqJm7amzQJcAa4AlwEGGGCAAQYYYIABBhhggAEGGGCAgbkyUAHupKkTEt5mxGtGvj585NFFg9cEs1/1VV/VXvOa17QPfvCDY1/ZljIrDXHThhqFO5wPV4Dr5pyrm3Oenxw5N09GGWCAAQYYYIABBhhggAEGGGCAgaUNVHib5fCHy/p5by/du6UdeuDBJUffZnRtAtqlRtOmTMouVW7c9ozCTVvSpn4qhYzCFeAKcAW4DDDAAAMMMMAAAwwwwAADDDDAAAMMzI2BcQFugtD64bKMcE1QesU9V7cHHjy8ZOCaaRMy8rYPXn/4h3+45dWvS5mU7dct533akjalbf0oXAGum3Nubk5PoJZ+AqWP9BEDDDDAAAMMMMAAAwwwwAADDMyzgRPC20PPzX07CnD3HZ1nNiHpzv23tMNHHlsycB0GuFdfffVouoRMmZD3FdKuNsBNW9KmhQB33/ZR6CzAFeAKcBlggAEGGGCAAQYYYIABBhhggAEGGJgLAycEuGN+vCxTFFy6Z3Pbe/+B9sQTTy0EsBXEDpfDAPeXfumXWv+q8qsNcNOWtClt66dREOC6Oefi5pznJ0fOzZNRBhhggAEGGGCAAQYYYIABBhhgYDoD4wLccdMnXHLX5qnmv0042we4+/btG42+/cM//MOW13d+53cujMLtA9yUy6vC3WmWNQ9u2rYwCnf/dnPgwj8dfv2knxhggAEGGGCAAQYYYIABBhhggAEGZt3AogFuN33CxXduavc/cLg988wzS4asfYCbeW8T2tYcuHmf0bgJaPsAN+szxUKWCXqnCXDTlrQpbVsIcPcJcI0+NQKZAQYYYIABBhhggAEGGGCAAQYYYICBOTFQAe7WzH3bzX+7af/2tmnf9tHUBJmiICHppz/9yFTBah/gJpTtR9bWiNws+wA3nzM/bsLb7HPuuedOday0aRTgdtMomEJhTnDO+tMP7fOEjgEGGGCAAQYYYIABBhhggAEGGGDgZBqo8DbLCm+3HtzRMoXCMMDdcMfGqQPcl770pe01r3nNkgFsyqTscLRtRuhmJO5w/bjPCXDTtn4eXAGuANcTJgYYYIABBhhggAEGGGCAAQYYYIABBta9gUkB7ub9l48C3I33bBtNTZA5ZhOSTjuFwoYNG0ajaBPQZpTtuFe2ZaRtyiaYrdG3eV9z5Y4LbPt1NYVC2tbPgyvAdXOu+5vzZD65UbcngwwwwAADDDDAAAMMMMAAAwwwwMD6MDAuwJ30A2YJSQ898GDLD4f1Ieqk9wlmM7o20ymMe2VbhbepIyNua9qELKcZgVs/YibAFdgKbBlggAEGGGCAAQYYYIABBhhggAEGGJg7A8sNcPfct7898cRTUwW4k4Ld4foEtfVDZ7Vt2gA3bUmbBLhuzrm7OT0FWx9PwVwn14kBBhhggAEGGGCAAQYYYIABBk6mgeUGuNfdfVM7fOSxVQW4Nco2YW1+uCzhbaZSyLy3FeBOO4VC2pI2CXAFuAJcBhhggAEGGGCAAQYYYIABBhhggAEG5s7AcgPcrXfuaA88eHghaK3AddplAtuEtVlmnxp9W0FuTZswbYCbtqRNAlw359zdnCfzyY26PRlkgAEGGGCAAQYYYIABBhhggAEG1oeBcQHu1oM72qQfMbvo9suWNQ/uMNitADc/WDbc1n/OqNx+RG6/rd7X/LdpkwBXgCvAZYABBhhggAEGGGCAAQYYYIABBhhgYO4MTApw80Nmm/Zvb5v2bW+X3b21Xbpn8ygkTViaKQseOvzoogFshazjljXfbaZS6F8ZdVsjbzNKd6mQN21IWyrATRvT1rT5LE8Q1scTBNfJdWKAAQYYYIABBhhggAEGGGCAAQYYYGBxAxXibj20o41eB3e0cQHuxXduahsy2vW2y9r9DxxuGQE7LqBdal2C2YyuzXQJ414JeJcKb3PstCFtSZvSNgGuJyxz94TFl9fiX176R/8wwAADDDDAAAMMMMAAAwwwwMCZYKAC3Cz7AHc0jcK+7W3jPdvapXu3jELShKUX3nZpu3ZvRuE+sqIAd6mAd5rtOXbakLYsBLh7t4zaagSuIFeQywADDDDAAAMMMMAAAwyckQauOLitfeqOc9o1d3y4XXXPxRP7oC+3Y//mMeWubNfd+t5217ZXtj1bXt52X/26Nr7cdMHR5YeuaDfc9EejulLfruve2NKGpUOXtW3H0seb7nzUo58YYOBUG1g0wN3/XIB7yV3PTaNwwa0Xt/333dcef/zJUx7i5pg5dtpQ0yekbQmZEzZn6gdTKPhjbYo/BHzZnOovG8djjgEGGGCAAQYYYICBk2sgoe2T7/jHrb3+rPb4u/5527F/49j/Nrr7spe19vq/0v7sLf97u3b3B44rk+D2qT/6B6M6Uk+9/uJ3/+e2d/NPtO33XXlc+aWu6a5r39D+7C3/20I9VV/WJRietP9at2PScaw/uSb1r/5lYG0MjAtw80Nmi02jcMHuS9rmOy5vn/70IyueSmGakbbDMk8++fTomDl22rAw+rab/1aAK7yd+AeAL421+dLQj/qRAQYYYIABBhhggIHZNXD7jl9sn33D57a/fOPntd1X/9oJ/330yT2faE//4f81CnD3b/j+47Zft/u97dm3/J1R2Prnv/c3233nfmc7cNF/bc+89QtG61Lvnq2vOG6fxSzsuubs9he/+zdG+yawPXjhf273feIF7TNv/vzRumxLmWEda92OYf0+z65f18a1YWC8gRMC3MyFeyzAHU6jUKNwM3VBRsBeedc17YFPHzklIW7Ne5tj5tij6RPu2NiOG327b3tLm43AFeKe8AeAL4DxXwD6Rb8wwAADDDDAAAMMMDBfBjI1waPv/pejgPSR93xZu+LQ9uP++6hG3ybETZj73PW/sj304W8Y7ffU2/5R++Te8xa2pc4j7/uq0baEuZ+685yFbc/tf3w/ZvRvRgFnxG327UcDX733wvbU2//RaNuJI4XXth2T2mf98ddLf+gPBmbfwAkhbh/gdtMo5IfC6sfMMgL2/Fs2tKvvun70g2IZHTscMbtWnxPeJijOsXLM4ejbfvoEAa7wdsk/JHwpzf6XkmvkGjHAAAMMMMAAAwwwsHIDGXmbEbh53XLNby/8N9IoOP2jv98++4bPaXcNRtJef+u725//3t8abbvj8l9Y2Keuw403vPXYaNq/0u7a9qoTtle5Wt569a+3v3zD5432yb61vpY5Rtrxl2/86+3m635nYftat6OOZ7lyT/pO3zEwGwbGBbg1CjdTEuSHwS67e+tontkahZv5ZyvEvfLOT42mNjgZc+KmzkzVkGNUeDuc+zZtSxvT1kz9YASuEHfhH39fMrPxJeM6uA4MMMAAAwwwwAADDJw6Axl1e/j9Xz0a4dqPwt276cdHUydkntzhj5zdvfFHRuWffev/0T5118dP+G+q/IjZ4+/8klGZh/7060/YPry+D5zz/KMjbN/5JWN/AC3HyLEyQnf/hh9YqG+t2zFsl8+nzqG+1tcMrL2BCnG3ZgqF4TQKx0bhjkLcbhRuTaWQYHXTbdtGPy720OHn5sV95pln2kpfTz75VHvw4SNt3733to27t7Xzdm2YKsA1Ald4u/APvy+Ktf+i0Kf6lAEGGGCAAQYYYICB9WGgRszWCNfnRt9+bss8ucPruBD4vvfLJ/5QWYWyT77ji9qV+y87oY6qM9tSJuHsfed+19hyCZlrqoccu/Zdy3ZUnZbrw6zr5DoxsLSBCnCzrAB3OAp34z3bFkbh1lQKFeImYP3ETRe2a/bc0O67/+H24MOPtISwyw1wjwa3j4zq+OSd14/qHBfe5viZ0iGhctqVEbgJb43AFeAu/MPvxl/6xtdH+ogBBhhggAEGGGCAgXk18Nxcsg9/6GtHPz6WKQsSmmZO2/66TxO4pnxGyiaUnTRKt+r81B3ntPxoWcoOp2qoMllmJG/KZGRvRviudTv6Y3k/r86dF9tnloETAtwxo3BPmErh9staP5VChbjn33xxS/h68L4H2v2ffrg99PAj7bHHnmhPPPFke+qpp9rTTz89euV91mVbytz3wEPtwL33j/Y976aL2rk3XtA+cfNFo9G39cNlx02fMAhwM4WCEbgC3OP+EPFFdmZ9kbnerjcDDDDAAAMMMLA+Dbzpw7/ffuiVL/O3/Br/99zOXe9qn3nT/zKah/bP3vK3T5hvtu6XTKeQaRUSpt573gsnXoc7t/30qMxn3vz57Zo7PjyxXLalTOrLPnWc4TLHSpma0mGt2zE8ns/r8/vBdXPdGDjewDQhbo3C7X/QrA9xE7hmJG7C14/fcEG79JYt7eo7rmu37dszCmfvve/Bdt99D49eh+59cLQu21Lm0l2b28duOH+03yi8venC46ZOyGjfDbdfNvohtczFmx8v60fgmgN3jf+xd4Mcf4PoD/3BAAMMMMAAAwwwwMDJMfCJmy5q3/XiF7R3b3rfxLBvUsibfRP+XnrX5tG+ef/lX/7lJ7y+70d+oL34Jf9pYf3zvv5rR8fLfv36cftmXcrUMcpBPqfetDvvc+y0p7bX8hfe+IsLx51U//O/41vH7lt1TLu8fcdr22fe/L8uvPJDYglJ8/rsGz63feZNz21L2dTbj5jNHLSTjjVtgHvzzje1v/id/2n0I2b5MbNJ9Q0D3LVux6TjWn9y7mP9ql8ZODUG+gB3OJVCRrZO+kGzhKqjqRR2XzIKXIchbkLZvM65/hNjXx/beV4bvQbhbeoZ/XDZrReP6q/Rt5k+YWyAe+yHzPyImSB34h8IvkxOzZeJftbPDDDAAAMMMMAAA4sZmCbQTNCZclVPwtGEuPW5lsMAt9an/Ov+8NePC3drW5Y/8ZqfPCF47UPY1JvQNsv+GGnDpBC2X98HvjmP/lwS+Ob41Z7+uLVupcsKWSu0XWxZo2OnHTFbdS81Avfm635nNNq35t+ddC7DAHet2zHpuNb7fmKAgfVuoA9x6wfNMq9sAtwKcUc/ZrZ3y2gO2poLt0bhZqqD0VQKNx+dAiGjcPOqEHe07ALbWl/lauRtH95esPuSUYCboHjDHRufG4F7bAqF40bh7tveBLgC3IU/hNb7Dan9/lFhgAEGGGCAAQYYmEcDCTPHhbGTzrUPUIdlhtsmBax9gJo6+gB3NSNwa9RtH8IO23QqA9xh/1QouliYetU9G9pTb/tHo1G6azGFwrW3fXA00jfhcYXEw3bl8zDAXet2jDumdb5TGWBgXgxUiDv2x8z2bx/9YFiFuKMA946No7lwaxRuH+LWdAoJZiusHS7HhbcLP1x268WtAtwTRuDu2TwKkWsqhbQp8/QKcAW4AlwGGGCAAQYYYIABBhiYYQPDAHcYeCaETTBa/5Gd8glZf/o3Xr3o6NeqN/smoK16sl+2VX1ZVoDbr6v3VU997pcJapcb+Ka+fnTuuPdrNYVC39a8ny7AnW4O3PoRs6f/8O+1q/decFx/9setYy4V4NaPmI1+WO3Q9jbtHLjTtqNvk/dCOwYYmDcDC9Mn5IfMDu1oGYFbo3ATkA5/zGzcKNxMfVBTKfQhboW1w2UC3n707cQAtxuFuzCVQoLcY/PhJsQV4M7wH2rzdrM4H/8AMMAAAwwwwAADDDCwfAMJNDO9QYLQhLcJRWsu2fRnH6BWYJqyeT/s73Hhb+rKqw9wE+L2wWvNgTtNuFqBa422zTJtyavW9e+Hbcwx8qr1J3MKhZuv/712+ANfs/B65L1f3v7yjZ/XPvuGz2mPvetfLKxPmZQ92qYrW8olcD3y3q9caGe1t5YPnPP8UZkKXGv9cDnNSNorDm1vqSfHTL1H61jbdgzb5fPy71V9ps8YmF0DxwW4B3e0rQd3PDeFwr7tox8OG43A3bN5NBdtpjXI6Nh+BG4C3NFUCjdduPCjZhXSjlsm5B29br5o4YfLUkfNgXvcKNyEuF2QO5oPtxuNK8AV4E78g8MXz+x+8bg2rg0DDDDAAAMMMHDmGKiANuFnQtZc+3o/DEJT9lv+/beMAtnaVvtkv3EBbgLXhLV/etU5LSNb8zkBboWt2a8fgTusY2ix2lbHqzor2J20rHbW+Va9JzPArXlqE4wu9eqnNzh0/otH5SeNrp12dGyd4+H3f/WiYe+1t3+o/dlb/nZrr/8r7a5tr1r4b7i1bke1x/LM+X5xrV3reTdQUyfUMsFtXgujbwfTJ1y6Z/NoPtpRmDohwJ0mxO3D24zardG3fXhbAW5C4oTFNZ1CzYlbo3ET5gpwBbgL//jP+03r/PzDxAADDDDAAAMMMLAeDVR4WiNkcw4JOfMahpuv+vVXj0LejKhNgJtXP1p3GL72dVbfpN5hgFvbskwdS4WyFcb2+6Vt2TfrKlyuz31om/eTQt5av1ZTKCQY3bPl5Quv/Re/pP3F7/6N9pdv+LzRnLP9tpSt86kfHstI3Tsu/4WF9bX9lmt+ezSSN3XdeMNbT9he5WqZUDbh7KTyezf9+Gj7s7//d9un7jhnob61bke1x/LkfFe+7DU/1r7z+16wcP3088npZ/2qX8tAhba1rPlvx4W3w9G3i43AHQW4N1+0MJ3CUqNvK8CdOsTtRuOmHQJc4a1/OBhggAEGGGCAAQYYYGCGDfQBbMLOmkahgtc++Kz/YE2oWwFu1vUhb+rICNnUm22pp0LRfjkMcPv9+vd1zH7Zj8DN+pRfKvCtKRpSfrh/3/5sH4a//bFX+77mo13sR8xyjExp8Mh7vmw0avbZt/yddt3u9y7cR5/ce1578h3/ZLTt4Q/+v6Oy1a5r7vhIe/DD39juO/c725X7LlnY5+q9F7an/ujvj/Z58h1f1PK59tm5610tx0jAe+j871lYv5p2VN2Wpzbo+uh157Yv/tIvaQlyT2ff/+of/0Z73vO/dvS/a5/Odjj24v7+4IK3t29+4bfM3HWa1k9GsMZZ7z3n9M/+5Re3LJdz/XPM3Du5h6bdr0LbLEfBbea+7Ubfbjo28nbjPdtG0ydk5G2C0voBs7Q/I2NHUyjkR8duvXg09cFx4W1C3JomYbisgPfY6NvsV6/jplE49oNmGY272IhcI3Bn+I+1aVEqt/iXnv7RPwwwwAADDDDAAAPr1UAflvZhbs5nUpA5DHD7c+/ry/oKgvsy40bg9nVOE8im3rQvgXPC2Qqec5zUn1feD9sz7pxmMcBN2xPaHg1Wz2oJfB9995eOXnmf6RieeesXHBfsZp/6IbJsv3vjjxwXROy65uzRCNxs+/Pf+5uj+XUff9c/b599w+eO6nvij7/4uGA39a20HbWv5an/bpw2/MpI3bPOOuuEV43gHbe9QtkKzob7V5CWfev9OAMVNA/3X+rzcgO2cce27jmTaxXgLjc0Xa2f2v8X3vzaEwLcuFvM3rjrX/Utd78KcPvw9rgfLtu/vSW8zQ+FJbytADcjXnPMhfB29yXt4ts2tqv2fqrdduiOduCBQ+3+Bz/dHnrocHv44SOn7CXAFeAe90fDuJvFuue+QPWFvmCAAQYYYIABBhg4lQYSdGZE6rhjDoPNKtOHrbWulsNti43A7ade6IPeYehadddyOIK2D2WzLSN9a8TtsK4cJ2Fv9qn6hufZ11dl1mo57QjcOt51t763PfX2fzQaHVtz6H727L86+sGxjLatcrXcd8kPjsomlN199etO2L7r2je0TJNQdWWZsg99+BuOG7Fb9dVyue2o/SxPzvdZArMv/IdfeEL4ulQAmn1qZOK4kDUBVh/g9oFWHwxX4JV1ucb1OeUXC2f74y/XRtpVbVvuvsqPdzgpwK3rOfQ0KUDPNf+BV/7g1CNYq/6V+snxvuJ5X9ne8KHfOy7AXcxezqX8LVVueN71uT//Cm8XRt+OmfN2sZG39eNl19yzsx188N720MOH20OHH26PPf54e+qpp9rTTz/Tnnnm2fbss6fuJcAV4J7wR4Mvz/FfnvpFvzDAAKi/in4AABynSURBVAMMMMAAAwycSgMJKitETZDbT3Ew7n0FvcOQNm3u96/Rr1nfB7N1btler/44Z7/3d0bhar9usfcJYt924TtHYW2Vq7lrc27ZPlw/DH/Tpgpws0zwm32GIW+1/XQtr957QcsI2sx3mx8wm9yOK9sn95zbUn6pMrde/ett581/3Hbsfy7MnrzP0Xtz+na4l5fqy9O9fS0C3BoBWcsEuH0I3J9jhW4VINe2lK+RvbUuZRLQZZ+sy+eV/G/xVZ/l8fdj+rxCyeEy24YBa12D/pqM69NpQ/aqv9zUMsfOa1xQ3/uJh+EDjBhKiDxsfz14SNg7zlCFuRUmjzuv4bplhbfHRt+Opk04Nu9swttdB3e3Bx9+uD14+OH25JNPndKgdlIoLMAV4C7yh8PxXyLDm8Jn/cMAAwwwwAADDDDAAAMMMMDAeAMJnfpRgeP6qcKuYUCVkGwY3uVzhWdZJgyrOisIS/g2KYB78cv+03EjI/tj9gFc1VnLHCfHrvJ9gFvHqnbVPpbjTSynX9LfvZ+65tXndT1SZ39NJh1j2jC06q/gtpbT+km70taqJ35y7IS4WfbWsi1lJ7U/2/sHCEudw7jwNvPeZuqEaea8vfrua9sDDz3YHjx8uD399NMzEdxWoCvAFeAufOFPusmtX/0Xrz7UhwwwwAADDDDAAAMMMMDAmWWgwqaEUJOufbb1IV2Vq7CuPmdZYVfeD7cnNKugq4KzCt5qmRA2ZTLacThaMwFaPwKy2l4hYf95UtjWt9X71VtP3/c26prX9a1rk76e5pqkfBlIHZOuUdVfbmpZ+y7lJ+3MsaqeuK1XjpltZbXOaVz7e3PV1nHraluWFeAO573dvP/ytmnf0TlvL7t768J8t/0Plu25/+7RqNtMkVCh6SwtBbgC3Ik3bX8TeL/6L199qA8ZYIABBhhggAEGGGCAgTPLQIKrCquG174CroRYw20VbPXrVxvgZv/UlwBteMxhgJagLK+0veYmrbYMy9Z6y7W1neu0lgFurvk3v/BbRtc0dU+6XuWygttaTuPnPds+MLIVO1VP7VfHK9u1PW0ZZyr79eef/RcLcBcNb4/9YNm48HbzXdvboQfvbw8deXgmg9sKkQW4AtyJN23dXJZr+yWsP/UnAwwwwAADDDDAAAMMMHBmGEgw1Y9s7a97gqt+aoJ+W0KubBu+KnitEKz2SV0VFFcwVsFbLStIy74p3+8zLkCruhOaZZ/Um3X9flXGcu09D/u5rnld32yvfl/s+qVMtieIzz7DequOWlb95aaWy/VT9Xz5875iwWZ/P/RtHtemnO/Q/6TPsX/RbZeORuCORt+O+dGyUXi7d0u75K7NrUbebrnr8tGUCUcee3Smw9uEuAJcAe7CDV83q+Xaf/HqU33KAAMMMMAAAwwwwAADDJx5BirEShg1vP5ZV6HruG0VmNW2fK56suy39wFYHbOCt1qmfI2qzXJSmFbHm7Ts2zGpjPWrt55+7n3kmuc61/XN++rnPgytdf2ytzZu/75sbS83tVyOn7StwtYyW/Wmnhyvd9T77dsyfD9pBO6k0bf9vLeX9j9YdsfGlpG3me/2yCOzH94KcIW3Czf78KbwefVftvpQHzLAAAMMMMAAAwwwwAADDCSomvS/gleYNXTSB7QJ5/IDUn2ZfnvW9wFYBWU/9ZuvOu5Hy3Ksvq4qV+trXtx8rvBtuctJ59O33fvp7olc42H4metc1y3vqy8XC3CzrUbfVvnsOzRZ26r+lfpJm1P3u7d+YBRAl4msr0B6GMT2fqsd45bD/VKmwtssTxh9O5j3tkbe5hzvffD+duTRR2Z+5K0pFIS3Czf6uJvCuum+UPWTfmKAAQYYYIABBhhggAEGGFjMwLgALaHWpAAtdSXsquBrms/jArA6boVmVc8wlM2xFgsA+3Nbqt19We9Xfl8Mg8oKVXOd+/fVx5OuX5XNNa6ytRwaq/W1XK2fOnbMDH3m2H2bUqb/XG0YLof9ku0V4PY/XDb60bL920c/XNbPe7vhjo2j/ssPls36nLcV3NbSFAqC3BNu4uEN4vPKv3T1nb5jgAEGGGCAAQYYYIABBs5sA32QFQsVQvUB7dDIMFxLAJbgNcuUHW5PXX1QmzJZVz9alfJ13D4oS30JkrOsEbjDttTnakPmNE1bhsercpar917XJdcs/VmGsr5/X309KcDNtZ70oKA8pM6qp1+u1k+1c+g8n4dtyrpymffDhwzTfv7hX/jRtuXAFW0U4B4bfTucOuGafde3Tz802z9YVqFtvxTgCnDH3qj9Tev96r989aE+ZIABBhhggAEGGGCAAQYYiIEEVPlf2hO6TTKRMCvlKgRL+fwv7fWDaNmeaRUShFW41QdxCecSyOYYVUcFZOOOOQwMh2Wyb47TH6OCtiyH5X1enfX0d3+9xl3Puu61HBeKLuUs13NcmXHH69szvL7j/JS73kfeD9s5rtyw/vo8DJ3Hjb5NgFtz344bfZt5b5966qnVT53w9JPt2ccPt2efeGxiXU8/+kx76vDT7Zknn5lYpg9pF3svwBXg+qJlgAEGGGCAAQYYYIABBhhggIE1MlDBZgVry1lm3wq0ar8+NM37Cvf6YKwCriyHIVety4jZbOvL1vuqsz7XMuvTjknhXbV1XAhYdVguL8ztQ9Xq//4aVJ/3LoYjcLPfMCiddB1ST+qv+tbKT7WznKb+alMdo4xPO5q79qu2HhfgHtyx+Ojb2y9ruw7ubg8dObzqMPXZQ1e1p6/4rfbUR1/Xnnzfn7SnNt/Unjny5EK9Tx95ut1//kPt9l8/1G587aF28x882O676Yn27DPPLpRZLKwdt02Au0Zf0JNuBOuX90Wlv/QXAwwwwAADDDDAAAMMnGoDd2776XbveS8cG2xdc8eH22fe/Pmtvf6sRV8pk7Lj2j6ujr78Vfdc3B57179oN1/3Oy1tmXSsbBtXv3Xzdc9USDUpNM31zrYKxobXf7FtVTZlKjzLsoK1bE8YmEC2D/Vqv0nL7FOjgyeVsX5ppxV6VkC5kj7LtZ02EK3665rH1Gr9VJ11LpOcVrnlLOveqP4ZF+AuNvr2wYcfbk8//fSKQ9RRsHpga3v6I9/cnjj7G9tjP/OD7ZGX/mo7/N0fbo+/Y0979oln2jNPPNMOvOP+ds233tm2/Lu72oZvubud8+372rk/dF/bd/0TKz62AFeA6w8ABhhggAEGGGCAAQYYYOCMMbBYQDoMTieFug996OtGYeu44CEh7F++8a8vhLCpIwHuk+/4xwsBbwLbI+/9yoXPaVOFs1nWcbOs9Slf78cd17qlwzF9pI8YmB8Dx4W3h3a0rQd3HJ37dv/2tvGeba2mT7j4zk0tP1523b4b2oOHVzn37WP3t6cvfXl74ux/2x579UuPhrf/3/vbQ8+7vN33/F3tybseb4/teaJd9x/ualu/8Vh4+2372vu+42B72wvuaxedfbg9+vDKplMQ4PpD7Yz5Q80X9fx8UbuWriUDDDDAAAMMMMDAWhlIGPvAOd/aRsuPfdsJ/32UsDXh6zDcHX6uEbUJcDOaNvtVGLtYgJttDxw7bkLavAS4fK+Vb/WwNK8GjgtwJ0yfcMldm9sowL39snbwwXvbk0+uYu7bw3e3pzf9XHvi976jPfbql7RHfvBX2yM/ck575Kd3tod+8q5270/tbY/veqw9cMUjC+HtBS8+0C748fvb219wX3vTix5ov/eSh9r5b3+sPXT/8kNcAa4A94Q/UOb15nZe/uFigAEGGGCAAQYYYICBMpCgNCFsQtYKWrPMumyrcv2ywtyU69f37ycFuMNpGCrwrXbUcastqdMIXF57W97zwMBzBhYLcEejb/duaQlwM/r2sju3toceXsXct0891p7e8EPHRt4mvH1de/RV57YnLjrQHn7j/nb/bx1o+19/qD166+Pt3i2PHJ024dv2tQt+7L6240+OtDd/9wPtt7/nwfar//Gh9trvPdze+zuPtSeX+cNmAlwB7sQ/PHwxPPfFoC/0BQMMMMAAAwwwwAAD82GgD0yHo2iHn1N2OeUzUnf3Vb+67CkUhqHvsB31eVxwfPCi721PvuOL2tV7L5z433YJnp94xz9th85/8cQyfM+Hb9fRdTxTDIwLcIfz39b0CZ+8+9r20OGVB7jP7L+2PfH7LxqNvH30f/xme3r3/vb0HY+1+777trbna3a1m593a/vU19/e7t98pB3Y+mg759v2tQ+98GC76DWfbrs2P9He8fKH22/+l4fba//z4faz33u4/fKPPdLuum15c/EKcAW4/gFngAEGGGCAAQYYYIABBs4oA5m2IMFsgs1h2JF12ZYy/bas37/h+49bV9v7kbLDMDbblppCoZ8fd7kjcBPcJsA9/IGvaVcc3DamfVe2e897UXtiiZC3zsVSAMgAA+vBwDDA3bz/8pYA94T5b2+/rN12753t0cceW/EPiD1926fa47/yE+3R//bL7ch/fH977G1724O/ck+766tvXghvt33jne3QlkfaPdsea+//jgPt6nccbled81jb+O7H2vZzHm/nv/Ox9osvPdJe+V+OtJ/90UfbTTsFuGP+wXLzrYebTxs5ZYABBhhggAEGGGCAgVNhIIHqcEqDGuWaZU1v0LclQWxfZvi+RseOC3Czrv9hs/4Yfb0pk/l4sy7HzrLqTahc7/t25f11u9/bnvmD/7Pt2fqKE/57OOuyLWWG+/nsfmOAgfVqYLEA99Jj0yfU/Lf7HzjUnnpq5fPfPnPwQHv0Vb/bjrzgT9pDX7u5Hfo3N7Q9/+bmtms08va2lvD24m/e2/Zve7Tdtf3x9o7vure984c+3d7wvQ+2X/tPD7Xf/O9H2m/+jyPtp7/vSPuJ73u0/fxPPd4O7F/ePLhG4HrS7h9xBhhggAEGGGCAAQYYYOCMMrDcEbgJYDNKNiHquLCjD1rHBbgJXvt9J43yTd0pu9wAN/vtuubs9uxb/s5oWW0ct662WQruGGBgvRo4Lrw9tKNtOXBFG43A3Xd0BO4wwH3goQfb008vLzB99tlnj47YffTx9uSHL29HXvz+UXh777/a2fZ89Ynh7ce/9Z529//f3r0/xVXecRznL+mP/RecdpxRq7UZm6mp0aS5aKyNLcl4aTSt1tRbq2NJYtSYVqsGM1ZtqnUSnYqBBRYIIQgkMSEJ4ZJd7pC9Abt7dpfQmU/nWXjg7LrgQshlt+8fdg4BhgO7rxOY9/PM99SNq/NoTHtXj2jnmoBeXm/ibVg77g+nd94+tmlcT2yN6vBhRx2dKUWjM+ew51rgSMDlD7Wcf4AU6kXM980vIAxgAAMYwAAGMIABDGDguwwsZgeuDbI+z9a8d+C6d9uaHbUm/rp3z2YHXLtDd6k7cO3P695tu9CuXPv5HLlWMICBQjSQEXAH5g+45gZmFReq0jcwSybzj6Wz8TaVUryiVZE1/1DolloN//CULt7cnt5523Jrh+pv79KROy/KxNuPVvarpz6q80dj6Xj70tqgXn4orEPlUX15MKYP/hbVR+/H5alK6KN/JfSbJx0dqcs/KhNwCbgEXAxgAAMYwAAGMIABDGAAAxiYx8DoZ3elZ9hm76J1R4/5duCazzEfc+++Ne9zB1zzMRN4zfvMx8x5sscz2H+7I7D7/HNvT8+7Tbz1PZmHmX1bP3yM13ae13bueSPi8VxgoJAMLDbghkKRJc+/HSs9NB1vbzqpaH1Ygc8C8r0yqAtlQzqza0Rtu0fV9FpAdW8ENdTh6GxjXC/9Iqjn1oX0zMawni0dU9mzE/qgPC6vN6EdzzvaWBrXvVsdbS0j4PILil9QGMAABjCAAQxgAAMYwAAGMPAtAyaY2iD6XUd3eF0orJqvkyuu2t27ueKsO9q6w4n5OnaEgvv95nvJdQ7355i3zY3MzA3NYu9+fzYKZ38O/ybWYQADhWzgWgbc0O1eDd90Uhd/cEahhogGD4V0buewTu0eVcueS2p8PSjv3rAq941poNPRmcZ4Ot7+YUNY2zdG9NgD49qyaULbt8V08NOEHno0rnu3OLp7e1J3v5j/rmB24PIHzbf+oCnki5jvnV9CGMAABjCAAQxgAAMYwAAGMIABDGCgeA0sNuAGQ2EtdYTCpQc70vH27M3n1Hr7BTXcmTk24b1VQ3pz9Yh2rQmovTGu08ccZcfbzb+M6uEtMf1pp6MNv3W0antSP30upccPTOa9M5iAS8Al4GIAAxjAAAYwgAEMYAADGMAABjCAAQxgoCAMZARc903M+pb/JmYT3rDO//i8Wm7pUP2PpuPtoZmZt/tXDWmfvWHZ2mB69+3JY/GMnbcm3j7wq5jWbY7rvq3T8XblcyndvWdSRzsJuAUBjtWg4l0N4rXltcUABjCAAQxgAAMYwAAGMIABDGAAA1fHQEbEHWhUTV+DqucJuH2jg3IcJ+/dru6bmCXjSQ3+M6DGu7rTNywz8fbgqn6V/9zsvB3VrrUBvbw2qOfXhXTqWFwnmhw9/sC4nn4sqtKHp+Pt/aVxPfiko/ueSiodb1+d1Cctk3ISjFAg4LJqhAEMYAADGMAABjCAAQxgAAMYwAAGMICBIjSwUMCt8nlV2VOjr7qqVXGhSh1DXRqfmFhSwDUxd7RpXDWr/Tq0wq9P7h1Q2wcRefaGtXvNXLx9ZkNYZvdta1NCWzdN6EB5XIe/SGjf3x19fCip9z9P6ZG/prSibFL3vDOppov5x1vzPTBCoQgRs7pzdVZ3eF55XjGAAQxgAAMYwAAGMIABDGAAAxjAwPU3kB1wa/uPpnfgVvfWKyPgdnrU7GtVMBxecsANnI6qYn2/Pl7Zrw/XD2vwXFwj/oTe2hZO77w18fZ3GyNqa0ro6+MJmbEJm0tjemWPo+Mnkvrj20ltKEvpZ69O6o43L+uej6f0zXD+4xMIuMRbVqEwgAEMYAADGMAABjCAAQxgAAMYwAAGMFBQBnIF3PQYBRtwL9bqSHeNKjo9quryytzIzD0aYTFvmzEK3hcvqdzMvL1nRLvuu6T3ng6rtTauLw5E9en+qA6Wx+TrSaq5OaFNMzNvH9mR0IH/pLTqhZRW/CWVjre3lU/p994pxRYxPoGAy8VZUBcnK1zXf4WL14DXAAMYwAAGMIABDGAAAxjAAAYwgIHrbWChgOvx16lyJuDaMQoDgSHF40ubg2sCanggocrXwnpjoxmbENAL60PavW1M7+6c0Fu7o9r3akw93Um1nUhqvblhWamjdU8ntfm1uXj7k/en9GLDZfVFFjc+gYBLwCXgYgADGMAABjCAAQxgAAMYwAAGMIABDGCgoAxkBNzBRnmzbmSWPUahrfeUAuHQknfhpiPuaEIfvhSZHpuwfnpsgrlhmZl5u/3xqPr7k+rtT+rXTzla9URSK5+dibd7L+vW/VPaVj2lofHFjU4w5yXgcnEW1MV5vVd3OD8rjBjAAAYwgAEMYAADGMAABjCAAQxg4MYwkBFxBxqVaw6uHaNgbmYWCIWUSCSuKOK2NzsqezSSnnlr4+2jW6I6/LmjuJNKPw5WJrX2zymteCWlO/Ze1m37p7T68H9V27e0eEvAJeAScDGAAQxgAAMYwAAGMIABDGAAAxjAAAYwUHAGcgVcOwfXjlGo7KmRHaPQPnBewciV7cJNJlM6f8rRvw/E9PbrMZW/E1dDQ0ITE3NjEcajKVWeTKnsq0ntOHJZe5ov6/jgpBLJuc+xO2vzPZawanBjrBrwOvA6YAADGMAABjCAAQxgAAMYwAAGMIABDGAgPwMZAXdmjMJ37cIdDQbkOEufhWuDqxNPaWwspWh0/ig7EU8pHEst+oZl9hzuIwGXFZaCW2HhP7L8/iPjeeJ5wgAGMIABDGAAAxjAAAYwgAEMYKCYDWRE3JkxCvPuwu30qKX3hC4Fr2wXrjusXqu3CbgEXAIuBjCAAQxgAAMYwAAGMIABDGAAAxjAAAYKzkBGwM26mVl1b73szczcs3B7RnxXPErhWoVbex4CLhdnwV2cxbxyxM/GyigGMIABDGAAAxjAAAYwgAEMYAADGMjPgA245uh1jVFYaBeuuaHZUGBEkYnxK7qhmY2r1+JIwCXgEnAxgAEMYAADGMAABjCAAQxgAAMYwAAGMFCQBmzETQdcV8St7qvX7C7ci7WavaFZp0c13fUy83DHoxMFEXEJuFycBXlxshKV30oUzxPPEwYwgAEMYAADGMAABjCAAQxgAAPFbMAG3Jy7cLMirhml8FVXtSo6PartbkhH3ELYiUvAJeAScDGAAQxgAAMYwAAGMIABDGAAAxjAAAYwULAGbMTN3oWbHqXQVy+Pvy5jHq6NuGYn7mBg5IafiUvA5eIs2IuzmFeP+NlYHcUABjCAAQxgAAMYwAAGMIABDGAAA/kbWDDi9s4fcc1MXHNjs0AoJMdxbsiRCgRcAi4BFwMYwAAGMIABDGAAAxjAAAYwgAEMYAADBW3ABlz3KAXvQKNq+4/KzsOdbyeuibjN/rb0SIVAOKxEInFDhVwCLhdnQV+crETlvxLFc8VzhQEMYAADGMAABjCAAQxgAAMYwEAxG8gVcU3AtaMUzE3NZiOu68ZmdqSCCbntA+fTu3ED4ZDi8RtjRy4Bl4BLwMUABjCAAQxgAAMYwAAGMIABDGAAAxjAQFEYWErEdd/czERc82jpPamBwJCCobCC4ZAmotH0iIVEIqlkMnVNd+gScLk4i+LiLObVI342VkcxgAEMYAADGMAABjCAAQxgAAMYwED+BmzEzb6p2by7cXtqVNlTo4yQ2+lJh9yqLq+afa3qGOpS/6Wh9JgFE3VDocg1exBwCbgEXAxgAAMYwAAGMIABDGAAAxjAAAYwgAEMFI0BG3DN0R1x7UzchUYquEPu7GiFmZhrd+fa45cXqnQ1HvbrV5jzdnpEwOXiLJqLk5Wo/FeieK54rjCAAQxgAAMYwAAGMIABDGAAAxgoZgPuiDsbcgcalSvi5pqNa0Ou3ZVrYm5G0J2JqzayLvfRns+cv6Rh6DgBj4iLAQxgAAMYwAAGMIABDGAAAxjAAAYwgAEMFJWBnBF3cC7iZo9UcIfcKp9XlTM3OjMx1x10TVR1P2xsXY6j++uac3q6a1XS3N9aVC9MMa8c8LOxMoYBDGAAAxjAAAYwgAEMYAADGMAABjCAgcUZcIfc+UYquMcq2JDr8dfJhNzZmGuCrn3MRF0bd5f9OHOeoz3HVdLef46Ay+oKBjCAAQxgAAMYwAAGMIABDGAAAxjAAAYwULQGckbcmd247rEKsyG3r14m5NqHibn2YaPu1T6a8532t6ukp7enaF8YViMWtxrB88XzhQEMYAADGMAABjCAAQxgAAMYwAAGMFCsBtwR17w9uxs3K+Ta0Qom5mYE3ayoa+Pu1Tp6fHXq9nerZHh4WGf8Z4m4rLBgAAMYwAAGMIABDGAAAxjAAAYwgAEMYAADRW8gn5Brd+WamJsddG3YtcdqE3aX8WG/7hnfWY2MjKgkEonI39ur5qG2on9xinX1gJ+LlTEMYAADGMAABjCAAQxgAAMYwAAGMIABDORvIDvifmtHrmtXrom52UHXht2rdWzqb5G/16+xsTGVxONxBYNB+Xw+nfKdJuKyyoIBDGAAAxjAAAYwgAEMYAADGMAABjCAAQz8XxjIFXJzxlwTdHNEXRt3l/NoGq3P71MoFJJptyWJREKxWCz9jr6+PrV3ndXJ3tM61ve16gfzr9YUfp4rDGAAAxjAAAYwgAEMYAADGMAABjCAAQxgoFANzBdz7fszZubaoLsMx7r+RjX6j+uE/5t0mzWN1sRb02xNu/0fFE1LMVO+ZdsAAAAASUVORK5CYII=;" vertex="1" parent="1">
          <mxGeometry y="10" width="1392" height="786" as="geometry" />
        </mxCell>
      </root>
    </mxGraphModel>
  </diagram>
</mxfile>
